<ttFont>
<head>
    <!-- Most of this table will be recalculated by the compiler -->
    <tableVersion value="1.0"/>
    <fontRevision value="1.05199"/>
    <checkSumAdjustment value="0x19660be1"/>
    <magicNumber value="0x5f0f3cf5"/>
    <flags value="00000000 00000011"/>
    <unitsPerEm value="1000"/>
    <created value="Sat Apr  9 14:31:12 2016"/>
    <modified value="Tue Jul 26 14:47:39 2016"/>
    <xMin value="-403"/>
    <yMin value="-341"/>
    <xMax value="1325"/>
    <yMax value="920"/>
    <macStyle value="00000000 00000001"/>
    <lowestRecPPEM value="7"/>
    <fontDirectionHint value="2"/>
    <indexToLocFormat value="0"/>
    <glyphDataFormat value="0"/>
  </head>
    <TTGlyph name=".notdef" xMin="50" yMin="0" xMax="450" yMax="660">
      <contour>
        <pt x="50" y="660" on="1"/>
        <pt x="450" y="660" on="1"/>
        <pt x="450" y="0" on="1"/>
        <pt x="50" y="0" on="1"/>
      </contour>
      <contour>
        <pt x="370" y="80" on="1"/>
        <pt x="370" y="580" on="1"/>
        <pt x="130" y="580" on="1"/>
        <pt x="130" y="80" on="1"/>
      </contour>
    </TTGlyph>
    <TTGlyph name="A" xMin="4" yMin="0" xMax="673" yMax="660">
      <contour>
        <pt x="451" y="149" on="1"/>
        <pt x="223" y="149" on="1"/>
        <pt x="177" y="0" on="1"/>
        <pt x="4" y="0" on="1"/>
        <pt x="236" y="660" on="1"/>
        <pt x="442" y="660" on="1"/>
        <pt x="673" y="0" on="1"/>
        <pt x="496" y="0" on="1"/>
      </contour>
      <contour>
        <pt x="415" y="266" on="1"/>
        <pt x="367" y="424" on="1"/>
        <pt x="338" y="528" on="1"/>
        <pt x="336" y="528" on="1"/>
        <pt x="309" y="425" on="1"/>
        <pt x="260" y="266" on="1"/>
      </contour>
    </TTGlyph>
    <TTGlyph name="A.swsh" xMin="-1" yMin="-110" xMax="909" yMax="660">
      <contour>
        <pt x="687" y="149" on="1"/>
        <pt x="452" y="149" on="1"/>
        <pt x="428" y="79" on="1"/>
        <pt x="398" y="-17" on="0"/>
        <pt x="280" y="-110" on="0"/>
        <pt x="175" y="-110" on="1"/>
        <pt x="106" y="-110" on="0"/>
        <pt x="14" y="-64" on="0"/>
        <pt x="-1" y="-19" on="1"/>
        <pt x="56" y="90" on="1"/>
        <pt x="73" y="49" on="0"/>
        <pt x="123" y="18" on="0"/>
        <pt x="165" y="18" on="1"/>
        <pt x="210" y="18" on="0"/>
        <pt x="266" y="76" on="0"/>
        <pt x="291" y="147" on="1"/>
        <pt x="428" y="534" on="1"/>
        <pt x="312" y="534" on="1"/>
        <pt x="265" y="534" on="0"/>
        <pt x="216" y="490" on="0"/>
        <pt x="216" y="451" on="1"/>
        <pt x="216" y="416" on="0"/>
        <pt x="264" y="368" on="0"/>
        <pt x="306" y="364" on="1"/>
        <pt x="255" y="248" on="1"/>
        <pt x="169" y="254" on="0"/>
        <pt x="62" y="364" on="0"/>
        <pt x="62" y="454" on="1"/>
        <pt x="62" y="552" on="0"/>
        <pt x="188" y="660" on="0"/>
        <pt x="305" y="660" on="1"/>
        <pt x="678" y="660" on="1"/>
        <pt x="909" y="0" on="1"/>
        <pt x="732" y="0" on="1"/>
      </contour>
      <contour>
        <pt x="651" y="266" on="1"/>
        <pt x="603" y="424" on="1"/>
        <pt x="574" y="528" on="1"/>
        <pt x="572" y="528" on="1"/>
        <pt x="545" y="425" on="1"/>
        <pt x="491" y="266" on="1"/>
      </contour>
    </TTGlyph>
    <TTGlyph name="AE" xMin="-4" yMin="0" xMax="894" yMax="660">
      <contour>
        <pt x="894" y="127" on="1"/>
        <pt x="894" y="0" on="1"/>
        <pt x="421" y="0" on="1"/>
        <pt x="421" y="196" on="1"/>
        <pt x="243" y="196" on="1"/>
        <pt x="169" y="0" on="1"/>
        <pt x="-4" y="0" on="1"/>
        <pt x="279" y="660" on="1"/>
        <pt x="880" y="660" on="1"/>
        <pt x="880" y="533" on="1"/>
        <pt x="581" y="533" on="1"/>
        <pt x="581" y="391" on="1"/>
        <pt x="810" y="391" on="1"/>
        <pt x="810" y="271" on="1"/>
        <pt x="581" y="271" on="1"/>
        <pt x="581" y="127" on="1"/>
      </contour>
      <contour>
        <pt x="421" y="308" on="1"/>
        <pt x="421" y="538" on="1"/>
        <pt x="373" y="538" on="1"/>
        <pt x="286" y="308" on="1"/>
      </contour>
    </TTGlyph>
    <TTGlyph name="Aacute" xMin="4" yMin="0" xMax="673" yMax="886">
      <component glyphName="A" x="0" y="0" flags="0x0"/>
      <component glyphName="acutecomb.cap" x="338" y="0" flags="0x0"/>
    </TTGlyph>
    <TTGlyph name="Aacute.swsh" xMin="-1" yMin="-110" xMax="909" yMax="886">
      <component glyphName="A.swsh" x="0" y="0" flags="0x0"/>
      <component glyphName="acutecomb.cap" x="574" y="0" flags="0x0"/>
    </TTGlyph>
    <TTGlyph name="Abreve" xMin="4" yMin="0" xMax="673" yMax="878">
      <component glyphName="A" x="0" y="0" flags="0x0"/>
      <component glyphName="breve" x="88" y="160" flags="0x4"/>
    </TTGlyph>
    <TTGlyph name="Abreve.swsh" xMin="-1" yMin="-110" xMax="909" yMax="878">
      <component glyphName="A.swsh" x="0" y="0" flags="0x0"/>
      <component glyphName="breve" x="324" y="160" flags="0x4"/>
    </TTGlyph>
    <TTGlyph name="Acircumflex" xMin="4" yMin="0" xMax="673" yMax="884">
      <component glyphName="A" x="0" y="0" flags="0x0"/>
      <component glyphName="uni0302.cap" x="338" y="0" flags="0x0"/>
    </TTGlyph>
    <TTGlyph name="Acircumflex.swsh" xMin="-1" yMin="-110" xMax="909" yMax="884">
      <component glyphName="A.swsh" x="0" y="0" flags="0x0"/>
      <component glyphName="uni0302.cap" x="574" y="0" flags="0x0"/>
    </TTGlyph>
    <TTGlyph name="Adieresis" xMin="4" yMin="0" xMax="673" yMax="870">
      <component glyphName="A" x="0" y="0" flags="0x0"/>
      <component glyphName="dieresis" x="87" y="160" flags="0x4"/>
    </TTGlyph>
    <TTGlyph name="Adieresis.swsh" xMin="-1" yMin="-110" xMax="909" yMax="870">
      <component glyphName="A.swsh" x="0" y="0" flags="0x0"/>
      <component glyphName="dieresis" x="323" y="160" flags="0x4"/>
    </TTGlyph>
    <TTGlyph name="Adieresis.titl" xMin="4" yMin="0" xMax="673" yMax="662">
      <contour>
        <pt x="116" y="522" on="0"/>
        <pt x="75" y="559" on="0"/>
        <pt x="75" y="592" on="1"/>
        <pt x="75" y="625" on="0"/>
        <pt x="115" y="662" on="0"/>
        <pt x="152" y="662" on="1"/>
        <pt x="185" y="662" on="0"/>
        <pt x="204" y="643" on="1"/>
        <pt x="163" y="524" on="1"/>
        <pt x="157" y="522" on="0"/>
        <pt x="152" y="522" on="1"/>
      </contour>
      <contour>
        <pt x="520" y="522" on="0"/>
        <pt x="514" y="524" on="1"/>
        <pt x="473" y="643" on="1"/>
        <pt x="492" y="662" on="0"/>
        <pt x="526" y="662" on="1"/>
        <pt x="562" y="662" on="0"/>
        <pt x="602" y="625" on="0"/>
        <pt x="602" y="592" on="1"/>
        <pt x="602" y="560" on="0"/>
        <pt x="562" y="522" on="0"/>
        <pt x="526" y="522" on="1"/>
      </contour>
      <contour>
        <pt x="451" y="149" on="1"/>
        <pt x="223" y="149" on="1"/>
        <pt x="177" y="0" on="1"/>
        <pt x="4" y="0" on="1"/>
        <pt x="236" y="660" on="1"/>
        <pt x="442" y="660" on="1"/>
        <pt x="673" y="0" on="1"/>
        <pt x="496" y="0" on="1"/>
      </contour>
      <contour>
        <pt x="415" y="266" on="1"/>
        <pt x="367" y="424" on="1"/>
        <pt x="338" y="528" on="1"/>
        <pt x="336" y="528" on="1"/>
        <pt x="309" y="425" on="1"/>
        <pt x="260" y="266" on="1"/>
      </contour>
    </TTGlyph>
    <TTGlyph name="Adieresis.titl.001" xMin="4" yMin="0" xMax="673" yMax="662">
      <contour>
        <pt x="59" y="523" on="0"/>
        <pt x="19" y="560" on="0"/>
        <pt x="19" y="593" on="1"/>
        <pt x="19" y="625" on="0"/>
        <pt x="59" y="662" on="0"/>
        <pt x="94" y="662" on="1"/>
        <pt x="130" y="662" on="0"/>
        <pt x="171" y="625" on="0"/>
        <pt x="171" y="593" on="1"/>
        <pt x="171" y="560" on="0"/>
        <pt x="130" y="523" on="0"/>
        <pt x="94" y="523" on="1"/>
      </contour>
      <contour>
        <pt x="547" y="523" on="0"/>
        <pt x="507" y="560" on="0"/>
        <pt x="507" y="593" on="1"/>
        <pt x="507" y="625" on="0"/>
        <pt x="547" y="662" on="0"/>
        <pt x="582" y="662" on="1"/>
        <pt x="618" y="662" on="0"/>
        <pt x="659" y="625" on="0"/>
        <pt x="659" y="593" on="1"/>
        <pt x="659" y="560" on="0"/>
        <pt x="618" y="523" on="0"/>
        <pt x="582" y="523" on="1"/>
      </contour>
      <contour>
        <pt x="450" y="149" on="1"/>
        <pt x="223" y="149" on="1"/>
        <pt x="177" y="0" on="1"/>
        <pt x="4" y="0" on="1"/>
        <pt x="236" y="660" on="1"/>
        <pt x="441" y="660" on="1"/>
        <pt x="673" y="0" on="1"/>
        <pt x="496" y="0" on="1"/>
      </contour>
      <contour>
        <pt x="414" y="266" on="1"/>
        <pt x="366" y="424" on="1"/>
        <pt x="338" y="528" on="1"/>
        <pt x="336" y="528" on="1"/>
        <pt x="309" y="425" on="1"/>
        <pt x="260" y="266" on="1"/>
      </contour>
    </TTGlyph>
    <TTGlyph name="Agrave" xMin="4" yMin="0" xMax="673" yMax="886">
      <component glyphName="A" x="0" y="0" flags="0x0"/>
      <component glyphName="gravecomb.cap" x="336" y="0" flags="0x0"/>
    </TTGlyph>
    <TTGlyph name="Agrave.swsh" xMin="-1" yMin="-110" xMax="909" yMax="886">
      <component glyphName="A.swsh" x="0" y="0" flags="0x0"/>
      <component glyphName="gravecomb.cap" x="570" y="0" flags="0x0"/>
    </TTGlyph>
    <TTGlyph name="Amacron" xMin="4" yMin="0" xMax="673" yMax="834">
      <component glyphName="A" x="0" y="0" flags="0x0"/>
      <component glyphName="macron" x="88" y="160" flags="0x4"/>
    </TTGlyph>
    <TTGlyph name="Amacron.swsh" xMin="-1" yMin="-110" xMax="909" yMax="834">
      <component glyphName="A.swsh" x="0" y="0" flags="0x0"/>
      <component glyphName="macron" x="324" y="160" flags="0x4"/>
    </TTGlyph>
    <TTGlyph name="Aogonek" xMin="4" yMin="-215" xMax="680" yMax="660">
      <contour>
        <pt x="680" y="-192" on="1"/>
        <pt x="643" y="-215" on="0"/>
        <pt x="576" y="-215" on="1"/>
        <pt x="514" y="-215" on="0"/>
        <pt x="438" y="-157" on="0"/>
        <pt x="438" y="-102" on="1"/>
        <pt x="438" y="-35" on="0"/>
        <pt x="501" y="0" on="1"/>
        <pt x="496" y="0" on="1"/>
        <pt x="451" y="149" on="1"/>
        <pt x="223" y="149" on="1"/>
        <pt x="177" y="0" on="1"/>
        <pt x="4" y="0" on="1"/>
        <pt x="236" y="660" on="1"/>
        <pt x="442" y="660" on="1"/>
        <pt x="673" y="0" on="1"/>
        <pt x="608" y="-11" on="0"/>
        <pt x="556" y="-49" on="0"/>
        <pt x="556" y="-76" on="1"/>
        <pt x="556" y="-97" on="0"/>
        <pt x="585" y="-120" on="0"/>
        <pt x="611" y="-120" on="1"/>
        <pt x="642" y="-120" on="0"/>
        <pt x="657" y="-110" on="1"/>
      </contour>
      <contour>
        <pt x="415" y="266" on="1"/>
        <pt x="367" y="424" on="1"/>
        <pt x="338" y="528" on="1"/>
        <pt x="336" y="528" on="1"/>
        <pt x="309" y="425" on="1"/>
        <pt x="260" y="266" on="1"/>
      </contour>
    </TTGlyph>
    <TTGlyph name="Aogonek.swsh" xMin="-1" yMin="-215" xMax="916" yMax="660">
      <contour>
        <pt x="916" y="-192" on="1"/>
        <pt x="879" y="-215" on="0"/>
        <pt x="812" y="-215" on="1"/>
        <pt x="750" y="-215" on="0"/>
        <pt x="674" y="-157" on="0"/>
        <pt x="674" y="-102" on="1"/>
        <pt x="674" y="-35" on="0"/>
        <pt x="737" y="0" on="1"/>
        <pt x="732" y="0" on="1"/>
        <pt x="687" y="149" on="1"/>
        <pt x="452" y="149" on="1"/>
        <pt x="428" y="79" on="1"/>
        <pt x="398" y="-17" on="0"/>
        <pt x="280" y="-110" on="0"/>
        <pt x="175" y="-110" on="1"/>
        <pt x="106" y="-110" on="0"/>
        <pt x="14" y="-64" on="0"/>
        <pt x="-1" y="-19" on="1"/>
        <pt x="56" y="90" on="1"/>
        <pt x="73" y="49" on="0"/>
        <pt x="123" y="18" on="0"/>
        <pt x="165" y="18" on="1"/>
        <pt x="210" y="18" on="0"/>
        <pt x="266" y="76" on="0"/>
        <pt x="291" y="147" on="1"/>
        <pt x="428" y="534" on="1"/>
        <pt x="312" y="534" on="1"/>
        <pt x="265" y="534" on="0"/>
        <pt x="216" y="490" on="0"/>
        <pt x="216" y="451" on="1"/>
        <pt x="216" y="416" on="0"/>
        <pt x="264" y="368" on="0"/>
        <pt x="306" y="364" on="1"/>
        <pt x="255" y="248" on="1"/>
        <pt x="169" y="254" on="0"/>
        <pt x="62" y="364" on="0"/>
        <pt x="62" y="454" on="1"/>
        <pt x="62" y="552" on="0"/>
        <pt x="188" y="660" on="0"/>
        <pt x="305" y="660" on="1"/>
        <pt x="678" y="660" on="1"/>
        <pt x="909" y="0" on="1"/>
        <pt x="844" y="-11" on="0"/>
        <pt x="792" y="-49" on="0"/>
        <pt x="792" y="-76" on="1"/>
        <pt x="792" y="-97" on="0"/>
        <pt x="821" y="-120" on="0"/>
        <pt x="847" y="-120" on="1"/>
        <pt x="878" y="-120" on="0"/>
        <pt x="893" y="-110" on="1"/>
      </contour>
      <contour>
        <pt x="651" y="266" on="1"/>
        <pt x="603" y="424" on="1"/>
        <pt x="574" y="528" on="1"/>
        <pt x="572" y="528" on="1"/>
        <pt x="545" y="425" on="1"/>
        <pt x="491" y="266" on="1"/>
      </contour>
    </TTGlyph>
    <TTGlyph name="Aring" xMin="4" yMin="0" xMax="673" yMax="861">
      <contour>
        <pt x="451" y="149" on="1"/>
        <pt x="223" y="149" on="1"/>
        <pt x="177" y="0" on="1"/>
        <pt x="4" y="0" on="1"/>
        <pt x="234" y="638" on="1"/>
        <pt x="189" y="669" on="0"/>
        <pt x="189" y="732" on="1"/>
        <pt x="189" y="790" on="0"/>
        <pt x="270" y="861" on="0"/>
        <pt x="339" y="861" on="1"/>
        <pt x="409" y="861" on="0"/>
        <pt x="489" y="790" on="0"/>
        <pt x="489" y="732" on="1"/>
        <pt x="489" y="702" on="0"/>
        <pt x="465" y="654" on="0"/>
        <pt x="444" y="639" on="1"/>
        <pt x="673" y="0" on="1"/>
        <pt x="496" y="0" on="1"/>
      </contour>
      <contour>
        <pt x="312" y="782" on="0"/>
        <pt x="281" y="752" on="0"/>
        <pt x="281" y="726" on="1"/>
        <pt x="281" y="700" on="0"/>
        <pt x="312" y="670" on="0"/>
        <pt x="339" y="670" on="1"/>
        <pt x="366" y="670" on="0"/>
        <pt x="397" y="700" on="0"/>
        <pt x="397" y="726" on="1"/>
        <pt x="397" y="752" on="0"/>
        <pt x="366" y="782" on="0"/>
        <pt x="339" y="782" on="1"/>
      </contour>
      <contour>
        <pt x="415" y="266" on="1"/>
        <pt x="367" y="424" on="1"/>
        <pt x="339" y="528" on="1"/>
        <pt x="335" y="528" on="1"/>
        <pt x="309" y="425" on="1"/>
        <pt x="260" y="266" on="1"/>
      </contour>
    </TTGlyph>
    <TTGlyph name="Atilde" xMin="4" yMin="0" xMax="673" yMax="879">
      <component glyphName="A" x="0" y="0" flags="0x0"/>
      <component glyphName="tilde" x="88" y="160" flags="0x4"/>
    </TTGlyph>
    <TTGlyph name="Atilde.swsh" xMin="-1" yMin="-110" xMax="909" yMax="879">
      <component glyphName="A.swsh" x="0" y="0" flags="0x0"/>
      <component glyphName="tilde" x="324" y="160" flags="0x4"/>
    </TTGlyph>
    <TTGlyph name="B" xMin="73" yMin="0" xMax="649" yMax="660">
      <contour>
        <pt x="73" y="660" on="1"/>
        <pt x="394" y="660" on="1"/>
        <pt x="632" y="659" on="0"/>
        <pt x="632" y="482" on="1"/>
        <pt x="632" y="424" on="0"/>
        <pt x="564" y="344" on="0"/>
        <pt x="498" y="334" on="1"/>
        <pt x="498" y="333" on="1"/>
        <pt x="572" y="323" on="0"/>
        <pt x="649" y="240" on="0"/>
        <pt x="649" y="178" on="1"/>
        <pt x="649" y="92" on="0"/>
        <pt x="527" y="0" on="0"/>
        <pt x="409" y="0" on="1"/>
        <pt x="73" y="0" on="1"/>
      </contour>
      <contour>
        <pt x="363" y="390" on="1"/>
        <pt x="456" y="390" on="0"/>
        <pt x="456" y="462" on="1"/>
        <pt x="456" y="534" on="0"/>
        <pt x="363" y="534" on="1"/>
        <pt x="239" y="534" on="1"/>
        <pt x="239" y="390" on="1"/>
      </contour>
      <contour>
        <pt x="380" y="121" on="1"/>
        <pt x="426" y="121" on="0"/>
        <pt x="473" y="159" on="0"/>
        <pt x="473" y="195" on="1"/>
        <pt x="473" y="230" on="0"/>
        <pt x="426" y="267" on="0"/>
        <pt x="380" y="267" on="1"/>
        <pt x="239" y="267" on="1"/>
        <pt x="239" y="121" on="1"/>
      </contour>
    </TTGlyph>
    <TTGlyph name="C" xMin="45" yMin="-10" xMax="658" yMax="670">
      <contour>
        <pt x="630" y="89" on="0"/>
        <pt x="478" y="-10" on="0"/>
        <pt x="369" y="-10" on="1"/>
        <pt x="269" y="-10" on="0"/>
        <pt x="123" y="71" on="0"/>
        <pt x="45" y="224" on="0"/>
        <pt x="45" y="330" on="1"/>
        <pt x="45" y="435" on="0"/>
        <pt x="123" y="589" on="0"/>
        <pt x="269" y="670" on="0"/>
        <pt x="368" y="670" on="1"/>
        <pt x="476" y="670" on="0"/>
        <pt x="626" y="579" on="0"/>
        <pt x="650" y="488" on="1"/>
        <pt x="499" y="427" on="1"/>
        <pt x="485" y="487" on="0"/>
        <pt x="427" y="535" on="0"/>
        <pt x="374" y="535" on="1"/>
        <pt x="301" y="535" on="0"/>
        <pt x="221" y="430" on="0"/>
        <pt x="221" y="330" on="1"/>
        <pt x="221" y="230" on="0"/>
        <pt x="298" y="125" on="0"/>
        <pt x="371" y="125" on="1"/>
        <pt x="426" y="125" on="0"/>
        <pt x="490" y="177" on="0"/>
        <pt x="502" y="233" on="1"/>
        <pt x="658" y="189" on="1"/>
      </contour>
    </TTGlyph>
    <TTGlyph name="Cacute" xMin="45" yMin="-10" xMax="658" yMax="886">
      <component glyphName="C" x="0" y="0" flags="0x0"/>
      <component glyphName="acutecomb.cap" x="362" y="0" flags="0x0"/>
    </TTGlyph>
    <TTGlyph name="Ccaron" xMin="45" yMin="-10" xMax="658" yMax="886">
      <component glyphName="C" x="0" y="0" flags="0x0"/>
      <component glyphName="uni030C.cap" x="362" y="0" flags="0x0"/>
    </TTGlyph>
    <TTGlyph name="Ccedilla" xMin="45" yMin="-215" xMax="658" yMax="670">
      <contour>
        <pt x="635" y="107" on="0"/>
        <pt x="525" y="12" on="0"/>
        <pt x="446" y="-3" on="1"/>
        <pt x="499" y="-41" on="0"/>
        <pt x="499" y="-97" on="1"/>
        <pt x="499" y="-154" on="0"/>
        <pt x="421" y="-215" on="0"/>
        <pt x="356" y="-215" on="1"/>
        <pt x="275" y="-215" on="0"/>
        <pt x="232" y="-175" on="1"/>
        <pt x="271" y="-96" on="1"/>
        <pt x="299" y="-124" on="0"/>
        <pt x="343" y="-124" on="1"/>
        <pt x="368" y="-124" on="0"/>
        <pt x="398" y="-98" on="0"/>
        <pt x="398" y="-75" on="1"/>
        <pt x="398" y="-53" on="0"/>
        <pt x="367" y="-21" on="0"/>
        <pt x="327" y="-8" on="1"/>
        <pt x="194" y="5" on="0"/>
        <pt x="45" y="182" on="0"/>
        <pt x="45" y="330" on="1"/>
        <pt x="45" y="435" on="0"/>
        <pt x="123" y="589" on="0"/>
        <pt x="269" y="670" on="0"/>
        <pt x="368" y="670" on="1"/>
        <pt x="476" y="670" on="0"/>
        <pt x="626" y="579" on="0"/>
        <pt x="650" y="488" on="1"/>
        <pt x="499" y="427" on="1"/>
        <pt x="485" y="487" on="0"/>
        <pt x="427" y="535" on="0"/>
        <pt x="374" y="535" on="1"/>
        <pt x="301" y="535" on="0"/>
        <pt x="221" y="430" on="0"/>
        <pt x="221" y="330" on="1"/>
        <pt x="221" y="230" on="0"/>
        <pt x="298" y="125" on="0"/>
        <pt x="371" y="125" on="1"/>
        <pt x="426" y="125" on="0"/>
        <pt x="490" y="177" on="0"/>
        <pt x="502" y="233" on="1"/>
        <pt x="658" y="189" on="1"/>
      </contour>
    </TTGlyph>
    <TTGlyph name="D" xMin="73" yMin="0" xMax="673" yMax="660">
      <contour>
        <pt x="508" y="660" on="0"/>
        <pt x="673" y="489" on="0"/>
        <pt x="673" y="330" on="1"/>
        <pt x="673" y="171" on="0"/>
        <pt x="508" y="0" on="0"/>
        <pt x="353" y="0" on="1"/>
        <pt x="73" y="0" on="1"/>
        <pt x="73" y="660" on="1"/>
        <pt x="353" y="660" on="1"/>
      </contour>
      <contour>
        <pt x="419" y="130" on="0"/>
        <pt x="497" y="230" on="0"/>
        <pt x="497" y="330" on="1"/>
        <pt x="497" y="430" on="0"/>
        <pt x="419" y="530" on="0"/>
        <pt x="336" y="530" on="1"/>
        <pt x="245" y="530" on="1"/>
        <pt x="245" y="130" on="1"/>
        <pt x="336" y="130" on="1"/>
      </contour>
    </TTGlyph>
    <TTGlyph name="Dcaron" xMin="73" yMin="0" xMax="673" yMax="886">
      <component glyphName="D" x="0" y="0" flags="0x0"/>
      <component glyphName="uni030C.cap" x="329" y="0" flags="0x0"/>
    </TTGlyph>
    <TTGlyph name="Dcroat" xMin="13" yMin="0" xMax="696" yMax="660">
      <contour>
        <pt x="531" y="660" on="0"/>
        <pt x="696" y="489" on="0"/>
        <pt x="696" y="330" on="1"/>
        <pt x="696" y="171" on="0"/>
        <pt x="531" y="0" on="0"/>
        <pt x="376" y="0" on="1"/>
        <pt x="96" y="0" on="1"/>
        <pt x="96" y="273" on="1"/>
        <pt x="13" y="273" on="1"/>
        <pt x="13" y="387" on="1"/>
        <pt x="96" y="387" on="1"/>
        <pt x="96" y="660" on="1"/>
        <pt x="376" y="660" on="1"/>
      </contour>
      <contour>
        <pt x="442" y="130" on="0"/>
        <pt x="520" y="230" on="0"/>
        <pt x="520" y="330" on="1"/>
        <pt x="520" y="430" on="0"/>
        <pt x="442" y="530" on="0"/>
        <pt x="359" y="530" on="1"/>
        <pt x="268" y="530" on="1"/>
        <pt x="268" y="387" on="1"/>
        <pt x="399" y="387" on="1"/>
        <pt x="399" y="273" on="1"/>
        <pt x="268" y="273" on="1"/>
        <pt x="268" y="130" on="1"/>
        <pt x="359" y="130" on="1"/>
      </contour>
    </TTGlyph>
    <TTGlyph name="E" xMin="73" yMin="0" xMax="600" yMax="660">
      <contour>
        <pt x="600" y="133" on="1"/>
        <pt x="600" y="0" on="1"/>
        <pt x="73" y="0" on="1"/>
        <pt x="73" y="660" on="1"/>
        <pt x="587" y="660" on="1"/>
        <pt x="587" y="527" on="1"/>
        <pt x="245" y="527" on="1"/>
        <pt x="245" y="393" on="1"/>
        <pt x="517" y="393" on="1"/>
        <pt x="517" y="268" on="1"/>
        <pt x="245" y="268" on="1"/>
        <pt x="245" y="133" on="1"/>
      </contour>
    </TTGlyph>
    <TTGlyph name="E.swsh" xMin="10" yMin="0" xMax="863" yMax="660">
      <contour>
        <pt x="863" y="133" on="1"/>
        <pt x="863" y="0" on="1"/>
        <pt x="336" y="0" on="1"/>
        <pt x="336" y="534" on="1"/>
        <pt x="260" y="534" on="1"/>
        <pt x="213" y="534" on="0"/>
        <pt x="164" y="490" on="0"/>
        <pt x="164" y="451" on="1"/>
        <pt x="164" y="416" on="0"/>
        <pt x="212" y="368" on="0"/>
        <pt x="254" y="364" on="1"/>
        <pt x="203" y="248" on="1"/>
        <pt x="117" y="254" on="0"/>
        <pt x="10" y="364" on="0"/>
        <pt x="10" y="454" on="1"/>
        <pt x="10" y="552" on="0"/>
        <pt x="136" y="660" on="0"/>
        <pt x="253" y="660" on="1"/>
        <pt x="850" y="660" on="1"/>
        <pt x="850" y="527" on="1"/>
        <pt x="508" y="527" on="1"/>
        <pt x="508" y="393" on="1"/>
        <pt x="780" y="393" on="1"/>
        <pt x="780" y="268" on="1"/>
        <pt x="508" y="268" on="1"/>
        <pt x="508" y="133" on="1"/>
      </contour>
    </TTGlyph>
    <TTGlyph name="E.swsh.001" xMin="73" yMin="0" xMax="821" yMax="660">
      <contour>
        <pt x="735" y="365" on="0"/>
        <pt x="821" y="269" on="0"/>
        <pt x="821" y="194" on="1"/>
        <pt x="821" y="95" on="0"/>
        <pt x="705" y="0" on="0"/>
        <pt x="601" y="0" on="1"/>
        <pt x="73" y="0" on="1"/>
        <pt x="73" y="660" on="1"/>
        <pt x="622" y="660" on="1"/>
        <pt x="622" y="527" on="1"/>
        <pt x="245" y="527" on="1"/>
        <pt x="245" y="389" on="1"/>
        <pt x="449" y="389" on="1"/>
        <pt x="449" y="265" on="1"/>
        <pt x="245" y="265" on="1"/>
        <pt x="245" y="133" on="1"/>
        <pt x="576" y="133" on="1"/>
        <pt x="626" y="133" on="0"/>
        <pt x="673" y="165" on="0"/>
        <pt x="673" y="199" on="1"/>
        <pt x="673" y="264" on="0"/>
        <pt x="597" y="270" on="1"/>
        <pt x="654" y="376" on="1"/>
      </contour>
    </TTGlyph>
    <TTGlyph name="Eacute" xMin="73" yMin="0" xMax="600" yMax="886">
      <component glyphName="E" x="0" y="0" flags="0x0"/>
      <component glyphName="acutecomb.cap" x="323" y="0" flags="0x0"/>
    </TTGlyph>
    <TTGlyph name="Eacute.swsh" xMin="10" yMin="0" xMax="863" yMax="886">
      <component glyphName="E.swsh" x="0" y="0" flags="0x0"/>
      <component glyphName="acutecomb.cap" x="586" y="0" flags="0x0"/>
    </TTGlyph>
    <TTGlyph name="Eacute.swsh.001" xMin="73" yMin="0" xMax="821" yMax="886">
      <component glyphName="E.swsh.001" x="0" y="0" flags="0x0"/>
      <component glyphName="acutecomb.cap" x="334" y="0" flags="0x0"/>
    </TTGlyph>
    <TTGlyph name="Ecaron" xMin="73" yMin="0" xMax="600" yMax="886">
      <component glyphName="E" x="0" y="0" flags="0x0"/>
      <component glyphName="uni030C.cap" x="323" y="0" flags="0x0"/>
    </TTGlyph>
    <TTGlyph name="Ecaron.swsh" xMin="10" yMin="0" xMax="863" yMax="886">
      <component glyphName="E.swsh" x="0" y="0" flags="0x0"/>
      <component glyphName="uni030C.cap" x="586" y="0" flags="0x0"/>
    </TTGlyph>
    <TTGlyph name="Ecaron.swsh.001" xMin="73" yMin="0" xMax="821" yMax="886">
      <component glyphName="E.swsh.001" x="0" y="0" flags="0x0"/>
      <component glyphName="uni030C.cap" x="334" y="0" flags="0x0"/>
    </TTGlyph>
    <TTGlyph name="Ecircumflex" xMin="73" yMin="0" xMax="600" yMax="884">
      <component glyphName="E" x="0" y="0" flags="0x0"/>
      <component glyphName="uni0302.cap" x="323" y="0" flags="0x0"/>
    </TTGlyph>
    <TTGlyph name="Ecircumflex.swsh" xMin="10" yMin="0" xMax="863" yMax="884">
      <component glyphName="E.swsh" x="0" y="0" flags="0x0"/>
      <component glyphName="uni0302.cap" x="586" y="0" flags="0x0"/>
    </TTGlyph>
    <TTGlyph name="Ecircumflex.swsh.001" xMin="73" yMin="0" xMax="821" yMax="884">
      <component glyphName="E.swsh.001" x="0" y="0" flags="0x0"/>
      <component glyphName="uni0302.cap" x="334" y="0" flags="0x0"/>
    </TTGlyph>
    <TTGlyph name="Edieresis" xMin="73" yMin="0" xMax="600" yMax="870">
      <component glyphName="E" x="0" y="0" flags="0x0"/>
      <component glyphName="dieresis" x="72" y="160" flags="0x4"/>
    </TTGlyph>
    <TTGlyph name="Edieresis.swsh" xMin="10" yMin="0" xMax="863" yMax="870">
      <component glyphName="E.swsh" x="0" y="0" flags="0x0"/>
      <component glyphName="dieresis" x="335" y="160" flags="0x4"/>
    </TTGlyph>
    <TTGlyph name="Edieresis.swsh.001" xMin="73" yMin="0" xMax="821" yMax="870">
      <component glyphName="E.swsh.001" x="0" y="0" flags="0x0"/>
      <component glyphName="dieresis" x="83" y="160" flags="0x4"/>
    </TTGlyph>
    <TTGlyph name="Edotaccent" xMin="73" yMin="0" xMax="600" yMax="882">
      <component glyphName="E" x="0" y="0" flags="0x0"/>
      <component glyphName="dotaccent" x="73" y="160" flags="0x4"/>
    </TTGlyph>
    <TTGlyph name="Edotaccent.swsh" xMin="10" yMin="0" xMax="863" yMax="882">
      <component glyphName="E.swsh" x="0" y="0" flags="0x0"/>
      <component glyphName="dotaccent" x="336" y="160" flags="0x4"/>
    </TTGlyph>
    <TTGlyph name="Edotaccent.swsh.001" xMin="73" yMin="0" xMax="821" yMax="882">
      <component glyphName="E.swsh.001" x="0" y="0" flags="0x0"/>
      <component glyphName="dotaccent" x="84" y="160" flags="0x4"/>
    </TTGlyph>
    <TTGlyph name="Egrave" xMin="73" yMin="0" xMax="600" yMax="886">
      <component glyphName="E" x="0" y="0" flags="0x0"/>
      <component glyphName="gravecomb.cap" x="325" y="0" flags="0x0"/>
    </TTGlyph>
    <TTGlyph name="Egrave.swsh" xMin="10" yMin="0" xMax="863" yMax="886">
      <component glyphName="E.swsh" x="0" y="0" flags="0x0"/>
      <component glyphName="gravecomb.cap" x="580" y="0" flags="0x0"/>
    </TTGlyph>
    <TTGlyph name="Egrave.swsh.001" xMin="73" yMin="0" xMax="821" yMax="886">
      <component glyphName="E.swsh.001" x="0" y="0" flags="0x0"/>
      <component glyphName="gravecomb.cap" x="334" y="0" flags="0x0"/>
    </TTGlyph>
    <TTGlyph name="Emacron" xMin="73" yMin="0" xMax="600" yMax="834">
      <component glyphName="E" x="0" y="0" flags="0x0"/>
      <component glyphName="macron" x="73" y="160" flags="0x4"/>
    </TTGlyph>
    <TTGlyph name="Emacron.swsh" xMin="10" yMin="0" xMax="863" yMax="834">
      <component glyphName="E.swsh" x="0" y="0" flags="0x0"/>
      <component glyphName="macron" x="336" y="160" flags="0x4"/>
    </TTGlyph>
    <TTGlyph name="Emacron.swsh.001" xMin="73" yMin="0" xMax="821" yMax="834">
      <component glyphName="E.swsh.001" x="0" y="0" flags="0x0"/>
      <component glyphName="macron" x="84" y="160" flags="0x4"/>
    </TTGlyph>
    <TTGlyph name="Eogonek" xMin="73" yMin="-215" xMax="608" yMax="660">
      <contour>
        <pt x="608" y="-192" on="1"/>
        <pt x="571" y="-215" on="0"/>
        <pt x="504" y="-215" on="1"/>
        <pt x="442" y="-215" on="0"/>
        <pt x="365" y="-158" on="0"/>
        <pt x="365" y="-104" on="1"/>
        <pt x="365" y="-35" on="0"/>
        <pt x="444" y="0" on="1"/>
        <pt x="73" y="0" on="1"/>
        <pt x="73" y="660" on="1"/>
        <pt x="587" y="660" on="1"/>
        <pt x="587" y="527" on="1"/>
        <pt x="245" y="527" on="1"/>
        <pt x="245" y="393" on="1"/>
        <pt x="517" y="393" on="1"/>
        <pt x="517" y="268" on="1"/>
        <pt x="245" y="268" on="1"/>
        <pt x="245" y="133" on="1"/>
        <pt x="600" y="133" on="1"/>
        <pt x="600" y="1" on="1"/>
        <pt x="601" y="0" on="1"/>
        <pt x="536" y="-12" on="0"/>
        <pt x="484" y="-49" on="0"/>
        <pt x="484" y="-76" on="1"/>
        <pt x="484" y="-97" on="0"/>
        <pt x="513" y="-120" on="0"/>
        <pt x="539" y="-120" on="1"/>
        <pt x="570" y="-120" on="0"/>
        <pt x="585" y="-110" on="1"/>
      </contour>
    </TTGlyph>
    <TTGlyph name="Eogonek.swsh" xMin="10" yMin="-215" xMax="871" yMax="660">
      <contour>
        <pt x="871" y="-192" on="1"/>
        <pt x="834" y="-215" on="0"/>
        <pt x="767" y="-215" on="1"/>
        <pt x="705" y="-215" on="0"/>
        <pt x="628" y="-158" on="0"/>
        <pt x="628" y="-104" on="1"/>
        <pt x="628" y="-35" on="0"/>
        <pt x="707" y="0" on="1"/>
        <pt x="336" y="0" on="1"/>
        <pt x="336" y="534" on="1"/>
        <pt x="260" y="534" on="1"/>
        <pt x="213" y="534" on="0"/>
        <pt x="164" y="490" on="0"/>
        <pt x="164" y="451" on="1"/>
        <pt x="164" y="416" on="0"/>
        <pt x="212" y="368" on="0"/>
        <pt x="254" y="364" on="1"/>
        <pt x="203" y="248" on="1"/>
        <pt x="117" y="254" on="0"/>
        <pt x="10" y="364" on="0"/>
        <pt x="10" y="454" on="1"/>
        <pt x="10" y="552" on="0"/>
        <pt x="136" y="660" on="0"/>
        <pt x="253" y="660" on="1"/>
        <pt x="850" y="660" on="1"/>
        <pt x="850" y="527" on="1"/>
        <pt x="508" y="527" on="1"/>
        <pt x="508" y="393" on="1"/>
        <pt x="780" y="393" on="1"/>
        <pt x="780" y="268" on="1"/>
        <pt x="508" y="268" on="1"/>
        <pt x="508" y="133" on="1"/>
        <pt x="863" y="133" on="1"/>
        <pt x="863" y="1" on="1"/>
        <pt x="864" y="0" on="1"/>
        <pt x="799" y="-12" on="0"/>
        <pt x="747" y="-49" on="0"/>
        <pt x="747" y="-76" on="1"/>
        <pt x="747" y="-97" on="0"/>
        <pt x="776" y="-120" on="0"/>
        <pt x="802" y="-120" on="1"/>
        <pt x="833" y="-120" on="0"/>
        <pt x="848" y="-110" on="1"/>
      </contour>
    </TTGlyph>
    <TTGlyph name="Eth" xMin="13" yMin="0" xMax="696" yMax="660">
      <component glyphName="Dcroat" x="0" y="0" flags="0x0"/>
    </TTGlyph>
    <TTGlyph name="Euro" xMin="25" yMin="-10" xMax="677" yMax="670">
      <contour>
        <pt x="677" y="174" on="1"/>
        <pt x="655" y="84" on="0"/>
        <pt x="514" y="-10" on="0"/>
        <pt x="413" y="-10" on="1"/>
        <pt x="297" y="-10" on="0"/>
        <pt x="144" y="104" on="0"/>
        <pt x="116" y="209" on="1"/>
        <pt x="25" y="209" on="1"/>
        <pt x="25" y="287" on="1"/>
        <pt x="103" y="287" on="1"/>
        <pt x="101" y="315" on="0"/>
        <pt x="101" y="330" on="1"/>
        <pt x="101" y="348" on="1"/>
        <pt x="25" y="348" on="1"/>
        <pt x="25" y="425" on="1"/>
        <pt x="110" y="425" on="1"/>
        <pt x="133" y="541" on="0"/>
        <pt x="291" y="670" on="0"/>
        <pt x="413" y="670" on="1"/>
        <pt x="510" y="670" on="0"/>
        <pt x="651" y="587" on="0"/>
        <pt x="673" y="514" on="1"/>
        <pt x="547" y="454" on="1"/>
        <pt x="539" y="502" on="0"/>
        <pt x="470" y="550" on="0"/>
        <pt x="422" y="550" on="1"/>
        <pt x="362" y="550" on="0"/>
        <pt x="285" y="486" on="0"/>
        <pt x="269" y="425" on="1"/>
        <pt x="504" y="425" on="1"/>
        <pt x="478" y="348" on="1"/>
        <pt x="258" y="348" on="1"/>
        <pt x="258" y="330" on="1"/>
        <pt x="258" y="315" on="0"/>
        <pt x="260" y="287" on="1"/>
        <pt x="464" y="287" on="1"/>
        <pt x="439" y="209" on="1"/>
        <pt x="275" y="209" on="1"/>
        <pt x="311" y="110" on="0"/>
        <pt x="418" y="110" on="1"/>
        <pt x="466" y="110" on="0"/>
        <pt x="535" y="162" on="0"/>
        <pt x="546" y="213" on="1"/>
      </contour>
    </TTGlyph>
    <TTGlyph name="Euro.tf" xMin="14" yMin="-10" xMax="586" yMax="670">
      <contour>
        <pt x="586" y="170" on="1"/>
        <pt x="570" y="87" on="0"/>
        <pt x="443" y="-10" on="0"/>
        <pt x="350" y="-10" on="1"/>
        <pt x="251" y="-10" on="0"/>
        <pt x="121" y="103" on="0"/>
        <pt x="98" y="209" on="1"/>
        <pt x="14" y="209" on="1"/>
        <pt x="14" y="287" on="1"/>
        <pt x="87" y="287" on="1"/>
        <pt x="86" y="301" on="0"/>
        <pt x="86" y="330" on="1"/>
        <pt x="86" y="348" on="1"/>
        <pt x="14" y="348" on="1"/>
        <pt x="14" y="425" on="1"/>
        <pt x="93" y="425" on="1"/>
        <pt x="113" y="542" on="0"/>
        <pt x="249" y="670" on="0"/>
        <pt x="357" y="670" on="1"/>
        <pt x="452" y="670" on="0"/>
        <pt x="560" y="597" on="0"/>
        <pt x="579" y="520" on="1"/>
        <pt x="453" y="460" on="1"/>
        <pt x="448" y="505" on="0"/>
        <pt x="400" y="550" on="0"/>
        <pt x="361" y="550" on="1"/>
        <pt x="315" y="550" on="0"/>
        <pt x="251" y="486" on="0"/>
        <pt x="237" y="425" on="1"/>
        <pt x="406" y="425" on="1"/>
        <pt x="387" y="348" on="1"/>
        <pt x="228" y="348" on="1"/>
        <pt x="228" y="330" on="1"/>
        <pt x="228" y="315" on="0"/>
        <pt x="230" y="287" on="1"/>
        <pt x="373" y="287" on="1"/>
        <pt x="355" y="209" on="1"/>
        <pt x="243" y="209" on="1"/>
        <pt x="258" y="161" on="0"/>
        <pt x="313" y="110" on="0"/>
        <pt x="352" y="110" on="1"/>
        <pt x="448" y="110" on="0"/>
        <pt x="458" y="206" on="1"/>
      </contour>
    </TTGlyph>
    <TTGlyph name="F" xMin="73" yMin="0" xMax="586" yMax="660">
      <contour>
        <pt x="245" y="527" on="1"/>
        <pt x="245" y="387" on="1"/>
        <pt x="517" y="387" on="1"/>
        <pt x="517" y="254" on="1"/>
        <pt x="245" y="254" on="1"/>
        <pt x="245" y="0" on="1"/>
        <pt x="73" y="0" on="1"/>
        <pt x="73" y="660" on="1"/>
        <pt x="586" y="660" on="1"/>
        <pt x="586" y="527" on="1"/>
      </contour>
    </TTGlyph>
    <TTGlyph name="F.swsh" xMin="10" yMin="0" xMax="834" yMax="660">
      <contour>
        <pt x="493" y="527" on="1"/>
        <pt x="493" y="387" on="1"/>
        <pt x="765" y="387" on="1"/>
        <pt x="765" y="254" on="1"/>
        <pt x="493" y="254" on="1"/>
        <pt x="493" y="0" on="1"/>
        <pt x="321" y="0" on="1"/>
        <pt x="321" y="534" on="1"/>
        <pt x="260" y="534" on="1"/>
        <pt x="213" y="534" on="0"/>
        <pt x="164" y="490" on="0"/>
        <pt x="164" y="451" on="1"/>
        <pt x="164" y="416" on="0"/>
        <pt x="212" y="368" on="0"/>
        <pt x="254" y="364" on="1"/>
        <pt x="203" y="248" on="1"/>
        <pt x="117" y="254" on="0"/>
        <pt x="10" y="364" on="0"/>
        <pt x="10" y="454" on="1"/>
        <pt x="10" y="552" on="0"/>
        <pt x="136" y="660" on="0"/>
        <pt x="253" y="660" on="1"/>
        <pt x="834" y="660" on="1"/>
        <pt x="834" y="527" on="1"/>
      </contour>
    </TTGlyph>
    <TTGlyph name="G" xMin="44" yMin="-10" xMax="665" yMax="670">
      <contour>
        <pt x="665" y="357" on="1"/>
        <pt x="665" y="0" on="1"/>
        <pt x="545" y="0" on="1"/>
        <pt x="540" y="77" on="1"/>
        <pt x="483" y="-10" on="0"/>
        <pt x="351" y="-10" on="1"/>
        <pt x="261" y="-10" on="0"/>
        <pt x="122" y="69" on="0"/>
        <pt x="44" y="222" on="0"/>
        <pt x="44" y="329" on="1"/>
        <pt x="44" y="435" on="0"/>
        <pt x="124" y="588" on="0"/>
        <pt x="272" y="670" on="0"/>
        <pt x="373" y="670" on="1"/>
        <pt x="486" y="670" on="0"/>
        <pt x="624" y="590" on="0"/>
        <pt x="664" y="501" on="1"/>
        <pt x="505" y="438" on="1"/>
        <pt x="493" y="487" on="0"/>
        <pt x="427" y="535" on="0"/>
        <pt x="378" y="535" on="1"/>
        <pt x="302" y="535" on="0"/>
        <pt x="221" y="431" on="0"/>
        <pt x="221" y="330" on="1"/>
        <pt x="221" y="122" on="0"/>
        <pt x="383" y="122" on="1"/>
        <pt x="444" y="122" on="0"/>
        <pt x="519" y="178" on="0"/>
        <pt x="519" y="231" on="1"/>
        <pt x="519" y="241" on="1"/>
        <pt x="355" y="241" on="1"/>
        <pt x="355" y="357" on="1"/>
      </contour>
    </TTGlyph>
    <TTGlyph name="G.ss04" xMin="45" yMin="-10" xMax="675" yMax="670">
      <contour>
        <pt x="675" y="358" on="1"/>
        <pt x="675" y="277" on="1"/>
        <pt x="675" y="134" on="0"/>
        <pt x="513" y="-10" on="0"/>
        <pt x="370" y="-10" on="1"/>
        <pt x="272" y="-10" on="0"/>
        <pt x="125" y="69" on="0"/>
        <pt x="45" y="221" on="0"/>
        <pt x="45" y="329" on="1"/>
        <pt x="45" y="435" on="0"/>
        <pt x="124" y="588" on="0"/>
        <pt x="272" y="670" on="0"/>
        <pt x="373" y="670" on="1"/>
        <pt x="486" y="670" on="0"/>
        <pt x="624" y="590" on="0"/>
        <pt x="663" y="501" on="1"/>
        <pt x="504" y="438" on="1"/>
        <pt x="479" y="535" on="0"/>
        <pt x="374" y="535" on="1"/>
        <pt x="303" y="535" on="0"/>
        <pt x="221" y="429" on="0"/>
        <pt x="221" y="330" on="1"/>
        <pt x="221" y="225" on="0"/>
        <pt x="303" y="125" on="0"/>
        <pt x="387" y="125" on="1"/>
        <pt x="455" y="125" on="0"/>
        <pt x="528" y="194" on="0"/>
        <pt x="528" y="240" on="1"/>
        <pt x="528" y="247" on="1"/>
        <pt x="367" y="247" on="1"/>
        <pt x="367" y="358" on="1"/>
      </contour>
    </TTGlyph>
    <TTGlyph name="Gbreve" xMin="44" yMin="-10" xMax="665" yMax="878">
      <component glyphName="G" x="0" y="0" flags="0x0"/>
      <component glyphName="breve" x="117" y="160" flags="0x4"/>
    </TTGlyph>
    <TTGlyph name="Gbreve.ss04" xMin="45" yMin="-10" xMax="675" yMax="878">
      <component glyphName="G.ss04" x="0" y="0" flags="0x0"/>
      <component glyphName="breve" x="118" y="160" flags="0x4"/>
    </TTGlyph>
    <TTGlyph name="Gcommaaccent.sc" xMin="40" yMin="-241" xMax="591" yMax="568">
      <component glyphName="g.sc" x="0" y="0" flags="0x0"/>
      <component glyphName="uni0326" x="642" y="0" flags="0x0"/>
    </TTGlyph>
    <TTGlyph name="Gcommaaccent.sc.ss04" xMin="43" yMin="-241" xMax="599" yMax="568">
      <component glyphName="g.sc.ss04" x="0" y="0" flags="0x0"/>
      <component glyphName="uni0326" x="674" y="0" flags="0x0"/>
    </TTGlyph>
    <TTGlyph name="Gcommaaccent.ss04" xMin="45" yMin="-241" xMax="675" yMax="670">
      <component glyphName="G.ss04" x="0" y="0" flags="0x0"/>
      <component glyphName="uni0326" x="689" y="0" flags="0x0"/>
    </TTGlyph>
    <TTGlyph name="H" xMin="73" yMin="0" xMax="669" yMax="660">
      <contour>
        <pt x="669" y="660" on="1"/>
        <pt x="669" y="0" on="1"/>
        <pt x="497" y="0" on="1"/>
        <pt x="497" y="266" on="1"/>
        <pt x="245" y="266" on="1"/>
        <pt x="245" y="0" on="1"/>
        <pt x="73" y="0" on="1"/>
        <pt x="73" y="660" on="1"/>
        <pt x="245" y="660" on="1"/>
        <pt x="245" y="399" on="1"/>
        <pt x="497" y="399" on="1"/>
        <pt x="497" y="660" on="1"/>
      </contour>
    </TTGlyph>
    <TTGlyph name="Hinferior" xMin="41" yMin="-189" xMax="440" yMax="208">
      <component glyphName="Hsuperior" x="0" y="-522" flags="0x4"/>
    </TTGlyph>
    <TTGlyph name="Hsuperior" xMin="41" yMin="333" xMax="440" yMax="730">
      <contour>
        <pt x="440" y="730" on="1"/>
        <pt x="440" y="333" on="1"/>
        <pt x="317" y="333" on="1"/>
        <pt x="317" y="489" on="1"/>
        <pt x="165" y="489" on="1"/>
        <pt x="165" y="333" on="1"/>
        <pt x="41" y="333" on="1"/>
        <pt x="41" y="730" on="1"/>
        <pt x="165" y="730" on="1"/>
        <pt x="165" y="580" on="1"/>
        <pt x="317" y="580" on="1"/>
        <pt x="317" y="730" on="1"/>
      </contour>
    </TTGlyph>
    <TTGlyph name="I" xMin="73" yMin="0" xMax="245" yMax="660">
      <contour>
        <pt x="245" y="0" on="1"/>
        <pt x="73" y="0" on="1"/>
        <pt x="73" y="660" on="1"/>
        <pt x="245" y="660" on="1"/>
      </contour>
    </TTGlyph>
    <TTGlyph name="IJ" xMin="73" yMin="-10" xMax="877" yMax="660">
      <component glyphName="I" x="0" y="0" flags="0x0"/>
      <component glyphName="J" x="318" y="0" flags="0x0"/>
    </TTGlyph>
    <TTGlyph name="IJ.ss05" xMin="73" yMin="-10" xMax="601" yMax="660">
      <contour>
        <pt x="601" y="254" on="1"/>
        <pt x="601" y="130" on="0"/>
        <pt x="456" y="-10" on="0"/>
        <pt x="330" y="-10" on="1"/>
        <pt x="207" y="-10" on="0"/>
        <pt x="73" y="91" on="0"/>
        <pt x="73" y="188" on="1"/>
        <pt x="73" y="212" on="0"/>
        <pt x="75" y="225" on="1"/>
        <pt x="246" y="225" on="1"/>
        <pt x="244" y="209" on="0"/>
        <pt x="244" y="202" on="1"/>
        <pt x="244" y="164" on="0"/>
        <pt x="291" y="125" on="0"/>
        <pt x="334" y="125" on="1"/>
        <pt x="429" y="125" on="0"/>
        <pt x="429" y="257" on="1"/>
        <pt x="429" y="660" on="1"/>
        <pt x="601" y="660" on="1"/>
      </contour>
      <contour>
        <pt x="245" y="290" on="1"/>
        <pt x="73" y="290" on="1"/>
        <pt x="73" y="660" on="1"/>
        <pt x="245" y="660" on="1"/>
      </contour>
    </TTGlyph>
    <TTGlyph name="Iacute" xMin="73" yMin="0" xMax="304" yMax="886">
      <component glyphName="I" x="0" y="0" flags="0x0"/>
      <component glyphName="acutecomb.cap" x="163" y="0" flags="0x0"/>
    </TTGlyph>
    <TTGlyph name="Iacute_J.loclNLD" xMin="73" yMin="-10" xMax="937" yMax="886">
      <component glyphName="I" x="0" y="0" flags="0x0"/>
      <component glyphName="acutecomb.cap" x="163" y="0" flags="0x0"/>
      <component glyphName="J" x="318" y="0" flags="0x0"/>
      <component glyphName="acutecomb.cap" x="796" y="0" flags="0x0"/>
    </TTGlyph>
    <TTGlyph name="Iacute_J.loclNLD.ss05" xMin="61" yMin="-10" xMax="652" yMax="886">
      <component glyphName="acutecomb.cap" x="511" y="0" flags="0x0"/>
      <component glyphName="acutecomb.cap" x="147" y="0" flags="0x0"/>
      <component glyphName="IJ.ss05" x="-12" y="0" flags="0x0"/>
    </TTGlyph>
    <TTGlyph name="Icircumflex" xMin="-24" yMin="0" xMax="342" yMax="884">
      <component glyphName="I" x="0" y="0" flags="0x0"/>
      <component glyphName="uni0302.cap" x="159" y="0" flags="0x0"/>
    </TTGlyph>
    <TTGlyph name="Idieresis" xMin="-26" yMin="0" xMax="344" yMax="870">
      <contour>
        <pt x="95" y="870" on="0"/>
        <pt x="140" y="829" on="0"/>
        <pt x="140" y="793" on="1"/>
        <pt x="140" y="757" on="0"/>
        <pt x="95" y="716" on="0"/>
        <pt x="56" y="716" on="1"/>
        <pt x="18" y="716" on="0"/>
        <pt x="-26" y="757" on="0"/>
        <pt x="-26" y="793" on="1"/>
        <pt x="-26" y="829" on="0"/>
        <pt x="18" y="870" on="0"/>
        <pt x="56" y="870" on="1"/>
      </contour>
      <contour>
        <pt x="299" y="870" on="0"/>
        <pt x="344" y="829" on="0"/>
        <pt x="344" y="793" on="1"/>
        <pt x="344" y="757" on="0"/>
        <pt x="299" y="716" on="0"/>
        <pt x="260" y="716" on="1"/>
        <pt x="222" y="716" on="0"/>
        <pt x="178" y="757" on="0"/>
        <pt x="178" y="793" on="1"/>
        <pt x="178" y="829" on="0"/>
        <pt x="222" y="870" on="0"/>
        <pt x="260" y="870" on="1"/>
      </contour>
      <contour>
        <pt x="245" y="0" on="1"/>
        <pt x="73" y="0" on="1"/>
        <pt x="73" y="660" on="1"/>
        <pt x="245" y="660" on="1"/>
      </contour>
    </TTGlyph>
    <TTGlyph name="Idotaccent" xMin="68" yMin="0" xMax="252" yMax="882">
      <component glyphName="I" x="0" y="0" flags="0x0"/>
      <component glyphName="dotaccent" x="-91" y="160" flags="0x4"/>
    </TTGlyph>
    <TTGlyph name="Igrave" xMin="14" yMin="0" xMax="245" yMax="886">
      <component glyphName="I" x="0" y="0" flags="0x0"/>
      <component glyphName="gravecomb.cap" x="155" y="0" flags="0x0"/>
    </TTGlyph>
    <TTGlyph name="Imacron" xMin="17" yMin="0" xMax="300" yMax="834">
      <contour>
        <pt x="300" y="729" on="1"/>
        <pt x="17" y="729" on="1"/>
        <pt x="17" y="834" on="1"/>
        <pt x="300" y="834" on="1"/>
      </contour>
      <contour>
        <pt x="245" y="0" on="1"/>
        <pt x="73" y="0" on="1"/>
        <pt x="73" y="660" on="1"/>
        <pt x="245" y="660" on="1"/>
      </contour>
    </TTGlyph>
    <TTGlyph name="Iogonek" xMin="16" yMin="-215" xMax="259" yMax="660">
      <contour>
        <pt x="259" y="-191" on="1"/>
        <pt x="239" y="-204" on="0"/>
        <pt x="189" y="-215" on="0"/>
        <pt x="154" y="-215" on="1"/>
        <pt x="93" y="-215" on="0"/>
        <pt x="16" y="-158" on="0"/>
        <pt x="16" y="-104" on="1"/>
        <pt x="16" y="-38" on="0"/>
        <pt x="84" y="0" on="1"/>
        <pt x="73" y="0" on="1"/>
        <pt x="73" y="660" on="1"/>
        <pt x="245" y="660" on="1"/>
        <pt x="245" y="0" on="1"/>
        <pt x="184" y="-13" on="0"/>
        <pt x="134" y="-51" on="0"/>
        <pt x="134" y="-75" on="1"/>
        <pt x="134" y="-96" on="0"/>
        <pt x="162" y="-119" on="0"/>
        <pt x="187" y="-119" on="1"/>
        <pt x="217" y="-119" on="0"/>
        <pt x="235" y="-108" on="1"/>
      </contour>
    </TTGlyph>
    <TTGlyph name="J" xMin="30" yMin="-10" xMax="559" yMax="660">
      <contour>
        <pt x="559" y="254" on="1"/>
        <pt x="559" y="129" on="0"/>
        <pt x="414" y="-10" on="0"/>
        <pt x="281" y="-10" on="1"/>
        <pt x="157" y="-10" on="0"/>
        <pt x="30" y="102" on="0"/>
        <pt x="30" y="199" on="1"/>
        <pt x="30" y="228" on="0"/>
        <pt x="36" y="261" on="1"/>
        <pt x="206" y="291" on="1"/>
        <pt x="201" y="253" on="0"/>
        <pt x="201" y="229" on="1"/>
        <pt x="201" y="174" on="0"/>
        <pt x="244" y="125" on="0"/>
        <pt x="289" y="125" on="1"/>
        <pt x="342" y="125" on="0"/>
        <pt x="387" y="195" on="0"/>
        <pt x="387" y="272" on="1"/>
        <pt x="387" y="660" on="1"/>
        <pt x="559" y="660" on="1"/>
      </contour>
    </TTGlyph>
    <TTGlyph name="K" xMin="73" yMin="0" xMax="684" yMax="660">
      <contour>
        <pt x="325" y="284" on="1"/>
        <pt x="245" y="186" on="1"/>
        <pt x="245" y="0" on="1"/>
        <pt x="73" y="0" on="1"/>
        <pt x="73" y="660" on="1"/>
        <pt x="245" y="660" on="1"/>
        <pt x="245" y="367" on="1"/>
        <pt x="481" y="660" on="1"/>
        <pt x="672" y="660" on="1"/>
        <pt x="448" y="392" on="1"/>
        <pt x="684" y="0" on="1"/>
        <pt x="489" y="0" on="1"/>
      </contour>
    </TTGlyph>
    <TTGlyph name="Kcommaaccent.sc" xMin="69" yMin="-241" xMax="649" yMax="560">
      <component glyphName="k.sc" x="0" y="0" flags="0x0"/>
      <component glyphName="uni0326" x="647" y="0" flags="0x0"/>
    </TTGlyph>
    <TTGlyph name="L" xMin="73" yMin="0" xMax="576" yMax="660">
      <contour>
        <pt x="576" y="133" on="1"/>
        <pt x="576" y="0" on="1"/>
        <pt x="73" y="0" on="1"/>
        <pt x="73" y="660" on="1"/>
        <pt x="245" y="660" on="1"/>
        <pt x="245" y="133" on="1"/>
      </contour>
    </TTGlyph>
    <TTGlyph name="L.swsh" xMin="73" yMin="0" xMax="688" yMax="660">
      <contour>
        <pt x="598" y="399" on="0"/>
        <pt x="688" y="285" on="0"/>
        <pt x="688" y="206" on="1"/>
        <pt x="688" y="106" on="0"/>
        <pt x="562" y="0" on="0"/>
        <pt x="444" y="0" on="1"/>
        <pt x="73" y="0" on="1"/>
        <pt x="73" y="660" on="1"/>
        <pt x="245" y="660" on="1"/>
        <pt x="245" y="133" on="1"/>
        <pt x="437" y="133" on="1"/>
        <pt x="539" y="133" on="0"/>
        <pt x="539" y="209" on="1"/>
        <pt x="539" y="247" on="0"/>
        <pt x="494" y="291" on="0"/>
        <pt x="450" y="292" on="1"/>
        <pt x="500" y="402" on="1"/>
      </contour>
    </TTGlyph>
    <TTGlyph name="Lacute" xMin="73" yMin="0" xMax="576" yMax="886">
      <component glyphName="L" x="0" y="0" flags="0x0"/>
      <component glyphName="acutecomb.cap" x="159" y="0" flags="0x0"/>
    </TTGlyph>
    <TTGlyph name="Lacute.swsh" xMin="73" yMin="0" xMax="688" yMax="886">
      <component glyphName="L.swsh" x="0" y="0" flags="0x0"/>
      <component glyphName="acutecomb.cap" x="159" y="0" flags="0x0"/>
    </TTGlyph>
    <TTGlyph name="Lcaron" xMin="73" yMin="0" xMax="576" yMax="701">
      <contour>
        <pt x="438" y="462" on="1"/>
        <pt x="330" y="462" on="1"/>
        <pt x="353" y="701" on="1"/>
        <pt x="498" y="701" on="1"/>
      </contour>
      <contour>
        <pt x="576" y="133" on="1"/>
        <pt x="576" y="0" on="1"/>
        <pt x="73" y="0" on="1"/>
        <pt x="73" y="660" on="1"/>
        <pt x="245" y="660" on="1"/>
        <pt x="245" y="133" on="1"/>
      </contour>
    </TTGlyph>
    <TTGlyph name="Lcaron.swsh" xMin="73" yMin="0" xMax="688" yMax="701">
      <contour>
        <pt x="429" y="462" on="1"/>
        <pt x="332" y="462" on="1"/>
        <pt x="353" y="701" on="1"/>
        <pt x="482" y="701" on="1"/>
      </contour>
      <contour>
        <pt x="598" y="399" on="0"/>
        <pt x="688" y="285" on="0"/>
        <pt x="688" y="206" on="1"/>
        <pt x="688" y="106" on="0"/>
        <pt x="562" y="0" on="0"/>
        <pt x="444" y="0" on="1"/>
        <pt x="73" y="0" on="1"/>
        <pt x="73" y="660" on="1"/>
        <pt x="245" y="660" on="1"/>
        <pt x="245" y="133" on="1"/>
        <pt x="437" y="133" on="1"/>
        <pt x="539" y="133" on="0"/>
        <pt x="539" y="209" on="1"/>
        <pt x="539" y="247" on="0"/>
        <pt x="494" y="291" on="0"/>
        <pt x="450" y="292" on="1"/>
        <pt x="500" y="402" on="1"/>
      </contour>
    </TTGlyph>
    <TTGlyph name="Lcommaaccent.sc" xMin="69" yMin="-241" xMax="533" yMax="560">
      <component glyphName="l.sc" x="0" y="0" flags="0x0"/>
      <component glyphName="uni0326" x="620" y="0" flags="0x0"/>
    </TTGlyph>
    <TTGlyph name="Lcommaaccent.swsh" xMin="73" yMin="-241" xMax="688" yMax="660">
      <component glyphName="L.swsh" x="0" y="0" flags="0x0"/>
      <component glyphName="uni0326" x="670" y="0" flags="0x0"/>
    </TTGlyph>
    <TTGlyph name="Ldot" xMin="73" yMin="0" xMax="629" yMax="660">
      <component glyphName="L" x="0" y="0" flags="0x0"/>
      <component glyphName="period" x="384" y="274" flags="0x4"/>
    </TTGlyph>
    <TTGlyph name="Lslash" xMin="5" yMin="0" xMax="618" yMax="660">
      <contour>
        <pt x="618" y="133" on="1"/>
        <pt x="618" y="0" on="1"/>
        <pt x="115" y="0" on="1"/>
        <pt x="115" y="219" on="1"/>
        <pt x="5" y="166" on="1"/>
        <pt x="5" y="291" on="1"/>
        <pt x="115" y="344" on="1"/>
        <pt x="115" y="660" on="1"/>
        <pt x="287" y="660" on="1"/>
        <pt x="287" y="426" on="1"/>
        <pt x="457" y="507" on="1"/>
        <pt x="457" y="382" on="1"/>
        <pt x="287" y="301" on="1"/>
        <pt x="287" y="133" on="1"/>
      </contour>
    </TTGlyph>
    <TTGlyph name="Lslash.swsh" xMin="5" yMin="0" xMax="730" yMax="660">
      <contour>
        <pt x="640" y="399" on="0"/>
        <pt x="730" y="285" on="0"/>
        <pt x="730" y="206" on="1"/>
        <pt x="730" y="106" on="0"/>
        <pt x="604" y="0" on="0"/>
        <pt x="486" y="0" on="1"/>
        <pt x="115" y="0" on="1"/>
        <pt x="115" y="219" on="1"/>
        <pt x="5" y="166" on="1"/>
        <pt x="5" y="291" on="1"/>
        <pt x="115" y="344" on="1"/>
        <pt x="115" y="660" on="1"/>
        <pt x="287" y="660" on="1"/>
        <pt x="287" y="426" on="1"/>
        <pt x="457" y="507" on="1"/>
        <pt x="457" y="382" on="1"/>
        <pt x="287" y="301" on="1"/>
        <pt x="287" y="133" on="1"/>
        <pt x="479" y="133" on="1"/>
        <pt x="581" y="133" on="0"/>
        <pt x="581" y="209" on="1"/>
        <pt x="581" y="247" on="0"/>
        <pt x="536" y="291" on="0"/>
        <pt x="492" y="292" on="1"/>
        <pt x="542" y="402" on="1"/>
      </contour>
    </TTGlyph>
    <TTGlyph name="M" xMin="73" yMin="0" xMax="837" yMax="660">
      <contour>
        <pt x="837" y="0" on="1"/>
        <pt x="685" y="0" on="1"/>
        <pt x="685" y="303" on="1"/>
        <pt x="690" y="506" on="1"/>
        <pt x="688" y="506" on="1"/>
        <pt x="525" y="0" on="1"/>
        <pt x="386" y="0" on="1"/>
        <pt x="223" y="506" on="1"/>
        <pt x="221" y="506" on="1"/>
        <pt x="226" y="303" on="1"/>
        <pt x="226" y="0" on="1"/>
        <pt x="73" y="0" on="1"/>
        <pt x="73" y="660" on="1"/>
        <pt x="318" y="660" on="1"/>
        <pt x="422" y="324" on="1"/>
        <pt x="459" y="184" on="1"/>
        <pt x="461" y="184" on="1"/>
        <pt x="499" y="323" on="1"/>
        <pt x="602" y="660" on="1"/>
        <pt x="837" y="660" on="1"/>
      </contour>
    </TTGlyph>
    <TTGlyph name="M.swsh" xMin="10" yMin="-110" xMax="1085" yMax="660">
      <contour>
        <pt x="1085" y="660" on="1"/>
        <pt x="1085" y="0" on="1"/>
        <pt x="933" y="0" on="1"/>
        <pt x="933" y="303" on="1"/>
        <pt x="938" y="506" on="1"/>
        <pt x="936" y="506" on="1"/>
        <pt x="772" y="0" on="1"/>
        <pt x="634" y="0" on="1"/>
        <pt x="471" y="506" on="1"/>
        <pt x="468" y="506" on="1"/>
        <pt x="474" y="303" on="1"/>
        <pt x="474" y="110" on="1"/>
        <pt x="474" y="1" on="0"/>
        <pt x="353" y="-110" on="0"/>
        <pt x="245" y="-110" on="1"/>
        <pt x="169" y="-110" on="0"/>
        <pt x="76" y="-60" on="0"/>
        <pt x="50" y="-8" on="1"/>
        <pt x="113" y="96" on="1"/>
        <pt x="128" y="55" on="0"/>
        <pt x="182" y="17" on="0"/>
        <pt x="225" y="17" on="1"/>
        <pt x="271" y="17" on="0"/>
        <pt x="321" y="66" on="0"/>
        <pt x="321" y="111" on="1"/>
        <pt x="321" y="534" on="1"/>
        <pt x="261" y="534" on="1"/>
        <pt x="214" y="534" on="0"/>
        <pt x="164" y="490" on="0"/>
        <pt x="164" y="451" on="1"/>
        <pt x="164" y="416" on="0"/>
        <pt x="212" y="368" on="0"/>
        <pt x="254" y="364" on="1"/>
        <pt x="204" y="248" on="1"/>
        <pt x="118" y="254" on="0"/>
        <pt x="10" y="364" on="0"/>
        <pt x="10" y="454" on="1"/>
        <pt x="10" y="552" on="0"/>
        <pt x="136" y="660" on="0"/>
        <pt x="254" y="660" on="1"/>
        <pt x="566" y="660" on="1"/>
        <pt x="669" y="324" on="1"/>
        <pt x="707" y="184" on="1"/>
        <pt x="709" y="184" on="1"/>
        <pt x="747" y="323" on="1"/>
        <pt x="850" y="660" on="1"/>
      </contour>
    </TTGlyph>
    <TTGlyph name="M.swsh.001" xMin="10" yMin="0" xMax="1085" yMax="660">
      <contour>
        <pt x="1085" y="660" on="1"/>
        <pt x="1085" y="0" on="1"/>
        <pt x="933" y="0" on="1"/>
        <pt x="933" y="303" on="1"/>
        <pt x="938" y="506" on="1"/>
        <pt x="936" y="506" on="1"/>
        <pt x="773" y="0" on="1"/>
        <pt x="634" y="0" on="1"/>
        <pt x="471" y="506" on="1"/>
        <pt x="469" y="506" on="1"/>
        <pt x="474" y="303" on="1"/>
        <pt x="474" y="0" on="1"/>
        <pt x="321" y="0" on="1"/>
        <pt x="321" y="534" on="1"/>
        <pt x="261" y="534" on="1"/>
        <pt x="214" y="534" on="0"/>
        <pt x="164" y="490" on="0"/>
        <pt x="164" y="451" on="1"/>
        <pt x="164" y="416" on="0"/>
        <pt x="212" y="368" on="0"/>
        <pt x="254" y="364" on="1"/>
        <pt x="204" y="248" on="1"/>
        <pt x="118" y="254" on="0"/>
        <pt x="10" y="364" on="0"/>
        <pt x="10" y="454" on="1"/>
        <pt x="10" y="552" on="0"/>
        <pt x="136" y="660" on="0"/>
        <pt x="254" y="660" on="1"/>
        <pt x="566" y="660" on="1"/>
        <pt x="670" y="324" on="1"/>
        <pt x="707" y="184" on="1"/>
        <pt x="709" y="184" on="1"/>
        <pt x="747" y="323" on="1"/>
        <pt x="850" y="660" on="1"/>
      </contour>
    </TTGlyph>
    <TTGlyph name="N" xMin="73" yMin="0" xMax="668" yMax="660">
      <contour>
        <pt x="668" y="0" on="1"/>
        <pt x="477" y="0" on="1"/>
        <pt x="272" y="357" on="1"/>
        <pt x="222" y="457" on="1"/>
        <pt x="221" y="457" on="1"/>
        <pt x="225" y="333" on="1"/>
        <pt x="225" y="0" on="1"/>
        <pt x="73" y="0" on="1"/>
        <pt x="73" y="660" on="1"/>
        <pt x="264" y="660" on="1"/>
        <pt x="469" y="303" on="1"/>
        <pt x="519" y="203" on="1"/>
        <pt x="520" y="203" on="1"/>
        <pt x="516" y="327" on="1"/>
        <pt x="516" y="660" on="1"/>
        <pt x="668" y="660" on="1"/>
      </contour>
    </TTGlyph>
    <TTGlyph name="N.swsh" xMin="73" yMin="0" xMax="940" yMax="726">
      <contour>
        <pt x="822" y="726" on="0"/>
        <pt x="914" y="678" on="0"/>
        <pt x="940" y="630" on="1"/>
        <pt x="875" y="528" on="1"/>
        <pt x="859" y="566" on="0"/>
        <pt x="811" y="599" on="0"/>
        <pt x="768" y="599" on="1"/>
        <pt x="721" y="599" on="0"/>
        <pt x="668" y="540" on="0"/>
        <pt x="668" y="487" on="1"/>
        <pt x="668" y="0" on="1"/>
        <pt x="477" y="0" on="1"/>
        <pt x="272" y="357" on="1"/>
        <pt x="222" y="457" on="1"/>
        <pt x="221" y="457" on="1"/>
        <pt x="225" y="333" on="1"/>
        <pt x="225" y="0" on="1"/>
        <pt x="73" y="0" on="1"/>
        <pt x="73" y="660" on="1"/>
        <pt x="264" y="660" on="1"/>
        <pt x="469" y="303" on="1"/>
        <pt x="519" y="203" on="1"/>
        <pt x="520" y="203" on="1"/>
        <pt x="516" y="327" on="1"/>
        <pt x="516" y="506" on="1"/>
        <pt x="516" y="615" on="0"/>
        <pt x="639" y="726" on="0"/>
        <pt x="748" y="726" on="1"/>
      </contour>
    </TTGlyph>
    <TTGlyph name="Nacute" xMin="73" yMin="0" xMax="668" yMax="886">
      <component glyphName="N" x="0" y="0" flags="0x0"/>
      <component glyphName="acutecomb.cap" x="372" y="0" flags="0x0"/>
    </TTGlyph>
    <TTGlyph name="Nacute.swsh" xMin="73" yMin="0" xMax="940" yMax="886">
      <component glyphName="N.swsh" x="0" y="0" flags="0x0"/>
      <component glyphName="acutecomb.cap" x="372" y="0" flags="0x0"/>
    </TTGlyph>
    <TTGlyph name="Ncaron" xMin="73" yMin="0" xMax="668" yMax="886">
      <component glyphName="N" x="0" y="0" flags="0x0"/>
      <component glyphName="uni030C.cap" x="372" y="0" flags="0x0"/>
    </TTGlyph>
    <TTGlyph name="Ncaron.swsh" xMin="73" yMin="0" xMax="940" yMax="886">
      <component glyphName="N.swsh" x="0" y="0" flags="0x0"/>
      <component glyphName="uni030C.cap" x="372" y="0" flags="0x0"/>
    </TTGlyph>
    <TTGlyph name="Ncommaaccent.sc" xMin="69" yMin="-241" xMax="621" yMax="560">
      <component glyphName="n.sc" x="0" y="0" flags="0x0"/>
      <component glyphName="uni0326" x="651" y="0" flags="0x0"/>
    </TTGlyph>
    <TTGlyph name="Ncommaaccent.swsh" xMin="73" yMin="-241" xMax="940" yMax="726">
      <component glyphName="N.swsh" x="0" y="0" flags="0x0"/>
      <component glyphName="uni0326" x="683" y="0" flags="0x0"/>
    </TTGlyph>
    <TTGlyph name="Ntilde" xMin="73" yMin="0" xMax="668" yMax="879">
      <component glyphName="N" x="0" y="0" flags="0x0"/>
      <component glyphName="tilde" x="122" y="160" flags="0x4"/>
    </TTGlyph>
    <TTGlyph name="Ntilde.swsh" xMin="73" yMin="0" xMax="940" yMax="879">
      <component glyphName="N.swsh" x="0" y="0" flags="0x0"/>
      <component glyphName="tilde" x="122" y="160" flags="0x4"/>
    </TTGlyph>
    <TTGlyph name="O" xMin="45" yMin="-10" xMax="692" yMax="670">
      <contour>
        <pt x="469" y="670" on="0"/>
        <pt x="614" y="589" on="0"/>
        <pt x="692" y="436" on="0"/>
        <pt x="692" y="330" on="1"/>
        <pt x="692" y="224" on="0"/>
        <pt x="614" y="71" on="0"/>
        <pt x="469" y="-10" on="0"/>
        <pt x="369" y="-10" on="1"/>
        <pt x="269" y="-10" on="0"/>
        <pt x="123" y="71" on="0"/>
        <pt x="45" y="224" on="0"/>
        <pt x="45" y="330" on="1"/>
        <pt x="45" y="436" on="0"/>
        <pt x="123" y="589" on="0"/>
        <pt x="269" y="670" on="0"/>
        <pt x="369" y="670" on="1"/>
      </contour>
      <contour>
        <pt x="297" y="535" on="0"/>
        <pt x="221" y="431" on="0"/>
        <pt x="221" y="330" on="1"/>
        <pt x="221" y="229" on="0"/>
        <pt x="297" y="125" on="0"/>
        <pt x="369" y="125" on="1"/>
        <pt x="441" y="125" on="0"/>
        <pt x="516" y="229" on="0"/>
        <pt x="516" y="330" on="1"/>
        <pt x="516" y="431" on="0"/>
        <pt x="441" y="535" on="0"/>
        <pt x="369" y="535" on="1"/>
      </contour>
    </TTGlyph>
    <TTGlyph name="OE" xMin="45" yMin="-10" xMax="1018" yMax="670">
      <contour>
        <pt x="1018" y="133" on="1"/>
        <pt x="1018" y="0" on="1"/>
        <pt x="560" y="0" on="1"/>
        <pt x="560" y="78" on="1"/>
        <pt x="522" y="36" on="0"/>
        <pt x="418" y="-10" on="0"/>
        <pt x="354" y="-10" on="1"/>
        <pt x="260" y="-10" on="0"/>
        <pt x="120" y="71" on="0"/>
        <pt x="45" y="225" on="0"/>
        <pt x="45" y="330" on="1"/>
        <pt x="45" y="436" on="0"/>
        <pt x="120" y="589" on="0"/>
        <pt x="260" y="670" on="0"/>
        <pt x="356" y="670" on="1"/>
        <pt x="483" y="670" on="0"/>
        <pt x="560" y="583" on="1"/>
        <pt x="560" y="660" on="1"/>
        <pt x="1005" y="660" on="1"/>
        <pt x="1005" y="527" on="1"/>
        <pt x="675" y="527" on="1"/>
        <pt x="675" y="393" on="1"/>
        <pt x="934" y="393" on="1"/>
        <pt x="934" y="268" on="1"/>
        <pt x="675" y="268" on="1"/>
        <pt x="675" y="133" on="1"/>
      </contour>
      <contour>
        <pt x="432" y="125" on="0"/>
        <pt x="506" y="230" on="0"/>
        <pt x="506" y="330" on="1"/>
        <pt x="506" y="430" on="0"/>
        <pt x="432" y="535" on="0"/>
        <pt x="363" y="535" on="1"/>
        <pt x="292" y="535" on="0"/>
        <pt x="218" y="431" on="0"/>
        <pt x="218" y="330" on="1"/>
        <pt x="218" y="229" on="0"/>
        <pt x="292" y="125" on="0"/>
        <pt x="363" y="125" on="1"/>
      </contour>
    </TTGlyph>
    <TTGlyph name="Oacute" xMin="45" yMin="-10" xMax="692" yMax="886">
      <component glyphName="O" x="0" y="0" flags="0x0"/>
      <component glyphName="acutecomb.cap" x="369" y="0" flags="0x0"/>
    </TTGlyph>
    <TTGlyph name="Ocircumflex" xMin="45" yMin="-10" xMax="692" yMax="884">
      <component glyphName="O" x="0" y="0" flags="0x0"/>
      <component glyphName="uni0302.cap" x="369" y="0" flags="0x0"/>
    </TTGlyph>
    <TTGlyph name="Odieresis" xMin="45" yMin="-10" xMax="692" yMax="870">
      <component glyphName="O" x="0" y="0" flags="0x0"/>
      <component glyphName="dieresis" x="118" y="160" flags="0x4"/>
    </TTGlyph>
    <TTGlyph name="Odieresis.titl" xMin="45" yMin="-10" xMax="692" yMax="670">
      <contour>
        <pt x="469" y="670" on="0"/>
        <pt x="614" y="589" on="0"/>
        <pt x="692" y="436" on="0"/>
        <pt x="692" y="330" on="1"/>
        <pt x="692" y="224" on="0"/>
        <pt x="614" y="71" on="0"/>
        <pt x="469" y="-10" on="0"/>
        <pt x="369" y="-10" on="1"/>
        <pt x="269" y="-10" on="0"/>
        <pt x="123" y="71" on="0"/>
        <pt x="45" y="224" on="0"/>
        <pt x="45" y="330" on="1"/>
        <pt x="45" y="436" on="0"/>
        <pt x="123" y="589" on="0"/>
        <pt x="269" y="670" on="0"/>
        <pt x="369" y="670" on="1"/>
      </contour>
      <contour>
        <pt x="125" y="610" on="0"/>
        <pt x="87" y="553" on="1"/>
        <pt x="61" y="571" on="0"/>
        <pt x="61" y="605" on="1"/>
        <pt x="61" y="635" on="0"/>
        <pt x="99" y="670" on="0"/>
        <pt x="131" y="670" on="1"/>
        <pt x="170" y="670" on="0"/>
        <pt x="189" y="646" on="1"/>
      </contour>
      <contour>
        <pt x="615" y="607" on="0"/>
        <pt x="549" y="646" on="1"/>
        <pt x="567" y="670" on="0"/>
        <pt x="605" y="670" on="1"/>
        <pt x="639" y="670" on="0"/>
        <pt x="678" y="635" on="0"/>
        <pt x="678" y="605" on="1"/>
        <pt x="678" y="569" on="0"/>
        <pt x="651" y="552" on="1"/>
      </contour>
      <contour>
        <pt x="297" y="535" on="0"/>
        <pt x="221" y="431" on="0"/>
        <pt x="221" y="330" on="1"/>
        <pt x="221" y="229" on="0"/>
        <pt x="297" y="125" on="0"/>
        <pt x="369" y="125" on="1"/>
        <pt x="441" y="125" on="0"/>
        <pt x="516" y="229" on="0"/>
        <pt x="516" y="330" on="1"/>
        <pt x="516" y="431" on="0"/>
        <pt x="441" y="535" on="0"/>
        <pt x="369" y="535" on="1"/>
      </contour>
    </TTGlyph>
    <TTGlyph name="Odieresis.titl.001" xMin="37" yMin="-10" xMax="701" yMax="670">
      <contour>
        <pt x="633" y="546" on="1"/>
        <pt x="692" y="459" on="0"/>
        <pt x="692" y="330" on="1"/>
        <pt x="692" y="224" on="0"/>
        <pt x="614" y="71" on="0"/>
        <pt x="468" y="-10" on="0"/>
        <pt x="368" y="-10" on="1"/>
        <pt x="268" y="-10" on="0"/>
        <pt x="122" y="71" on="0"/>
        <pt x="44" y="224" on="0"/>
        <pt x="44" y="330" on="1"/>
        <pt x="44" y="459" on="0"/>
        <pt x="103" y="546" on="1"/>
        <pt x="100" y="546" on="1"/>
        <pt x="71" y="546" on="0"/>
        <pt x="37" y="578" on="0"/>
        <pt x="37" y="605" on="1"/>
        <pt x="37" y="633" on="0"/>
        <pt x="71" y="665" on="0"/>
        <pt x="100" y="665" on="1"/>
        <pt x="129" y="665" on="0"/>
        <pt x="164" y="636" on="0"/>
        <pt x="166" y="610" on="1"/>
        <pt x="248" y="670" on="0"/>
        <pt x="368" y="670" on="1"/>
        <pt x="491" y="670" on="0"/>
        <pt x="572" y="609" on="1"/>
        <pt x="574" y="635" on="0"/>
        <pt x="607" y="665" on="0"/>
        <pt x="636" y="665" on="1"/>
        <pt x="666" y="665" on="0"/>
        <pt x="701" y="633" on="0"/>
        <pt x="701" y="606" on="1"/>
        <pt x="701" y="578" on="0"/>
        <pt x="666" y="546" on="0"/>
        <pt x="636" y="546" on="1"/>
      </contour>
      <contour>
        <pt x="441" y="125" on="0"/>
        <pt x="516" y="229" on="0"/>
        <pt x="516" y="330" on="1"/>
        <pt x="516" y="431" on="0"/>
        <pt x="441" y="535" on="0"/>
        <pt x="369" y="535" on="1"/>
        <pt x="297" y="535" on="0"/>
        <pt x="221" y="431" on="0"/>
        <pt x="221" y="330" on="1"/>
        <pt x="221" y="229" on="0"/>
        <pt x="297" y="125" on="0"/>
        <pt x="369" y="125" on="1"/>
      </contour>
    </TTGlyph>
    <TTGlyph name="Ograve" xMin="45" yMin="-10" xMax="692" yMax="886">
      <component glyphName="O" x="0" y="0" flags="0x0"/>
      <component glyphName="gravecomb.cap" x="365" y="0" flags="0x0"/>
    </TTGlyph>
    <TTGlyph name="Ohungarumlaut" xMin="45" yMin="-10" xMax="692" yMax="886">
      <component glyphName="O" x="0" y="0" flags="0x0"/>
      <component glyphName="acutecomb.cap" x="486" y="0" flags="0x0"/>
      <component glyphName="acutecomb.cap" x="262" y="0" flags="0x0"/>
    </TTGlyph>
    <TTGlyph name="Oinferior" xMin="27" yMin="-195" xMax="444" yMax="213">
      <component glyphName="Osuperior" x="0" y="-522" flags="0x4"/>
    </TTGlyph>
    <TTGlyph name="Omacron" xMin="45" yMin="-10" xMax="692" yMax="834">
      <component glyphName="O" x="0" y="0" flags="0x0"/>
      <component glyphName="macron" x="119" y="160" flags="0x4"/>
    </TTGlyph>
    <TTGlyph name="Oslash" xMin="45" yMin="-27" xMax="692" yMax="681">
      <contour>
        <pt x="645" y="540" on="0"/>
        <pt x="692" y="411" on="0"/>
        <pt x="692" y="330" on="1"/>
        <pt x="692" y="224" on="0"/>
        <pt x="614" y="71" on="0"/>
        <pt x="469" y="-10" on="0"/>
        <pt x="369" y="-10" on="1"/>
        <pt x="268" y="-10" on="0"/>
        <pt x="193" y="32" on="1"/>
        <pt x="150" y="-27" on="1"/>
        <pt x="64" y="-27" on="1"/>
        <pt x="137" y="74" on="1"/>
        <pt x="92" y="119" on="0"/>
        <pt x="45" y="248" on="0"/>
        <pt x="45" y="330" on="1"/>
        <pt x="45" y="436" on="0"/>
        <pt x="123" y="589" on="0"/>
        <pt x="269" y="670" on="0"/>
        <pt x="369" y="670" on="1"/>
        <pt x="473" y="670" on="0"/>
        <pt x="547" y="626" on="1"/>
        <pt x="586" y="681" on="1"/>
        <pt x="672" y="681" on="1"/>
        <pt x="601" y="584" on="1"/>
      </contour>
      <contour>
        <pt x="297" y="535" on="0"/>
        <pt x="221" y="431" on="0"/>
        <pt x="221" y="330" on="1"/>
        <pt x="221" y="255" on="0"/>
        <pt x="242" y="207" on="1"/>
        <pt x="454" y="508" on="1"/>
        <pt x="421" y="535" on="0"/>
        <pt x="369" y="535" on="1"/>
      </contour>
      <contour>
        <pt x="441" y="125" on="0"/>
        <pt x="516" y="229" on="0"/>
        <pt x="516" y="330" on="1"/>
        <pt x="516" y="400" on="0"/>
        <pt x="498" y="446" on="1"/>
        <pt x="288" y="148" on="1"/>
        <pt x="322" y="125" on="0"/>
        <pt x="369" y="125" on="1"/>
      </contour>
    </TTGlyph>
    <TTGlyph name="Osuperior" xMin="27" yMin="327" xMax="444" yMax="735">
      <contour>
        <pt x="332" y="735" on="0"/>
        <pt x="444" y="627" on="0"/>
        <pt x="444" y="531" on="1"/>
        <pt x="444" y="435" on="0"/>
        <pt x="332" y="327" on="0"/>
        <pt x="235" y="327" on="1"/>
        <pt x="138" y="327" on="0"/>
        <pt x="27" y="435" on="0"/>
        <pt x="27" y="531" on="1"/>
        <pt x="27" y="627" on="0"/>
        <pt x="138" y="735" on="0"/>
        <pt x="235" y="735" on="1"/>
      </contour>
      <contour>
        <pt x="151" y="647" on="0"/>
        <pt x="151" y="531" on="1"/>
        <pt x="151" y="415" on="0"/>
        <pt x="235" y="415" on="1"/>
        <pt x="320" y="415" on="0"/>
        <pt x="320" y="531" on="1"/>
        <pt x="320" y="647" on="0"/>
        <pt x="235" y="647" on="1"/>
      </contour>
    </TTGlyph>
    <TTGlyph name="Otilde" xMin="45" yMin="-10" xMax="692" yMax="879">
      <component glyphName="O" x="0" y="0" flags="0x0"/>
      <component glyphName="tilde" x="119" y="160" flags="0x4"/>
    </TTGlyph>
    <TTGlyph name="P" xMin="73" yMin="0" xMax="631" yMax="660">
      <contour>
        <pt x="499" y="660" on="0"/>
        <pt x="631" y="547" on="0"/>
        <pt x="631" y="441" on="1"/>
        <pt x="631" y="340" on="0"/>
        <pt x="499" y="229" on="0"/>
        <pt x="376" y="229" on="1"/>
        <pt x="245" y="229" on="1"/>
        <pt x="245" y="0" on="1"/>
        <pt x="73" y="0" on="1"/>
        <pt x="73" y="660" on="1"/>
        <pt x="376" y="660" on="1"/>
      </contour>
      <contour>
        <pt x="405" y="355" on="0"/>
        <pt x="458" y="398" on="0"/>
        <pt x="458" y="443" on="1"/>
        <pt x="458" y="487" on="0"/>
        <pt x="405" y="530" on="0"/>
        <pt x="349" y="530" on="1"/>
        <pt x="245" y="530" on="1"/>
        <pt x="245" y="355" on="1"/>
        <pt x="349" y="355" on="1"/>
      </contour>
    </TTGlyph>
    <TTGlyph name="Q" xMin="45" yMin="-204" xMax="692" yMax="670">
      <contour>
        <pt x="604" y="-70" on="0"/>
        <pt x="646" y="-31" on="1"/>
        <pt x="687" y="-156" on="1"/>
        <pt x="661" y="-179" on="0"/>
        <pt x="573" y="-204" on="0"/>
        <pt x="517" y="-204" on="1"/>
        <pt x="412" y="-204" on="0"/>
        <pt x="305" y="-99" on="0"/>
        <pt x="311" y="-6" on="1"/>
        <pt x="186" y="11" on="0"/>
        <pt x="45" y="187" on="0"/>
        <pt x="45" y="330" on="1"/>
        <pt x="45" y="436" on="0"/>
        <pt x="123" y="589" on="0"/>
        <pt x="269" y="670" on="0"/>
        <pt x="369" y="670" on="1"/>
        <pt x="469" y="670" on="0"/>
        <pt x="614" y="589" on="0"/>
        <pt x="692" y="436" on="0"/>
        <pt x="692" y="330" on="1"/>
        <pt x="692" y="185" on="0"/>
        <pt x="549" y="9" on="0"/>
        <pt x="422" y="-7" on="1"/>
        <pt x="426" y="-42" on="0"/>
        <pt x="477" y="-70" on="0"/>
        <pt x="523" y="-70" on="1"/>
      </contour>
      <contour>
        <pt x="221" y="229" on="0"/>
        <pt x="297" y="125" on="0"/>
        <pt x="369" y="125" on="1"/>
        <pt x="441" y="125" on="0"/>
        <pt x="516" y="229" on="0"/>
        <pt x="516" y="330" on="1"/>
        <pt x="516" y="431" on="0"/>
        <pt x="441" y="535" on="0"/>
        <pt x="369" y="535" on="1"/>
        <pt x="297" y="535" on="0"/>
        <pt x="221" y="431" on="0"/>
        <pt x="221" y="330" on="1"/>
      </contour>
    </TTGlyph>
    <TTGlyph name="R" xMin="73" yMin="0" xMax="676" yMax="660">
      <contour>
        <pt x="345" y="241" on="1"/>
        <pt x="242" y="241" on="1"/>
        <pt x="242" y="0" on="1"/>
        <pt x="73" y="0" on="1"/>
        <pt x="73" y="660" on="1"/>
        <pt x="388" y="660" on="1"/>
        <pt x="508" y="660" on="0"/>
        <pt x="637" y="552" on="0"/>
        <pt x="637" y="450" on="1"/>
        <pt x="637" y="378" on="0"/>
        <pt x="572" y="282" on="0"/>
        <pt x="509" y="259" on="1"/>
        <pt x="676" y="0" on="1"/>
        <pt x="486" y="0" on="1"/>
      </contour>
      <contour>
        <pt x="242" y="363" on="1"/>
        <pt x="359" y="363" on="1"/>
        <pt x="414" y="363" on="0"/>
        <pt x="464" y="403" on="0"/>
        <pt x="464" y="447" on="1"/>
        <pt x="464" y="490" on="0"/>
        <pt x="414" y="530" on="0"/>
        <pt x="359" y="530" on="1"/>
        <pt x="242" y="530" on="1"/>
      </contour>
    </TTGlyph>
    <TTGlyph name="R.ss03" xMin="73" yMin="0" xMax="647" yMax="660">
      <contour>
        <pt x="73" y="660" on="1"/>
        <pt x="388" y="660" on="1"/>
        <pt x="507" y="660" on="0"/>
        <pt x="637" y="554" on="0"/>
        <pt x="637" y="456" on="1"/>
        <pt x="637" y="324" on="0"/>
        <pt x="508" y="287" on="1"/>
        <pt x="508" y="285" on="1"/>
        <pt x="600" y="264" on="0"/>
        <pt x="610" y="171" on="1"/>
        <pt x="619" y="97" on="0"/>
        <pt x="633" y="29" on="0"/>
        <pt x="647" y="4" on="1"/>
        <pt x="647" y="0" on="1"/>
        <pt x="467" y="0" on="1"/>
        <pt x="460" y="17" on="0"/>
        <pt x="452" y="65" on="0"/>
        <pt x="449" y="94" on="1"/>
        <pt x="441" y="154" on="1"/>
        <pt x="435" y="200" on="0"/>
        <pt x="382" y="241" on="0"/>
        <pt x="329" y="241" on="1"/>
        <pt x="242" y="241" on="1"/>
        <pt x="242" y="0" on="1"/>
        <pt x="73" y="0" on="1"/>
      </contour>
      <contour>
        <pt x="359" y="363" on="1"/>
        <pt x="414" y="363" on="0"/>
        <pt x="464" y="403" on="0"/>
        <pt x="464" y="447" on="1"/>
        <pt x="464" y="490" on="0"/>
        <pt x="414" y="530" on="0"/>
        <pt x="359" y="530" on="1"/>
        <pt x="242" y="530" on="1"/>
        <pt x="242" y="363" on="1"/>
      </contour>
    </TTGlyph>
    <TTGlyph name="R.swsh" xMin="10" yMin="-110" xMax="923" yMax="660">
      <contour>
        <pt x="593" y="241" on="1"/>
        <pt x="490" y="241" on="1"/>
        <pt x="490" y="116" on="1"/>
        <pt x="490" y="3" on="0"/>
        <pt x="363" y="-110" on="0"/>
        <pt x="251" y="-110" on="1"/>
        <pt x="99" y="-110" on="0"/>
        <pt x="50" y="-2" on="1"/>
        <pt x="119" y="96" on="1"/>
        <pt x="136" y="54" on="0"/>
        <pt x="187" y="17" on="0"/>
        <pt x="230" y="17" on="1"/>
        <pt x="272" y="17" on="0"/>
        <pt x="321" y="72" on="0"/>
        <pt x="321" y="117" on="1"/>
        <pt x="321" y="534" on="1"/>
        <pt x="260" y="534" on="1"/>
        <pt x="213" y="534" on="0"/>
        <pt x="164" y="490" on="0"/>
        <pt x="164" y="451" on="1"/>
        <pt x="164" y="416" on="0"/>
        <pt x="212" y="368" on="0"/>
        <pt x="254" y="364" on="1"/>
        <pt x="203" y="248" on="1"/>
        <pt x="117" y="254" on="0"/>
        <pt x="10" y="364" on="0"/>
        <pt x="10" y="454" on="1"/>
        <pt x="10" y="552" on="0"/>
        <pt x="136" y="660" on="0"/>
        <pt x="253" y="660" on="1"/>
        <pt x="636" y="660" on="1"/>
        <pt x="756" y="660" on="0"/>
        <pt x="885" y="552" on="0"/>
        <pt x="885" y="450" on="1"/>
        <pt x="885" y="378" on="0"/>
        <pt x="819" y="282" on="0"/>
        <pt x="756" y="259" on="1"/>
        <pt x="923" y="0" on="1"/>
        <pt x="734" y="0" on="1"/>
      </contour>
      <contour>
        <pt x="490" y="363" on="1"/>
        <pt x="607" y="363" on="1"/>
        <pt x="662" y="363" on="0"/>
        <pt x="712" y="403" on="0"/>
        <pt x="712" y="447" on="1"/>
        <pt x="712" y="490" on="0"/>
        <pt x="662" y="530" on="0"/>
        <pt x="607" y="530" on="1"/>
        <pt x="490" y="530" on="1"/>
      </contour>
    </TTGlyph>
    <TTGlyph name="R.swsh.001" xMin="73" yMin="-96" xMax="743" yMax="660">
      <contour>
        <pt x="621" y="71" on="0"/>
        <pt x="702" y="10" on="0"/>
        <pt x="743" y="2" on="1"/>
        <pt x="649" y="-96" on="1"/>
        <pt x="584" y="-80" on="0"/>
        <pt x="504" y="-21" on="0"/>
        <pt x="472" y="25" on="1"/>
        <pt x="321" y="241" on="1"/>
        <pt x="242" y="241" on="1"/>
        <pt x="242" y="0" on="1"/>
        <pt x="73" y="0" on="1"/>
        <pt x="73" y="660" on="1"/>
        <pt x="388" y="660" on="1"/>
        <pt x="508" y="660" on="0"/>
        <pt x="637" y="552" on="0"/>
        <pt x="637" y="450" on="1"/>
        <pt x="637" y="373" on="0"/>
        <pt x="559" y="272" on="0"/>
        <pt x="486" y="252" on="1"/>
        <pt x="586" y="118" on="1"/>
      </contour>
      <contour>
        <pt x="242" y="363" on="1"/>
        <pt x="359" y="363" on="1"/>
        <pt x="414" y="363" on="0"/>
        <pt x="464" y="403" on="0"/>
        <pt x="464" y="447" on="1"/>
        <pt x="464" y="490" on="0"/>
        <pt x="414" y="530" on="0"/>
        <pt x="359" y="530" on="1"/>
        <pt x="242" y="530" on="1"/>
      </contour>
    </TTGlyph>
    <TTGlyph name="Racute" xMin="73" yMin="0" xMax="676" yMax="886">
      <component glyphName="R" x="0" y="0" flags="0x0"/>
      <component glyphName="acutecomb.cap" x="329" y="0" flags="0x0"/>
    </TTGlyph>
    <TTGlyph name="Racute.ss03" xMin="73" yMin="0" xMax="647" yMax="886">
      <component glyphName="R.ss03" x="0" y="0" flags="0x0"/>
      <component glyphName="acutecomb.cap" x="329" y="0" flags="0x0"/>
    </TTGlyph>
    <TTGlyph name="Racute.swsh" xMin="10" yMin="-110" xMax="923" yMax="886">
      <component glyphName="R.swsh" x="0" y="0" flags="0x0"/>
      <component glyphName="acutecomb.cap" x="577" y="0" flags="0x0"/>
    </TTGlyph>
    <TTGlyph name="Racute.swsh.001" xMin="73" yMin="-96" xMax="743" yMax="886">
      <component glyphName="R.swsh.001" x="0" y="0" flags="0x0"/>
      <component glyphName="acutecomb.cap" x="329" y="0" flags="0x0"/>
    </TTGlyph>
    <TTGlyph name="Rcaron" xMin="73" yMin="0" xMax="676" yMax="886">
      <component glyphName="R" x="0" y="0" flags="0x0"/>
      <component glyphName="uni030C.cap" x="329" y="0" flags="0x0"/>
    </TTGlyph>
    <TTGlyph name="Rcaron.ss03" xMin="73" yMin="0" xMax="647" yMax="886">
      <component glyphName="R.ss03" x="0" y="0" flags="0x0"/>
      <component glyphName="uni030C.cap" x="329" y="0" flags="0x0"/>
    </TTGlyph>
    <TTGlyph name="Rcaron.swsh" xMin="10" yMin="-110" xMax="923" yMax="886">
      <component glyphName="R.swsh" x="0" y="0" flags="0x0"/>
      <component glyphName="uni030C.cap" x="577" y="0" flags="0x0"/>
    </TTGlyph>
    <TTGlyph name="Rcaron.swsh.001" xMin="73" yMin="-96" xMax="743" yMax="886">
      <component glyphName="R.swsh.001" x="0" y="0" flags="0x0"/>
      <component glyphName="uni030C.cap" x="329" y="0" flags="0x0"/>
    </TTGlyph>
    <TTGlyph name="Rcommaaccent.sc" xMin="69" yMin="-241" xMax="610" yMax="560">
      <component glyphName="r.sc" x="0" y="0" flags="0x0"/>
      <component glyphName="uni0326" x="634" y="0" flags="0x0"/>
    </TTGlyph>
    <TTGlyph name="Rcommaaccent.sc.ss03" xMin="69" yMin="-241" xMax="592" yMax="560">
      <component glyphName="r.sc.ss03" x="0" y="0" flags="0x0"/>
      <component glyphName="uni0326" x="628" y="0" flags="0x0"/>
    </TTGlyph>
    <TTGlyph name="Rcommaaccent.ss03" xMin="73" yMin="-241" xMax="647" yMax="660">
      <component glyphName="R.ss03" x="0" y="0" flags="0x0"/>
      <component glyphName="uni0326" x="663" y="0" flags="0x0"/>
    </TTGlyph>
    <TTGlyph name="Rcommaaccent.swsh" xMin="10" yMin="-241" xMax="923" yMax="660">
      <component glyphName="R.swsh" x="0" y="0" flags="0x0"/>
      <component glyphName="uni0326" x="911" y="0" flags="0x0"/>
    </TTGlyph>
    <TTGlyph name="Rcommaaccent.swsh.001" xMin="73" yMin="-241" xMax="743" yMax="660">
      <component glyphName="R.swsh.001" x="0" y="0" flags="0x0"/>
      <component glyphName="uni0326" x="663" y="0" flags="0x0"/>
    </TTGlyph>
    <TTGlyph name="S" xMin="28" yMin="-10" xMax="615" yMax="670">
      <contour>
        <pt x="425" y="670" on="0"/>
        <pt x="558" y="614" on="0"/>
        <pt x="615" y="551" on="1"/>
        <pt x="518" y="439" on="1"/>
        <pt x="485" y="489" on="0"/>
        <pt x="396" y="536" on="0"/>
        <pt x="334" y="536" on="1"/>
        <pt x="282" y="536" on="0"/>
        <pt x="226" y="500" on="0"/>
        <pt x="226" y="470" on="1"/>
        <pt x="226" y="445" on="0"/>
        <pt x="285" y="414" on="0"/>
        <pt x="356" y="401" on="1"/>
        <pt x="493" y="376" on="0"/>
        <pt x="610" y="280" on="0"/>
        <pt x="610" y="193" on="1"/>
        <pt x="610" y="130" on="0"/>
        <pt x="538" y="38" on="0"/>
        <pt x="411" y="-10" on="0"/>
        <pt x="331" y="-10" on="1"/>
        <pt x="219" y="-10" on="0"/>
        <pt x="79" y="45" on="0"/>
        <pt x="28" y="102" on="1"/>
        <pt x="116" y="222" on="1"/>
        <pt x="155" y="168" on="0"/>
        <pt x="253" y="124" on="0"/>
        <pt x="322" y="124" on="1"/>
        <pt x="377" y="124" on="0"/>
        <pt x="432" y="155" on="0"/>
        <pt x="432" y="184" on="1"/>
        <pt x="432" y="207" on="0"/>
        <pt x="373" y="236" on="0"/>
        <pt x="304" y="249" on="1"/>
        <pt x="219" y="266" on="0"/>
        <pt x="108" y="313" on="0"/>
        <pt x="47" y="393" on="0"/>
        <pt x="47" y="455" on="1"/>
        <pt x="47" y="517" on="0"/>
        <pt x="114" y="615" on="0"/>
        <pt x="243" y="670" on="0"/>
        <pt x="331" y="670" on="1"/>
      </contour>
    </TTGlyph>
    <TTGlyph name="S.swsh" xMin="38" yMin="-110" xMax="611" yMax="670">
      <contour>
        <pt x="229" y="-110" on="0"/>
        <pt x="105" y="-66" on="0"/>
        <pt x="38" y="14" on="0"/>
        <pt x="38" y="67" on="1"/>
        <pt x="38" y="96" on="0"/>
        <pt x="43" y="118" on="1"/>
        <pt x="194" y="159" on="1"/>
        <pt x="189" y="132" on="0"/>
        <pt x="189" y="119" on="1"/>
        <pt x="189" y="71" on="0"/>
        <pt x="255" y="25" on="0"/>
        <pt x="327" y="25" on="1"/>
        <pt x="388" y="25" on="0"/>
        <pt x="449" y="70" on="0"/>
        <pt x="449" y="111" on="1"/>
        <pt x="449" y="148" on="0"/>
        <pt x="384" y="193" on="0"/>
        <pt x="298" y="211" on="1"/>
        <pt x="163" y="239" on="0"/>
        <pt x="48" y="345" on="0"/>
        <pt x="48" y="440" on="1"/>
        <pt x="48" y="507" on="0"/>
        <pt x="116" y="611" on="0"/>
        <pt x="246" y="670" on="0"/>
        <pt x="334" y="670" on="1"/>
        <pt x="464" y="670" on="0"/>
        <pt x="595" y="574" on="0"/>
        <pt x="600" y="471" on="1"/>
        <pt x="445" y="412" on="1"/>
        <pt x="445" y="535" on="0"/>
        <pt x="331" y="535" on="1"/>
        <pt x="281" y="535" on="0"/>
        <pt x="225" y="486" on="0"/>
        <pt x="225" y="442" on="1"/>
        <pt x="225" y="403" on="0"/>
        <pt x="293" y="355" on="0"/>
        <pt x="379" y="335" on="1"/>
        <pt x="465" y="315" on="0"/>
        <pt x="566" y="260" on="0"/>
        <pt x="611" y="179" on="0"/>
        <pt x="611" y="119" on="1"/>
        <pt x="611" y="11" on="0"/>
        <pt x="448" y="-110" on="0"/>
        <pt x="313" y="-110" on="1"/>
      </contour>
    </TTGlyph>
    <TTGlyph name="Sacute" xMin="28" yMin="-10" xMax="615" yMax="886">
      <component glyphName="S" x="0" y="0" flags="0x0"/>
      <component glyphName="acutecomb.cap" x="329" y="0" flags="0x0"/>
    </TTGlyph>
    <TTGlyph name="Sacute.swsh" xMin="38" yMin="-110" xMax="611" yMax="886">
      <component glyphName="S.swsh" x="0" y="0" flags="0x0"/>
      <component glyphName="acutecomb.cap" x="329" y="0" flags="0x0"/>
    </TTGlyph>
    <TTGlyph name="Scaron" xMin="28" yMin="-10" xMax="615" yMax="886">
      <component glyphName="S" x="0" y="0" flags="0x0"/>
      <component glyphName="uni030C.cap" x="329" y="0" flags="0x0"/>
    </TTGlyph>
    <TTGlyph name="Scaron.swsh" xMin="38" yMin="-110" xMax="611" yMax="886">
      <component glyphName="S.swsh" x="0" y="0" flags="0x0"/>
      <component glyphName="uni030C.cap" x="329" y="0" flags="0x0"/>
    </TTGlyph>
    <TTGlyph name="Scedilla.sc" xMin="22" yMin="-215" xMax="546" yMax="568">
      <contour>
        <pt x="205" y="374" on="0"/>
        <pt x="258" y="355" on="0"/>
        <pt x="315" y="347" on="1"/>
        <pt x="385" y="336" on="0"/>
        <pt x="477" y="309" on="0"/>
        <pt x="546" y="238" on="0"/>
        <pt x="546" y="174" on="1"/>
        <pt x="546" y="106" on="0"/>
        <pt x="453" y="15" on="0"/>
        <pt x="370" y="-1" on="1"/>
        <pt x="398" y="-20" on="0"/>
        <pt x="427" y="-69" on="0"/>
        <pt x="427" y="-97" on="1"/>
        <pt x="427" y="-154" on="0"/>
        <pt x="349" y="-215" on="0"/>
        <pt x="284" y="-215" on="1"/>
        <pt x="203" y="-215" on="0"/>
        <pt x="160" y="-175" on="1"/>
        <pt x="199" y="-96" on="1"/>
        <pt x="227" y="-124" on="0"/>
        <pt x="271" y="-124" on="1"/>
        <pt x="296" y="-124" on="0"/>
        <pt x="326" y="-98" on="0"/>
        <pt x="326" y="-75" on="1"/>
        <pt x="326" y="-52" on="0"/>
        <pt x="294" y="-20" on="0"/>
        <pt x="252" y="-7" on="1"/>
        <pt x="178" y="-3" on="0"/>
        <pt x="67" y="39" on="0"/>
        <pt x="22" y="80" on="1"/>
        <pt x="96" y="196" on="1"/>
        <pt x="137" y="152" on="0"/>
        <pt x="223" y="117" on="0"/>
        <pt x="286" y="117" on="1"/>
        <pt x="374" y="117" on="0"/>
        <pt x="374" y="161" on="1"/>
        <pt x="374" y="183" on="0"/>
        <pt x="321" y="200" on="0"/>
        <pt x="264" y="208" on="1"/>
        <pt x="195" y="218" on="0"/>
        <pt x="102" y="245" on="0"/>
        <pt x="33" y="317" on="0"/>
        <pt x="33" y="383" on="1"/>
        <pt x="33" y="439" on="0"/>
        <pt x="96" y="522" on="0"/>
        <pt x="212" y="568" on="0"/>
        <pt x="290" y="568" on="1"/>
        <pt x="379" y="568" on="0"/>
        <pt x="494" y="526" on="0"/>
        <pt x="546" y="479" on="1"/>
        <pt x="468" y="366" on="1"/>
        <pt x="428" y="409" on="0"/>
        <pt x="351" y="443" on="0"/>
        <pt x="292" y="443" on="1"/>
        <pt x="249" y="443" on="0"/>
        <pt x="205" y="417" on="0"/>
        <pt x="205" y="395" on="1"/>
      </contour>
    </TTGlyph>
    <TTGlyph name="Scedilla.swsh" xMin="38" yMin="-315" xMax="611" yMax="670">
      <contour>
        <pt x="611" y="26" on="0"/>
        <pt x="487" y="-91" on="0"/>
        <pt x="381" y="-106" on="1"/>
        <pt x="431" y="-142" on="0"/>
        <pt x="431" y="-197" on="1"/>
        <pt x="431" y="-254" on="0"/>
        <pt x="353" y="-315" on="0"/>
        <pt x="288" y="-315" on="1"/>
        <pt x="207" y="-315" on="0"/>
        <pt x="164" y="-275" on="1"/>
        <pt x="203" y="-196" on="1"/>
        <pt x="231" y="-224" on="0"/>
        <pt x="275" y="-224" on="1"/>
        <pt x="300" y="-224" on="0"/>
        <pt x="330" y="-198" on="0"/>
        <pt x="330" y="-175" on="1"/>
        <pt x="330" y="-152" on="0"/>
        <pt x="298" y="-120" on="0"/>
        <pt x="256" y="-107" on="1"/>
        <pt x="154" y="-96" on="0"/>
        <pt x="38" y="-4" on="0"/>
        <pt x="38" y="67" on="1"/>
        <pt x="38" y="96" on="0"/>
        <pt x="43" y="118" on="1"/>
        <pt x="194" y="159" on="1"/>
        <pt x="189" y="132" on="0"/>
        <pt x="189" y="119" on="1"/>
        <pt x="189" y="71" on="0"/>
        <pt x="255" y="25" on="0"/>
        <pt x="327" y="25" on="1"/>
        <pt x="388" y="25" on="0"/>
        <pt x="449" y="70" on="0"/>
        <pt x="449" y="111" on="1"/>
        <pt x="449" y="148" on="0"/>
        <pt x="384" y="193" on="0"/>
        <pt x="298" y="211" on="1"/>
        <pt x="163" y="239" on="0"/>
        <pt x="48" y="345" on="0"/>
        <pt x="48" y="440" on="1"/>
        <pt x="48" y="507" on="0"/>
        <pt x="116" y="611" on="0"/>
        <pt x="246" y="670" on="0"/>
        <pt x="334" y="670" on="1"/>
        <pt x="464" y="670" on="0"/>
        <pt x="595" y="574" on="0"/>
        <pt x="600" y="471" on="1"/>
        <pt x="445" y="412" on="1"/>
        <pt x="445" y="535" on="0"/>
        <pt x="331" y="535" on="1"/>
        <pt x="281" y="535" on="0"/>
        <pt x="225" y="486" on="0"/>
        <pt x="225" y="442" on="1"/>
        <pt x="225" y="403" on="0"/>
        <pt x="293" y="355" on="0"/>
        <pt x="379" y="335" on="1"/>
        <pt x="465" y="315" on="0"/>
        <pt x="566" y="260" on="0"/>
        <pt x="611" y="179" on="0"/>
        <pt x="611" y="119" on="1"/>
      </contour>
    </TTGlyph>
    <TTGlyph name="Scommaaccent.sc" xMin="22" yMin="-241" xMax="546" yMax="568">
      <component glyphName="s.sc" x="0" y="0" flags="0x0"/>
      <component glyphName="uni0326" x="610" y="0" flags="0x0"/>
    </TTGlyph>
    <TTGlyph name="Scommaaccent.swsh" xMin="38" yMin="-341" xMax="611" yMax="670">
      <component glyphName="S.swsh" x="0" y="0" flags="0x0"/>
      <component glyphName="uni0326" x="617" y="-100" flags="0x4"/>
    </TTGlyph>
    <TTGlyph name="T" xMin="25" yMin="0" xMax="628" yMax="660">
      <contour>
        <pt x="628" y="527" on="1"/>
        <pt x="413" y="527" on="1"/>
        <pt x="413" y="0" on="1"/>
        <pt x="241" y="0" on="1"/>
        <pt x="241" y="527" on="1"/>
        <pt x="25" y="527" on="1"/>
        <pt x="25" y="660" on="1"/>
        <pt x="628" y="660" on="1"/>
      </contour>
    </TTGlyph>
    <TTGlyph name="T.swsh" xMin="10" yMin="0" xMax="766" yMax="660">
      <contour>
        <pt x="766" y="527" on="1"/>
        <pt x="550" y="527" on="1"/>
        <pt x="550" y="0" on="1"/>
        <pt x="378" y="0" on="1"/>
        <pt x="378" y="527" on="1"/>
        <pt x="267" y="527" on="1"/>
        <pt x="217" y="527" on="0"/>
        <pt x="164" y="487" on="0"/>
        <pt x="164" y="451" on="1"/>
        <pt x="164" y="415" on="0"/>
        <pt x="210" y="368" on="0"/>
        <pt x="254" y="364" on="1"/>
        <pt x="204" y="248" on="1"/>
        <pt x="148" y="252" on="0"/>
        <pt x="60" y="305" on="0"/>
        <pt x="10" y="396" on="0"/>
        <pt x="10" y="454" on="1"/>
        <pt x="10" y="552" on="0"/>
        <pt x="136" y="660" on="0"/>
        <pt x="254" y="660" on="1"/>
        <pt x="766" y="660" on="1"/>
      </contour>
    </TTGlyph>
    <TTGlyph name="Tcaron" xMin="25" yMin="0" xMax="628" yMax="886">
      <component glyphName="T" x="0" y="0" flags="0x0"/>
      <component glyphName="uni030C.cap" x="327" y="0" flags="0x0"/>
    </TTGlyph>
    <TTGlyph name="Tcaron.swsh" xMin="10" yMin="0" xMax="766" yMax="886">
      <component glyphName="T.swsh" x="0" y="0" flags="0x0"/>
      <component glyphName="uni030C.cap" x="464" y="0" flags="0x0"/>
    </TTGlyph>
    <TTGlyph name="Thorn" xMin="73" yMin="0" xMax="628" yMax="660">
      <contour>
        <pt x="493" y="559" on="0"/>
        <pt x="628" y="446" on="0"/>
        <pt x="627" y="337" on="1"/>
        <pt x="628" y="229" on="0"/>
        <pt x="493" y="115" on="0"/>
        <pt x="366" y="115" on="1"/>
        <pt x="245" y="115" on="1"/>
        <pt x="245" y="0" on="1"/>
        <pt x="73" y="0" on="1"/>
        <pt x="73" y="660" on="1"/>
        <pt x="245" y="660" on="1"/>
        <pt x="245" y="559" on="1"/>
        <pt x="366" y="559" on="1"/>
      </contour>
      <contour>
        <pt x="400" y="243" on="0"/>
        <pt x="454" y="289" on="0"/>
        <pt x="454" y="337" on="1"/>
        <pt x="454" y="430" on="0"/>
        <pt x="346" y="430" on="1"/>
        <pt x="245" y="430" on="1"/>
        <pt x="245" y="243" on="1"/>
        <pt x="346" y="243" on="1"/>
      </contour>
    </TTGlyph>
    <TTGlyph name="U" xMin="61" yMin="-10" xMax="651" yMax="660">
      <contour>
        <pt x="651" y="269" on="1"/>
        <pt x="651" y="130" on="0"/>
        <pt x="503" y="-10" on="0"/>
        <pt x="356" y="-10" on="1"/>
        <pt x="210" y="-10" on="0"/>
        <pt x="61" y="130" on="0"/>
        <pt x="61" y="269" on="1"/>
        <pt x="61" y="660" on="1"/>
        <pt x="234" y="660" on="1"/>
        <pt x="234" y="266" on="1"/>
        <pt x="234" y="195" on="0"/>
        <pt x="294" y="125" on="0"/>
        <pt x="356" y="125" on="1"/>
        <pt x="480" y="125" on="0"/>
        <pt x="480" y="266" on="1"/>
        <pt x="480" y="660" on="1"/>
        <pt x="651" y="660" on="1"/>
      </contour>
    </TTGlyph>
    <TTGlyph name="Uacute" xMin="61" yMin="-10" xMax="651" yMax="886">
      <component glyphName="U" x="0" y="0" flags="0x0"/>
      <component glyphName="acutecomb.cap" x="356" y="0" flags="0x0"/>
    </TTGlyph>
    <TTGlyph name="Ucircumflex" xMin="61" yMin="-10" xMax="651" yMax="884">
      <component glyphName="U" x="0" y="0" flags="0x0"/>
      <component glyphName="uni0302.cap" x="356" y="0" flags="0x0"/>
    </TTGlyph>
    <TTGlyph name="Udieresis" xMin="61" yMin="-10" xMax="651" yMax="870">
      <component glyphName="U" x="0" y="0" flags="0x0"/>
      <component glyphName="dieresis" x="105" y="160" flags="0x4"/>
    </TTGlyph>
    <TTGlyph name="Udieresis.titl" xMin="61" yMin="-10" xMax="652" yMax="662">
      <contour>
        <pt x="325" y="535" on="0"/>
        <pt x="288" y="569" on="0"/>
        <pt x="288" y="600" on="1"/>
        <pt x="288" y="629" on="0"/>
        <pt x="325" y="662" on="0"/>
        <pt x="357" y="662" on="1"/>
        <pt x="389" y="662" on="0"/>
        <pt x="427" y="629" on="0"/>
        <pt x="427" y="600" on="1"/>
        <pt x="427" y="569" on="0"/>
        <pt x="389" y="535" on="0"/>
        <pt x="357" y="536" on="1"/>
      </contour>
      <contour>
        <pt x="652" y="269" on="1"/>
        <pt x="652" y="129" on="0"/>
        <pt x="503" y="-10" on="0"/>
        <pt x="357" y="-10" on="1"/>
        <pt x="61" y="-10" on="0"/>
        <pt x="61" y="269" on="1"/>
        <pt x="61" y="660" on="1"/>
        <pt x="234" y="660" on="1"/>
        <pt x="234" y="266" on="1"/>
        <pt x="234" y="195" on="0"/>
        <pt x="295" y="125" on="0"/>
        <pt x="357" y="125" on="1"/>
        <pt x="419" y="125" on="0"/>
        <pt x="479" y="195" on="0"/>
        <pt x="479" y="266" on="1"/>
        <pt x="479" y="660" on="1"/>
        <pt x="652" y="660" on="1"/>
      </contour>
      <contour>
        <pt x="325" y="382" on="0"/>
        <pt x="288" y="416" on="0"/>
        <pt x="288" y="446" on="1"/>
        <pt x="288" y="475" on="0"/>
        <pt x="325" y="509" on="0"/>
        <pt x="357" y="509" on="1"/>
        <pt x="389" y="509" on="0"/>
        <pt x="427" y="475" on="0"/>
        <pt x="427" y="446" on="1"/>
        <pt x="427" y="416" on="0"/>
        <pt x="389" y="382" on="0"/>
        <pt x="357" y="382" on="1"/>
      </contour>
    </TTGlyph>
    <TTGlyph name="Ugrave" xMin="61" yMin="-10" xMax="651" yMax="886">
      <component glyphName="U" x="0" y="0" flags="0x0"/>
      <component glyphName="gravecomb.cap" x="362" y="0" flags="0x0"/>
    </TTGlyph>
    <TTGlyph name="Uhungarumlaut" xMin="61" yMin="-10" xMax="651" yMax="886">
      <component glyphName="U" x="0" y="0" flags="0x0"/>
      <component glyphName="acutecomb.cap" x="472" y="0" flags="0x0"/>
      <component glyphName="acutecomb.cap" x="248" y="0" flags="0x0"/>
    </TTGlyph>
    <TTGlyph name="Umacron" xMin="61" yMin="-10" xMax="651" yMax="834">
      <component glyphName="U" x="0" y="0" flags="0x0"/>
      <component glyphName="macron" x="106" y="160" flags="0x4"/>
    </TTGlyph>
    <TTGlyph name="Uogonek" xMin="61" yMin="-215" xMax="651" yMax="660">
      <contour>
        <pt x="651" y="660" on="1"/>
        <pt x="651" y="269" on="1"/>
        <pt x="651" y="37" on="0"/>
        <pt x="447" y="-2" on="1"/>
        <pt x="407" y="-18" on="0"/>
        <pt x="372" y="-54" on="0"/>
        <pt x="372" y="-76" on="1"/>
        <pt x="372" y="-96" on="0"/>
        <pt x="402" y="-120" on="0"/>
        <pt x="427" y="-120" on="1"/>
        <pt x="457" y="-120" on="0"/>
        <pt x="473" y="-110" on="1"/>
        <pt x="495" y="-192" on="1"/>
        <pt x="458" y="-215" on="0"/>
        <pt x="392" y="-215" on="1"/>
        <pt x="330" y="-215" on="0"/>
        <pt x="253" y="-158" on="0"/>
        <pt x="253" y="-104" on="1"/>
        <pt x="253" y="-44" on="0"/>
        <pt x="306" y="-8" on="1"/>
        <pt x="185" y="4" on="0"/>
        <pt x="61" y="143" on="0"/>
        <pt x="61" y="269" on="1"/>
        <pt x="61" y="660" on="1"/>
        <pt x="234" y="660" on="1"/>
        <pt x="234" y="266" on="1"/>
        <pt x="234" y="195" on="0"/>
        <pt x="294" y="125" on="0"/>
        <pt x="356" y="125" on="1"/>
        <pt x="480" y="125" on="0"/>
        <pt x="480" y="266" on="1"/>
        <pt x="480" y="660" on="1"/>
      </contour>
    </TTGlyph>
    <TTGlyph name="Uring" xMin="61" yMin="-10" xMax="651" yMax="901">
      <component glyphName="U" x="0" y="0" flags="0x0"/>
      <component glyphName="ring" x="105" y="108" flags="0x4"/>
    </TTGlyph>
    <TTGlyph name="V" xMin="6" yMin="0" xMax="677" yMax="660">
      <contour>
        <pt x="443" y="0" on="1"/>
        <pt x="241" y="0" on="1"/>
        <pt x="6" y="660" on="1"/>
        <pt x="187" y="660" on="1"/>
        <pt x="308" y="261" on="1"/>
        <pt x="344" y="131" on="1"/>
        <pt x="379" y="259" on="1"/>
        <pt x="502" y="660" on="1"/>
        <pt x="677" y="660" on="1"/>
      </contour>
    </TTGlyph>
    <TTGlyph name="W" xMin="10" yMin="0" xMax="987" yMax="660">
      <contour>
        <pt x="393" y="0" on="1"/>
        <pt x="200" y="0" on="1"/>
        <pt x="10" y="660" on="1"/>
        <pt x="195" y="660" on="1"/>
        <pt x="304" y="135" on="1"/>
        <pt x="423" y="660" on="1"/>
        <pt x="579" y="660" on="1"/>
        <pt x="700" y="136" on="1"/>
        <pt x="809" y="660" on="1"/>
        <pt x="987" y="660" on="1"/>
        <pt x="796" y="0" on="1"/>
        <pt x="609" y="0" on="1"/>
        <pt x="531" y="320" on="1"/>
        <pt x="501" y="481" on="1"/>
        <pt x="499" y="481" on="1"/>
        <pt x="470" y="320" on="1"/>
      </contour>
    </TTGlyph>
    <TTGlyph name="W.swsh" xMin="10" yMin="0" xMax="1282" yMax="660">
      <contour>
        <pt x="1282" y="660" on="1"/>
        <pt x="1091" y="0" on="1"/>
        <pt x="904" y="0" on="1"/>
        <pt x="826" y="320" on="1"/>
        <pt x="796" y="481" on="1"/>
        <pt x="794" y="481" on="1"/>
        <pt x="765" y="320" on="1"/>
        <pt x="688" y="0" on="1"/>
        <pt x="495" y="0" on="1"/>
        <pt x="341" y="534" on="1"/>
        <pt x="264" y="534" on="1"/>
        <pt x="214" y="534" on="0"/>
        <pt x="164" y="490" on="0"/>
        <pt x="164" y="451" on="1"/>
        <pt x="164" y="416" on="0"/>
        <pt x="213" y="368" on="0"/>
        <pt x="256" y="364" on="1"/>
        <pt x="204" y="248" on="1"/>
        <pt x="148" y="250" on="0"/>
        <pt x="60" y="303" on="0"/>
        <pt x="10" y="395" on="0"/>
        <pt x="10" y="454" on="1"/>
        <pt x="10" y="552" on="0"/>
        <pt x="136" y="660" on="0"/>
        <pt x="254" y="660" on="1"/>
        <pt x="490" y="660" on="1"/>
        <pt x="599" y="135" on="1"/>
        <pt x="718" y="660" on="1"/>
        <pt x="874" y="660" on="1"/>
        <pt x="995" y="136" on="1"/>
        <pt x="1104" y="660" on="1"/>
      </contour>
    </TTGlyph>
    <TTGlyph name="X" xMin="11" yMin="0" xMax="655" yMax="660">
      <contour>
        <pt x="450" y="0" on="1"/>
        <pt x="326" y="217" on="1"/>
        <pt x="206" y="0" on="1"/>
        <pt x="11" y="0" on="1"/>
        <pt x="235" y="332" on="1"/>
        <pt x="24" y="660" on="1"/>
        <pt x="227" y="660" on="1"/>
        <pt x="341" y="450" on="1"/>
        <pt x="455" y="660" on="1"/>
        <pt x="641" y="660" on="1"/>
        <pt x="430" y="337" on="1"/>
        <pt x="655" y="0" on="1"/>
      </contour>
    </TTGlyph>
    <TTGlyph name="Y" xMin="9" yMin="0" xMax="647" yMax="660">
      <contour>
        <pt x="414" y="241" on="1"/>
        <pt x="414" y="0" on="1"/>
        <pt x="242" y="0" on="1"/>
        <pt x="242" y="241" on="1"/>
        <pt x="9" y="660" on="1"/>
        <pt x="187" y="660" on="1"/>
        <pt x="280" y="479" on="1"/>
        <pt x="329" y="369" on="1"/>
        <pt x="379" y="479" on="1"/>
        <pt x="472" y="660" on="1"/>
        <pt x="647" y="660" on="1"/>
      </contour>
    </TTGlyph>
    <TTGlyph name="Yacute" xMin="9" yMin="0" xMax="647" yMax="886">
      <component glyphName="Y" x="0" y="0" flags="0x0"/>
      <component glyphName="acutecomb.cap" x="328" y="0" flags="0x0"/>
    </TTGlyph>
    <TTGlyph name="Ydieresis" xMin="9" yMin="0" xMax="647" yMax="870">
      <component glyphName="Y" x="0" y="0" flags="0x0"/>
      <component glyphName="dieresis" x="77" y="160" flags="0x4"/>
    </TTGlyph>
    <TTGlyph name="Z" xMin="37" yMin="0" xMax="603" yMax="660">
      <contour>
        <pt x="603" y="130" on="1"/>
        <pt x="603" y="0" on="1"/>
        <pt x="37" y="0" on="1"/>
        <pt x="37" y="124" on="1"/>
        <pt x="405" y="530" on="1"/>
        <pt x="44" y="530" on="1"/>
        <pt x="44" y="660" on="1"/>
        <pt x="591" y="660" on="1"/>
        <pt x="591" y="536" on="1"/>
        <pt x="224" y="130" on="1"/>
      </contour>
    </TTGlyph>
    <TTGlyph name="Zacute" xMin="37" yMin="0" xMax="603" yMax="886">
      <component glyphName="Z" x="0" y="0" flags="0x0"/>
      <component glyphName="acutecomb.cap" x="320" y="0" flags="0x0"/>
    </TTGlyph>
    <TTGlyph name="Zcaron" xMin="37" yMin="0" xMax="603" yMax="886">
      <component glyphName="Z" x="0" y="0" flags="0x0"/>
      <component glyphName="uni030C.cap" x="320" y="0" flags="0x0"/>
    </TTGlyph>
    <TTGlyph name="Zdotaccent" xMin="37" yMin="0" xMax="603" yMax="882">
      <component glyphName="Z" x="0" y="0" flags="0x0"/>
      <component glyphName="dotaccent" x="70" y="160" flags="0x4"/>
    </TTGlyph>
    <TTGlyph name="a" xMin="32" yMin="-10" xMax="575" yMax="510">
      <contour>
        <pt x="563" y="97" on="0"/>
        <pt x="575" y="101" on="1"/>
        <pt x="562" y="6" on="1"/>
        <pt x="533" y="-10" on="0"/>
        <pt x="494" y="-10" on="1"/>
        <pt x="386" y="-10" on="0"/>
        <pt x="365" y="67" on="1"/>
        <pt x="320" y="-10" on="0"/>
        <pt x="187" y="-10" on="1"/>
        <pt x="112" y="-10" on="0"/>
        <pt x="32" y="54" on="0"/>
        <pt x="32" y="115" on="1"/>
        <pt x="32" y="179" on="0"/>
        <pt x="123" y="258" on="0"/>
        <pt x="227" y="279" on="1"/>
        <pt x="340" y="301" on="1"/>
        <pt x="340" y="319" on="1"/>
        <pt x="340" y="353" on="0"/>
        <pt x="302" y="393" on="0"/>
        <pt x="269" y="393" on="1"/>
        <pt x="231" y="393" on="0"/>
        <pt x="183" y="357" on="0"/>
        <pt x="176" y="316" on="1"/>
        <pt x="38" y="356" on="1"/>
        <pt x="51" y="429" on="0"/>
        <pt x="169" y="510" on="0"/>
        <pt x="269" y="510" on="1"/>
        <pt x="386" y="510" on="0"/>
        <pt x="508" y="414" on="0"/>
        <pt x="508" y="318" on="1"/>
        <pt x="508" y="136" on="1"/>
        <pt x="508" y="97" on="0"/>
        <pt x="544" y="97" on="1"/>
      </contour>
      <contour>
        <pt x="284" y="100" on="0"/>
        <pt x="340" y="139" on="0"/>
        <pt x="340" y="171" on="1"/>
        <pt x="340" y="214" on="1"/>
        <pt x="259" y="195" on="1"/>
        <pt x="227" y="187" on="0"/>
        <pt x="200" y="164" on="0"/>
        <pt x="200" y="143" on="1"/>
        <pt x="200" y="122" on="0"/>
        <pt x="226" y="100" on="0"/>
        <pt x="249" y="100" on="1"/>
      </contour>
    </TTGlyph>
    <TTGlyph name="a.sc" xMin="7" yMin="0" xMax="622" yMax="560">
      <contour>
        <pt x="415" y="116" on="1"/>
        <pt x="208" y="116" on="1"/>
        <pt x="168" y="0" on="1"/>
        <pt x="7" y="0" on="1"/>
        <pt x="213" y="560" on="1"/>
        <pt x="416" y="560" on="1"/>
        <pt x="622" y="0" on="1"/>
        <pt x="454" y="0" on="1"/>
      </contour>
      <contour>
        <pt x="376" y="230" on="1"/>
        <pt x="364" y="265" on="1"/>
        <pt x="313" y="436" on="1"/>
        <pt x="310" y="436" on="1"/>
        <pt x="259" y="265" on="1"/>
        <pt x="247" y="230" on="1"/>
      </contour>
    </TTGlyph>
    <TTGlyph name="aacute" xMin="32" yMin="-10" xMax="575" yMax="738">
      <component glyphName="a" x="0" y="0" flags="0x0"/>
      <component glyphName="acute" x="16" y="0" flags="0x0"/>
    </TTGlyph>
    <TTGlyph name="aacute.sc" xMin="7" yMin="0" xMax="622" yMax="786">
      <component glyphName="a.sc" x="0" y="0" flags="0x0"/>
      <component glyphName="acutecomb.cap" x="314" y="-100" flags="0x4"/>
    </TTGlyph>
    <TTGlyph name="abreve" xMin="32" yMin="-10" xMax="575" yMax="718">
      <component glyphName="a" x="0" y="0" flags="0x0"/>
      <component glyphName="breve" x="26" y="0" flags="0x0"/>
    </TTGlyph>
    <TTGlyph name="abreve.sc" xMin="7" yMin="0" xMax="622" yMax="778">
      <component glyphName="a.sc" x="0" y="0" flags="0x0"/>
      <component glyphName="breve" x="64" y="60" flags="0x4"/>
    </TTGlyph>
    <TTGlyph name="acircumflex" xMin="32" yMin="-10" xMax="575" yMax="732">
      <component glyphName="a" x="0" y="0" flags="0x0"/>
      <component glyphName="circumflex" x="26" y="0" flags="0x0"/>
    </TTGlyph>
    <TTGlyph name="acircumflex.sc" xMin="7" yMin="0" xMax="622" yMax="784">
      <component glyphName="a.sc" x="0" y="0" flags="0x0"/>
      <component glyphName="uni0302.cap" x="314" y="-100" flags="0x4"/>
    </TTGlyph>
    <TTGlyph name="acute" xMin="183" yMin="565" xMax="408" yMax="738">
      <contour>
        <pt x="408" y="738" on="1"/>
        <pt x="307" y="565" on="1"/>
        <pt x="183" y="565" on="1"/>
        <pt x="250" y="738" on="1"/>
      </contour>
    </TTGlyph>
    <TTGlyph name="acutecmb" xMin="-77" yMin="565" xMax="148" yMax="738">
      <component glyphName="acute" x="-260" y="0" flags="0x0"/>
    </TTGlyph>
    <TTGlyph name="acutecomb.asc" xMin="-52" yMin="768" xMax="154" yMax="920">
      <contour>
        <pt x="154" y="920" on="1"/>
        <pt x="70" y="768" on="1"/>
        <pt x="-52" y="768" on="1"/>
        <pt x="3" y="920" on="1"/>
      </contour>
    </TTGlyph>
    <TTGlyph name="acutecomb.cap" xMin="-72" yMin="723" xMax="141" yMax="886">
      <contour>
        <pt x="141" y="886" on="1"/>
        <pt x="52" y="723" on="1"/>
        <pt x="-72" y="723" on="1"/>
        <pt x="-11" y="886" on="1"/>
      </contour>
    </TTGlyph>
    <TTGlyph name="adieresis" xMin="32" yMin="-10" xMax="575" yMax="710">
      <component glyphName="a" x="0" y="0" flags="0x0"/>
      <component glyphName="dieresis" x="25" y="0" flags="0x0"/>
    </TTGlyph>
    <TTGlyph name="adieresis.sc" xMin="7" yMin="0" xMax="622" yMax="770">
      <component glyphName="a.sc" x="0" y="0" flags="0x0"/>
      <component glyphName="dieresis" x="63" y="60" flags="0x4"/>
    </TTGlyph>
    <TTGlyph name="ae" xMin="32" yMin="-10" xMax="842" yMax="510">
      <contour>
        <pt x="842" y="237" on="0"/>
        <pt x="838" y="207" on="1"/>
        <pt x="509" y="207" on="1"/>
        <pt x="516" y="157" on="0"/>
        <pt x="570" y="110" on="0"/>
        <pt x="612" y="110" on="1"/>
        <pt x="648" y="110" on="0"/>
        <pt x="686" y="137" on="0"/>
        <pt x="695" y="165" on="1"/>
        <pt x="832" y="121" on="1"/>
        <pt x="811" y="56" on="0"/>
        <pt x="695" y="-10" on="0"/>
        <pt x="607" y="-10" on="1"/>
        <pt x="476" y="-10" on="0"/>
        <pt x="420" y="85" on="1"/>
        <pt x="393" y="39" on="0"/>
        <pt x="278" y="-10" on="0"/>
        <pt x="195" y="-10" on="1"/>
        <pt x="115" y="-10" on="0"/>
        <pt x="32" y="57" on="0"/>
        <pt x="32" y="114" on="1"/>
        <pt x="32" y="177" on="0"/>
        <pt x="121" y="250" on="0"/>
        <pt x="218" y="269" on="1"/>
        <pt x="343" y="294" on="1"/>
        <pt x="343" y="319" on="1"/>
        <pt x="343" y="355" on="0"/>
        <pt x="304" y="393" on="0"/>
        <pt x="266" y="393" on="1"/>
        <pt x="230" y="393" on="0"/>
        <pt x="187" y="358" on="0"/>
        <pt x="177" y="318" on="1"/>
        <pt x="39" y="353" on="1"/>
        <pt x="52" y="427" on="0"/>
        <pt x="167" y="510" on="0"/>
        <pt x="267" y="510" on="1"/>
        <pt x="324" y="510" on="0"/>
        <pt x="412" y="472" on="0"/>
        <pt x="441" y="437" on="1"/>
        <pt x="470" y="472" on="0"/>
        <pt x="552" y="510" on="0"/>
        <pt x="603" y="510" on="1"/>
        <pt x="717" y="510" on="0"/>
        <pt x="842" y="378" on="0"/>
        <pt x="842" y="270" on="1"/>
      </contour>
      <contour>
        <pt x="521" y="391" on="0"/>
        <pt x="508" y="290" on="1"/>
        <pt x="686" y="290" on="1"/>
        <pt x="681" y="340" on="0"/>
        <pt x="642" y="391" on="0"/>
        <pt x="602" y="391" on="1"/>
      </contour>
      <contour>
        <pt x="290" y="91" on="0"/>
        <pt x="343" y="135" on="0"/>
        <pt x="343" y="176" on="1"/>
        <pt x="343" y="215" on="1"/>
        <pt x="272" y="199" on="1"/>
        <pt x="232" y="189" on="0"/>
        <pt x="198" y="162" on="0"/>
        <pt x="198" y="137" on="1"/>
        <pt x="198" y="91" on="0"/>
        <pt x="252" y="91" on="1"/>
      </contour>
    </TTGlyph>
    <TTGlyph name="ae.sc" xMin="-6" yMin="0" xMax="823" yMax="560">
      <contour>
        <pt x="823" y="117" on="1"/>
        <pt x="823" y="0" on="1"/>
        <pt x="372" y="0" on="1"/>
        <pt x="372" y="158" on="1"/>
        <pt x="215" y="158" on="1"/>
        <pt x="154" y="0" on="1"/>
        <pt x="-6" y="0" on="1"/>
        <pt x="234" y="560" on="1"/>
        <pt x="811" y="560" on="1"/>
        <pt x="811" y="443" on="1"/>
        <pt x="528" y="443" on="1"/>
        <pt x="528" y="337" on="1"/>
        <pt x="741" y="337" on="1"/>
        <pt x="741" y="223" on="1"/>
        <pt x="528" y="223" on="1"/>
        <pt x="528" y="117" on="1"/>
      </contour>
      <contour>
        <pt x="372" y="272" on="1"/>
        <pt x="372" y="446" on="1"/>
        <pt x="326" y="446" on="1"/>
        <pt x="259" y="272" on="1"/>
      </contour>
    </TTGlyph>
    <TTGlyph name="agrave" xMin="32" yMin="-10" xMax="575" yMax="738">
      <component glyphName="a" x="0" y="0" flags="0x0"/>
      <component glyphName="grave" x="26" y="0" flags="0x0"/>
    </TTGlyph>
    <TTGlyph name="agrave.sc" xMin="7" yMin="0" xMax="622" yMax="786">
      <component glyphName="a.sc" x="0" y="0" flags="0x0"/>
      <component glyphName="gravecomb.cap" x="310" y="-100" flags="0x4"/>
    </TTGlyph>
    <TTGlyph name="amacron" xMin="32" yMin="-10" xMax="575" yMax="674">
      <component glyphName="a" x="0" y="0" flags="0x0"/>
      <component glyphName="macron" x="26" y="0" flags="0x0"/>
    </TTGlyph>
    <TTGlyph name="amacron.sc" xMin="7" yMin="0" xMax="622" yMax="734">
      <component glyphName="a.sc" x="0" y="0" flags="0x0"/>
      <component glyphName="macron" x="64" y="60" flags="0x4"/>
    </TTGlyph>
    <TTGlyph name="ampersand" xMin="25" yMin="-10" xMax="642" yMax="670">
      <contour>
        <pt x="627" y="-10" on="1"/>
        <pt x="571" y="-10" on="0"/>
        <pt x="494" y="14" on="0"/>
        <pt x="447" y="52" on="1"/>
        <pt x="413" y="22" on="0"/>
        <pt x="316" y="-10" on="0"/>
        <pt x="257" y="-10" on="1"/>
        <pt x="153" y="-10" on="0"/>
        <pt x="26" y="84" on="0"/>
        <pt x="25" y="169" on="1"/>
        <pt x="25" y="223" on="0"/>
        <pt x="87" y="320" on="0"/>
        <pt x="160" y="347" on="1"/>
        <pt x="120" y="395" on="0"/>
        <pt x="92" y="461" on="0"/>
        <pt x="92" y="502" on="1"/>
        <pt x="92" y="545" on="0"/>
        <pt x="137" y="622" on="0"/>
        <pt x="227" y="670" on="0"/>
        <pt x="293" y="670" on="1"/>
        <pt x="388" y="670" on="0"/>
        <pt x="491" y="582" on="0"/>
        <pt x="491" y="514" on="1"/>
        <pt x="491" y="391" on="0"/>
        <pt x="348" y="333" on="1"/>
        <pt x="367" y="312" on="1"/>
        <pt x="395" y="281" on="1"/>
        <pt x="462" y="208" on="1"/>
        <pt x="488" y="264" on="0"/>
        <pt x="485" y="339" on="1"/>
        <pt x="598" y="336" on="1"/>
        <pt x="598" y="219" on="0"/>
        <pt x="533" y="140" on="1"/>
        <pt x="556" y="123" on="0"/>
        <pt x="596" y="108" on="0"/>
        <pt x="619" y="108" on="1"/>
        <pt x="634" y="108" on="0"/>
        <pt x="642" y="109" on="1"/>
      </contour>
      <contour>
        <pt x="269" y="558" on="0"/>
        <pt x="237" y="525" on="0"/>
        <pt x="237" y="496" on="1"/>
        <pt x="237" y="476" on="0"/>
        <pt x="258" y="437" on="0"/>
        <pt x="290" y="398" on="1"/>
        <pt x="330" y="427" on="0"/>
        <pt x="356" y="474" on="0"/>
        <pt x="356" y="504" on="1"/>
        <pt x="356" y="530" on="0"/>
        <pt x="325" y="558" on="0"/>
        <pt x="297" y="558" on="1"/>
      </contour>
      <contour>
        <pt x="171" y="146" on="0"/>
        <pt x="228" y="102" on="0"/>
        <pt x="274" y="102" on="1"/>
        <pt x="326" y="102" on="0"/>
        <pt x="371" y="122" on="1"/>
        <pt x="334" y="159" on="0"/>
        <pt x="313" y="182" on="1"/>
        <pt x="225" y="273" on="1"/>
        <pt x="194" y="249" on="0"/>
        <pt x="171" y="208" on="0"/>
        <pt x="171" y="181" on="1"/>
      </contour>
    </TTGlyph>
    <TTGlyph name="ampersand.sc" xMin="21" yMin="-8" xMax="585" yMax="568">
      <contour>
        <pt x="564" y="-8" on="1"/>
        <pt x="519" y="-8" on="0"/>
        <pt x="453" y="13" on="0"/>
        <pt x="411" y="45" on="1"/>
        <pt x="349" y="-7" on="0"/>
        <pt x="239" y="-7" on="1"/>
        <pt x="132" y="-7" on="0"/>
        <pt x="21" y="69" on="0"/>
        <pt x="21" y="138" on="1"/>
        <pt x="21" y="188" on="0"/>
        <pt x="76" y="263" on="0"/>
        <pt x="147" y="290" on="1"/>
        <pt x="110" y="331" on="0"/>
        <pt x="82" y="389" on="0"/>
        <pt x="82" y="423" on="1"/>
        <pt x="82" y="460" on="0"/>
        <pt x="122" y="527" on="0"/>
        <pt x="205" y="568" on="0"/>
        <pt x="266" y="568" on="1"/>
        <pt x="347" y="568" on="0"/>
        <pt x="436" y="496" on="0"/>
        <pt x="436" y="434" on="1"/>
        <pt x="436" y="382" on="0"/>
        <pt x="385" y="308" on="0"/>
        <pt x="318" y="277" on="1"/>
        <pt x="357" y="236" on="1"/>
        <pt x="392" y="199" on="0"/>
        <pt x="419" y="174" on="1"/>
        <pt x="441" y="213" on="0"/>
        <pt x="438" y="287" on="1"/>
        <pt x="536" y="280" on="1"/>
        <pt x="537" y="179" on="0"/>
        <pt x="488" y="120" on="1"/>
        <pt x="512" y="105" on="0"/>
        <pt x="557" y="94" on="0"/>
        <pt x="585" y="95" on="1"/>
      </contour>
      <contour>
        <pt x="246" y="465" on="0"/>
        <pt x="223" y="439" on="0"/>
        <pt x="223" y="417" on="1"/>
        <pt x="223" y="399" on="0"/>
        <pt x="239" y="366" on="0"/>
        <pt x="264" y="337" on="1"/>
        <pt x="293" y="359" on="0"/>
        <pt x="314" y="396" on="0"/>
        <pt x="314" y="420" on="1"/>
        <pt x="314" y="465" on="0"/>
        <pt x="269" y="465" on="1"/>
      </contour>
      <contour>
        <pt x="299" y="93" on="0"/>
        <pt x="336" y="108" on="1"/>
        <pt x="333" y="111" on="0"/>
        <pt x="295" y="146" on="1"/>
        <pt x="245" y="191" on="0"/>
        <pt x="210" y="225" on="1"/>
        <pt x="184" y="208" on="0"/>
        <pt x="163" y="176" on="0"/>
        <pt x="163" y="158" on="1"/>
        <pt x="163" y="129" on="0"/>
        <pt x="214" y="93" on="0"/>
        <pt x="251" y="93" on="1"/>
      </contour>
    </TTGlyph>
    <TTGlyph name="aogonek" xMin="32" yMin="-215" xMax="575" yMax="510">
      <contour>
        <pt x="534" y="-120" on="0"/>
        <pt x="549" y="-110" on="1"/>
        <pt x="572" y="-192" on="1"/>
        <pt x="535" y="-215" on="0"/>
        <pt x="470" y="-215" on="1"/>
        <pt x="408" y="-215" on="0"/>
        <pt x="332" y="-158" on="0"/>
        <pt x="332" y="-102" on="1"/>
        <pt x="332" y="-59" on="0"/>
        <pt x="384" y="0" on="0"/>
        <pt x="433" y="15" on="1"/>
        <pt x="386" y="32" on="0"/>
        <pt x="373" y="83" on="1"/>
        <pt x="354" y="39" on="0"/>
        <pt x="262" y="-10" on="0"/>
        <pt x="187" y="-10" on="1"/>
        <pt x="112" y="-10" on="0"/>
        <pt x="32" y="54" on="0"/>
        <pt x="32" y="115" on="1"/>
        <pt x="32" y="179" on="0"/>
        <pt x="123" y="258" on="0"/>
        <pt x="227" y="279" on="1"/>
        <pt x="340" y="301" on="1"/>
        <pt x="340" y="319" on="1"/>
        <pt x="340" y="353" on="0"/>
        <pt x="302" y="393" on="0"/>
        <pt x="269" y="393" on="1"/>
        <pt x="231" y="393" on="0"/>
        <pt x="183" y="357" on="0"/>
        <pt x="176" y="316" on="1"/>
        <pt x="38" y="356" on="1"/>
        <pt x="51" y="429" on="0"/>
        <pt x="169" y="510" on="0"/>
        <pt x="269" y="510" on="1"/>
        <pt x="386" y="510" on="0"/>
        <pt x="508" y="414" on="0"/>
        <pt x="508" y="318" on="1"/>
        <pt x="508" y="136" on="1"/>
        <pt x="508" y="97" on="0"/>
        <pt x="544" y="97" on="1"/>
        <pt x="563" y="97" on="0"/>
        <pt x="575" y="101" on="1"/>
        <pt x="562" y="6" on="1"/>
        <pt x="504" y="-7" on="0"/>
        <pt x="451" y="-46" on="0"/>
        <pt x="451" y="-75" on="1"/>
        <pt x="451" y="-96" on="0"/>
        <pt x="478" y="-120" on="0"/>
        <pt x="503" y="-120" on="1"/>
      </contour>
      <contour>
        <pt x="284" y="100" on="0"/>
        <pt x="340" y="139" on="0"/>
        <pt x="340" y="171" on="1"/>
        <pt x="340" y="214" on="1"/>
        <pt x="259" y="195" on="1"/>
        <pt x="227" y="187" on="0"/>
        <pt x="200" y="164" on="0"/>
        <pt x="200" y="143" on="1"/>
        <pt x="200" y="122" on="0"/>
        <pt x="226" y="100" on="0"/>
        <pt x="249" y="100" on="1"/>
      </contour>
    </TTGlyph>
    <TTGlyph name="aogonek.sc" xMin="7" yMin="-215" xMax="629" yMax="560">
      <contour>
        <pt x="629" y="-192" on="1"/>
        <pt x="592" y="-215" on="0"/>
        <pt x="525" y="-215" on="1"/>
        <pt x="463" y="-215" on="0"/>
        <pt x="387" y="-157" on="0"/>
        <pt x="387" y="-102" on="1"/>
        <pt x="387" y="-34" on="0"/>
        <pt x="453" y="2" on="1"/>
        <pt x="415" y="116" on="1"/>
        <pt x="208" y="116" on="1"/>
        <pt x="168" y="0" on="1"/>
        <pt x="7" y="0" on="1"/>
        <pt x="213" y="560" on="1"/>
        <pt x="416" y="560" on="1"/>
        <pt x="622" y="0" on="1"/>
        <pt x="557" y="-11" on="0"/>
        <pt x="505" y="-49" on="0"/>
        <pt x="505" y="-76" on="1"/>
        <pt x="505" y="-97" on="0"/>
        <pt x="534" y="-120" on="0"/>
        <pt x="560" y="-120" on="1"/>
        <pt x="591" y="-120" on="0"/>
        <pt x="606" y="-110" on="1"/>
      </contour>
      <contour>
        <pt x="376" y="230" on="1"/>
        <pt x="364" y="265" on="1"/>
        <pt x="313" y="436" on="1"/>
        <pt x="310" y="436" on="1"/>
        <pt x="259" y="265" on="1"/>
        <pt x="247" y="230" on="1"/>
      </contour>
    </TTGlyph>
    <TTGlyph name="approxequal" xMin="58" yMin="112" xMax="546" yMax="533">
      <contour>
        <pt x="222" y="533" on="0"/>
        <pt x="279" y="515" on="0"/>
        <pt x="317" y="498" on="1"/>
        <pt x="352" y="483" on="0"/>
        <pt x="392" y="470" on="0"/>
        <pt x="413" y="470" on="1"/>
        <pt x="452" y="470" on="0"/>
        <pt x="512" y="493" on="0"/>
        <pt x="546" y="523" on="1"/>
        <pt x="546" y="397" on="1"/>
        <pt x="516" y="371" on="0"/>
        <pt x="454" y="346" on="0"/>
        <pt x="418" y="346" on="1"/>
        <pt x="388" y="346" on="0"/>
        <pt x="335" y="362" on="0"/>
        <pt x="297" y="378" on="1"/>
        <pt x="262" y="393" on="0"/>
        <pt x="214" y="408" on="0"/>
        <pt x="189" y="408" on="1"/>
        <pt x="147" y="408" on="0"/>
        <pt x="89" y="384" on="0"/>
        <pt x="58" y="355" on="1"/>
        <pt x="58" y="481" on="1"/>
        <pt x="92" y="509" on="0"/>
        <pt x="149" y="533" on="0"/>
        <pt x="189" y="533" on="1"/>
      </contour>
      <contour>
        <pt x="221" y="299" on="0"/>
        <pt x="277" y="282" on="0"/>
        <pt x="317" y="265" on="1"/>
        <pt x="347" y="251" on="0"/>
        <pt x="391" y="237" on="0"/>
        <pt x="413" y="237" on="1"/>
        <pt x="452" y="237" on="0"/>
        <pt x="512" y="259" on="0"/>
        <pt x="546" y="289" on="1"/>
        <pt x="546" y="164" on="1"/>
        <pt x="516" y="137" on="0"/>
        <pt x="454" y="112" on="0"/>
        <pt x="418" y="112" on="1"/>
        <pt x="388" y="112" on="0"/>
        <pt x="335" y="128" on="0"/>
        <pt x="297" y="144" on="1"/>
        <pt x="262" y="159" on="0"/>
        <pt x="214" y="174" on="0"/>
        <pt x="189" y="174" on="1"/>
        <pt x="146" y="174" on="0"/>
        <pt x="89" y="150" on="0"/>
        <pt x="58" y="121" on="1"/>
        <pt x="58" y="247" on="1"/>
        <pt x="91" y="276" on="0"/>
        <pt x="148" y="299" on="0"/>
        <pt x="189" y="299" on="1"/>
      </contour>
    </TTGlyph>
    <TTGlyph name="aring" xMin="32" yMin="-10" xMax="575" yMax="793">
      <component glyphName="a" x="0" y="0" flags="0x0"/>
      <component glyphName="ring" x="25" y="0" flags="0x0"/>
    </TTGlyph>
    <TTGlyph name="aring.sc" xMin="7" yMin="0" xMax="622" yMax="761">
      <contour>
        <pt x="415" y="116" on="1"/>
        <pt x="210" y="116" on="1"/>
        <pt x="170" y="0" on="1"/>
        <pt x="7" y="0" on="1"/>
        <pt x="210" y="538" on="1"/>
        <pt x="165" y="569" on="0"/>
        <pt x="165" y="632" on="1"/>
        <pt x="165" y="690" on="0"/>
        <pt x="245" y="761" on="0"/>
        <pt x="315" y="761" on="1"/>
        <pt x="384" y="761" on="0"/>
        <pt x="464" y="690" on="0"/>
        <pt x="464" y="632" on="1"/>
        <pt x="464" y="571" on="0"/>
        <pt x="420" y="540" on="1"/>
        <pt x="622" y="0" on="1"/>
        <pt x="456" y="0" on="1"/>
      </contour>
      <contour>
        <pt x="288" y="682" on="0"/>
        <pt x="256" y="651" on="0"/>
        <pt x="256" y="626" on="1"/>
        <pt x="256" y="601" on="0"/>
        <pt x="288" y="570" on="0"/>
        <pt x="314" y="570" on="1"/>
        <pt x="341" y="570" on="0"/>
        <pt x="373" y="600" on="0"/>
        <pt x="373" y="626" on="1"/>
        <pt x="373" y="652" on="0"/>
        <pt x="341" y="682" on="0"/>
        <pt x="314" y="682" on="1"/>
      </contour>
      <contour>
        <pt x="375" y="230" on="1"/>
        <pt x="363" y="265" on="1"/>
        <pt x="315" y="430" on="1"/>
        <pt x="311" y="430" on="1"/>
        <pt x="261" y="265" on="1"/>
        <pt x="249" y="230" on="1"/>
      </contour>
    </TTGlyph>
    <TTGlyph name="arrowboth" xMin="29" yMin="4" xMax="1069" yMax="695">
      <contour>
        <pt x="846" y="576" on="0"/>
        <pt x="986" y="413" on="0"/>
        <pt x="1069" y="353" on="1"/>
        <pt x="1069" y="347" on="1"/>
        <pt x="985" y="286" on="0"/>
        <pt x="846" y="123" on="0"/>
        <pt x="774" y="4" on="1"/>
        <pt x="644" y="88" on="1"/>
        <pt x="719" y="203" on="0"/>
        <pt x="820" y="277" on="1"/>
        <pt x="731" y="265" on="0"/>
        <pt x="654" y="265" on="1"/>
        <pt x="444" y="265" on="1"/>
        <pt x="367" y="265" on="0"/>
        <pt x="278" y="277" on="1"/>
        <pt x="379" y="203" on="0"/>
        <pt x="454" y="88" on="1"/>
        <pt x="324" y="4" on="1"/>
        <pt x="252" y="123" on="0"/>
        <pt x="113" y="286" on="0"/>
        <pt x="29" y="347" on="1"/>
        <pt x="29" y="353" on="1"/>
        <pt x="112" y="413" on="0"/>
        <pt x="252" y="576" on="0"/>
        <pt x="324" y="695" on="1"/>
        <pt x="454" y="611" on="1"/>
        <pt x="379" y="497" on="0"/>
        <pt x="279" y="423" on="1"/>
        <pt x="366" y="435" on="0"/>
        <pt x="444" y="435" on="1"/>
        <pt x="654" y="435" on="1"/>
        <pt x="732" y="435" on="0"/>
        <pt x="819" y="423" on="1"/>
        <pt x="719" y="497" on="0"/>
        <pt x="644" y="611" on="1"/>
        <pt x="774" y="695" on="1"/>
      </contour>
    </TTGlyph>
    <TTGlyph name="arrowdown" xMin="30" yMin="-6" xMax="722" yMax="660">
      <contour>
        <pt x="722" y="289" on="1"/>
        <pt x="603" y="217" on="0"/>
        <pt x="440" y="78" on="0"/>
        <pt x="379" y="-6" on="1"/>
        <pt x="373" y="-6" on="1"/>
        <pt x="312" y="78" on="0"/>
        <pt x="149" y="217" on="0"/>
        <pt x="30" y="289" on="1"/>
        <pt x="118" y="416" on="1"/>
        <pt x="232" y="341" on="0"/>
        <pt x="304" y="242" on="1"/>
        <pt x="291" y="333" on="0"/>
        <pt x="291" y="425" on="1"/>
        <pt x="291" y="660" on="1"/>
        <pt x="461" y="660" on="1"/>
        <pt x="461" y="425" on="1"/>
        <pt x="461" y="333" on="0"/>
        <pt x="448" y="242" on="1"/>
        <pt x="520" y="341" on="0"/>
        <pt x="634" y="416" on="1"/>
      </contour>
    </TTGlyph>
    <TTGlyph name="arrowleft" xMin="29" yMin="-15" xMax="695" yMax="677">
      <contour>
        <pt x="695" y="416" on="1"/>
        <pt x="695" y="246" on="1"/>
        <pt x="460" y="246" on="1"/>
        <pt x="368" y="246" on="0"/>
        <pt x="277" y="259" on="1"/>
        <pt x="376" y="187" on="0"/>
        <pt x="451" y="73" on="1"/>
        <pt x="324" y="-15" on="1"/>
        <pt x="252" y="104" on="0"/>
        <pt x="113" y="267" on="0"/>
        <pt x="29" y="328" on="1"/>
        <pt x="29" y="334" on="1"/>
        <pt x="113" y="395" on="0"/>
        <pt x="252" y="558" on="0"/>
        <pt x="324" y="677" on="1"/>
        <pt x="451" y="589" on="1"/>
        <pt x="376" y="475" on="0"/>
        <pt x="277" y="403" on="1"/>
        <pt x="368" y="416" on="0"/>
        <pt x="460" y="416" on="1"/>
      </contour>
    </TTGlyph>
    <TTGlyph name="arrowright" xMin="55" yMin="-15" xMax="721" yMax="677">
      <contour>
        <pt x="498" y="558" on="0"/>
        <pt x="637" y="395" on="0"/>
        <pt x="721" y="334" on="1"/>
        <pt x="721" y="328" on="1"/>
        <pt x="637" y="267" on="0"/>
        <pt x="498" y="104" on="0"/>
        <pt x="426" y="-15" on="1"/>
        <pt x="299" y="73" on="1"/>
        <pt x="374" y="187" on="0"/>
        <pt x="473" y="259" on="1"/>
        <pt x="382" y="246" on="0"/>
        <pt x="290" y="246" on="1"/>
        <pt x="55" y="246" on="1"/>
        <pt x="55" y="416" on="1"/>
        <pt x="290" y="416" on="1"/>
        <pt x="382" y="416" on="0"/>
        <pt x="473" y="403" on="1"/>
        <pt x="374" y="475" on="0"/>
        <pt x="299" y="589" on="1"/>
        <pt x="426" y="677" on="1"/>
      </contour>
    </TTGlyph>
    <TTGlyph name="arrowup" xMin="28" yMin="0" xMax="720" yMax="666">
      <contour>
        <pt x="438" y="582" on="0"/>
        <pt x="601" y="443" on="0"/>
        <pt x="720" y="371" on="1"/>
        <pt x="632" y="244" on="1"/>
        <pt x="518" y="319" on="0"/>
        <pt x="446" y="418" on="1"/>
        <pt x="459" y="327" on="0"/>
        <pt x="459" y="235" on="1"/>
        <pt x="459" y="0" on="1"/>
        <pt x="289" y="0" on="1"/>
        <pt x="289" y="235" on="1"/>
        <pt x="289" y="327" on="0"/>
        <pt x="302" y="418" on="1"/>
        <pt x="230" y="319" on="0"/>
        <pt x="116" y="244" on="1"/>
        <pt x="28" y="371" on="1"/>
        <pt x="147" y="443" on="0"/>
        <pt x="310" y="582" on="0"/>
        <pt x="371" y="666" on="1"/>
        <pt x="377" y="666" on="1"/>
      </contour>
    </TTGlyph>
    <TTGlyph name="arrowupdn" xMin="29" yMin="-190" xMax="720" yMax="850">
      <contour>
        <pt x="522" y="160" on="0"/>
        <pt x="636" y="235" on="1"/>
        <pt x="720" y="105" on="1"/>
        <pt x="601" y="33" on="0"/>
        <pt x="438" y="-107" on="0"/>
        <pt x="378" y="-190" on="1"/>
        <pt x="372" y="-190" on="1"/>
        <pt x="311" y="-106" on="0"/>
        <pt x="148" y="33" on="0"/>
        <pt x="29" y="105" on="1"/>
        <pt x="113" y="235" on="1"/>
        <pt x="228" y="160" on="0"/>
        <pt x="302" y="59" on="1"/>
        <pt x="290" y="148" on="0"/>
        <pt x="290" y="225" on="1"/>
        <pt x="290" y="435" on="1"/>
        <pt x="290" y="512" on="0"/>
        <pt x="302" y="601" on="1"/>
        <pt x="228" y="500" on="0"/>
        <pt x="113" y="425" on="1"/>
        <pt x="29" y="555" on="1"/>
        <pt x="148" y="627" on="0"/>
        <pt x="311" y="766" on="0"/>
        <pt x="372" y="850" on="1"/>
        <pt x="378" y="850" on="1"/>
        <pt x="438" y="767" on="0"/>
        <pt x="601" y="627" on="0"/>
        <pt x="720" y="555" on="1"/>
        <pt x="636" y="425" on="1"/>
        <pt x="522" y="500" on="0"/>
        <pt x="448" y="600" on="1"/>
        <pt x="460" y="513" on="0"/>
        <pt x="460" y="435" on="1"/>
        <pt x="460" y="225" on="1"/>
        <pt x="460" y="147" on="0"/>
        <pt x="448" y="60" on="1"/>
      </contour>
    </TTGlyph>
    <TTGlyph name="asciicircum" xMin="25" yMin="355" xMax="588" yMax="724">
      <contour>
        <pt x="438" y="355" on="1"/>
        <pt x="306" y="615" on="1"/>
        <pt x="175" y="355" on="1"/>
        <pt x="25" y="355" on="1"/>
        <pt x="234" y="724" on="1"/>
        <pt x="378" y="724" on="1"/>
        <pt x="588" y="355" on="1"/>
      </contour>
    </TTGlyph>
    <TTGlyph name="asciitilde" xMin="43" yMin="231" xMax="554" yMax="430">
      <contour>
        <pt x="549" y="329" on="0"/>
        <pt x="468" y="231" on="0"/>
        <pt x="393" y="231" on="1"/>
        <pt x="357" y="231" on="0"/>
        <pt x="307" y="252" on="0"/>
        <pt x="280" y="271" on="1"/>
        <pt x="262" y="283" on="0"/>
        <pt x="237" y="295" on="0"/>
        <pt x="223" y="295" on="1"/>
        <pt x="202" y="295" on="0"/>
        <pt x="180" y="266" on="0"/>
        <pt x="175" y="236" on="1"/>
        <pt x="43" y="236" on="1"/>
        <pt x="48" y="331" on="0"/>
        <pt x="129" y="430" on="0"/>
        <pt x="204" y="430" on="1"/>
        <pt x="240" y="430" on="0"/>
        <pt x="290" y="409" on="0"/>
        <pt x="318" y="390" on="1"/>
        <pt x="336" y="378" on="0"/>
        <pt x="360" y="366" on="0"/>
        <pt x="374" y="366" on="1"/>
        <pt x="395" y="366" on="0"/>
        <pt x="417" y="395" on="0"/>
        <pt x="422" y="425" on="1"/>
        <pt x="554" y="425" on="1"/>
      </contour>
    </TTGlyph>
    <TTGlyph name="asterisk" xMin="39" yMin="244" xMax="550" yMax="730">
      <contour>
        <pt x="406" y="424" on="1"/>
        <pt x="489" y="315" on="1"/>
        <pt x="391" y="244" on="1"/>
        <pt x="313" y="357" on="1"/>
        <pt x="294" y="399" on="1"/>
        <pt x="274" y="357" on="1"/>
        <pt x="196" y="244" on="1"/>
        <pt x="99" y="315" on="1"/>
        <pt x="182" y="424" on="1"/>
        <pt x="216" y="456" on="1"/>
        <pt x="169" y="461" on="1"/>
        <pt x="39" y="500" on="1"/>
        <pt x="76" y="615" on="1"/>
        <pt x="205" y="570" on="1"/>
        <pt x="246" y="547" on="1"/>
        <pt x="237" y="593" on="1"/>
        <pt x="233" y="730" on="1"/>
        <pt x="354" y="730" on="1"/>
        <pt x="351" y="593" on="1"/>
        <pt x="342" y="547" on="1"/>
        <pt x="383" y="570" on="1"/>
        <pt x="513" y="615" on="1"/>
        <pt x="550" y="500" on="1"/>
        <pt x="418" y="461" on="1"/>
        <pt x="372" y="456" on="1"/>
      </contour>
    </TTGlyph>
    <TTGlyph name="at" xMin="49" yMin="-184" xMax="895" yMax="660">
      <contour>
        <pt x="617" y="660" on="0"/>
        <pt x="798" y="564" on="0"/>
        <pt x="895" y="384" on="0"/>
        <pt x="895" y="260" on="1"/>
        <pt x="895" y="174" on="0"/>
        <pt x="837" y="56" on="0"/>
        <pt x="741" y="0" on="0"/>
        <pt x="685" y="0" on="1"/>
        <pt x="633" y="0" on="0"/>
        <pt x="563" y="45" on="0"/>
        <pt x="546" y="85" on="1"/>
        <pt x="491" y="2" on="0"/>
        <pt x="392" y="2" on="1"/>
        <pt x="318" y="2" on="0"/>
        <pt x="230" y="107" on="0"/>
        <pt x="230" y="191" on="1"/>
        <pt x="230" y="280" on="0"/>
        <pt x="292" y="404" on="0"/>
        <pt x="397" y="467" on="0"/>
        <pt x="461" y="467" on="1"/>
        <pt x="510" y="467" on="0"/>
        <pt x="565" y="421" on="0"/>
        <pt x="573" y="390" on="1"/>
        <pt x="594" y="458" on="1"/>
        <pt x="716" y="458" on="1"/>
        <pt x="671" y="171" on="1"/>
        <pt x="669" y="160" on="0"/>
        <pt x="669" y="142" on="1"/>
        <pt x="669" y="113" on="0"/>
        <pt x="694" y="86" on="0"/>
        <pt x="723" y="86" on="1"/>
        <pt x="765" y="86" on="0"/>
        <pt x="817" y="176" on="0"/>
        <pt x="817" y="260" on="1"/>
        <pt x="817" y="417" on="0"/>
        <pt x="645" y="585" on="0"/>
        <pt x="493" y="585" on="1"/>
        <pt x="386" y="585" on="0"/>
        <pt x="223" y="498" on="0"/>
        <pt x="134" y="334" on="0"/>
        <pt x="134" y="223" on="1"/>
        <pt x="134" y="118" on="0"/>
        <pt x="223" y="-32" on="0"/>
        <pt x="371" y="-110" on="0"/>
        <pt x="458" y="-110" on="1"/>
        <pt x="534" y="-110" on="0"/>
        <pt x="622" y="-81" on="0"/>
        <pt x="659" y="-53" on="1"/>
        <pt x="702" y="-113" on="1"/>
        <pt x="652" y="-148" on="0"/>
        <pt x="544" y="-184" on="0"/>
        <pt x="455" y="-184" on="1"/>
        <pt x="338" y="-184" on="0"/>
        <pt x="153" y="-86" on="0"/>
        <pt x="49" y="98" on="0"/>
        <pt x="49" y="223" on="1"/>
        <pt x="49" y="352" on="0"/>
        <pt x="162" y="551" on="0"/>
        <pt x="364" y="660" on="0"/>
        <pt x="493" y="660" on="1"/>
      </contour>
      <contour>
        <pt x="435" y="357" on="0"/>
        <pt x="376" y="278" on="0"/>
        <pt x="376" y="211" on="1"/>
        <pt x="376" y="166" on="0"/>
        <pt x="411" y="118" on="0"/>
        <pt x="445" y="118" on="1"/>
        <pt x="476" y="118" on="0"/>
        <pt x="524" y="157" on="0"/>
        <pt x="529" y="193" on="1"/>
        <pt x="540" y="274" on="1"/>
        <pt x="541" y="281" on="0"/>
        <pt x="541" y="294" on="1"/>
        <pt x="541" y="357" on="0"/>
        <pt x="480" y="357" on="1"/>
      </contour>
    </TTGlyph>
    <TTGlyph name="at.case" xMin="49" yMin="-93" xMax="895" yMax="751">
      <component glyphName="at" x="0" y="91" flags="0x4"/>
    </TTGlyph>
    <TTGlyph name="atilde" xMin="32" yMin="-10" xMax="575" yMax="719">
      <component glyphName="a" x="0" y="0" flags="0x0"/>
      <component glyphName="tilde" x="26" y="0" flags="0x0"/>
    </TTGlyph>
    <TTGlyph name="atilde.sc" xMin="7" yMin="0" xMax="622" yMax="779">
      <component glyphName="a.sc" x="0" y="0" flags="0x0"/>
      <component glyphName="tilde" x="64" y="60" flags="0x4"/>
    </TTGlyph>
    <TTGlyph name="b" xMin="61" yMin="-10" xMax="588" yMax="712">
      <contour>
        <pt x="478" y="510" on="0"/>
        <pt x="588" y="372" on="0"/>
        <pt x="588" y="248" on="1"/>
        <pt x="588" y="126" on="0"/>
        <pt x="480" y="-10" on="0"/>
        <pt x="382" y="-10" on="1"/>
        <pt x="322" y="-10" on="0"/>
        <pt x="236" y="53" on="0"/>
        <pt x="215" y="106" on="1"/>
        <pt x="210" y="0" on="1"/>
        <pt x="61" y="0" on="1"/>
        <pt x="61" y="712" on="1"/>
        <pt x="231" y="712" on="1"/>
        <pt x="231" y="417" on="1"/>
        <pt x="253" y="461" on="0"/>
        <pt x="330" y="510" on="0"/>
        <pt x="382" y="510" on="1"/>
      </contour>
      <contour>
        <pt x="368" y="115" on="0"/>
        <pt x="417" y="181" on="0"/>
        <pt x="417" y="250" on="1"/>
        <pt x="417" y="319" on="0"/>
        <pt x="368" y="385" on="0"/>
        <pt x="323" y="385" on="1"/>
        <pt x="279" y="385" on="0"/>
        <pt x="231" y="317" on="0"/>
        <pt x="231" y="255" on="1"/>
        <pt x="231" y="245" on="1"/>
        <pt x="231" y="181" on="0"/>
        <pt x="280" y="115" on="0"/>
        <pt x="323" y="115" on="1"/>
      </contour>
    </TTGlyph>
    <TTGlyph name="b.sc" xMin="69" yMin="0" xMax="591" yMax="560">
      <contour>
        <pt x="69" y="560" on="1"/>
        <pt x="371" y="560" on="1"/>
        <pt x="576" y="559" on="0"/>
        <pt x="576" y="409" on="1"/>
        <pt x="576" y="360" on="0"/>
        <pt x="517" y="292" on="0"/>
        <pt x="461" y="282" on="1"/>
        <pt x="461" y="279" on="1"/>
        <pt x="525" y="272" on="0"/>
        <pt x="591" y="204" on="0"/>
        <pt x="591" y="150" on="1"/>
        <pt x="591" y="77" on="0"/>
        <pt x="486" y="0" on="0"/>
        <pt x="384" y="0" on="1"/>
        <pt x="69" y="0" on="1"/>
      </contour>
      <contour>
        <pt x="332" y="333" on="1"/>
        <pt x="371" y="333" on="0"/>
        <pt x="408" y="361" on="0"/>
        <pt x="408" y="391" on="1"/>
        <pt x="408" y="421" on="0"/>
        <pt x="371" y="450" on="0"/>
        <pt x="332" y="450" on="1"/>
        <pt x="229" y="450" on="1"/>
        <pt x="229" y="333" on="1"/>
      </contour>
      <contour>
        <pt x="349" y="110" on="1"/>
        <pt x="423" y="110" on="0"/>
        <pt x="423" y="169" on="1"/>
        <pt x="423" y="229" on="0"/>
        <pt x="349" y="229" on="1"/>
        <pt x="229" y="229" on="1"/>
        <pt x="229" y="110" on="1"/>
      </contour>
    </TTGlyph>
    <TTGlyph name="backslash" xMin="15" yMin="-70" xMax="453" yMax="712">
      <contour>
        <pt x="173" y="712" on="1"/>
        <pt x="453" y="-70" on="1"/>
        <pt x="295" y="-70" on="1"/>
        <pt x="15" y="712" on="1"/>
      </contour>
    </TTGlyph>
    <TTGlyph name="bar" xMin="85" yMin="-168" xMax="235" yMax="713">
      <contour>
        <pt x="235" y="-168" on="1"/>
        <pt x="85" y="-168" on="1"/>
        <pt x="85" y="713" on="1"/>
        <pt x="235" y="713" on="1"/>
      </contour>
    </TTGlyph>
    <TTGlyph name="bar.case" xMin="85" yMin="-97" xMax="235" yMax="752">
      <contour>
        <pt x="235" y="-97" on="1"/>
        <pt x="85" y="-97" on="1"/>
        <pt x="85" y="752" on="1"/>
        <pt x="235" y="752" on="1"/>
      </contour>
    </TTGlyph>
    <TTGlyph name="braceleft" xMin="41" yMin="-191" xMax="396" yMax="736">
      <contour>
        <pt x="289" y="-44" on="0"/>
        <pt x="340" y="-83" on="0"/>
        <pt x="396" y="-83" on="1"/>
        <pt x="391" y="-191" on="1"/>
        <pt x="304" y="-191" on="0"/>
        <pt x="200" y="-158" on="0"/>
        <pt x="153" y="-84" on="0"/>
        <pt x="153" y="-21" on="1"/>
        <pt x="153" y="113" on="1"/>
        <pt x="153" y="169" on="0"/>
        <pt x="102" y="217" on="0"/>
        <pt x="41" y="217" on="1"/>
        <pt x="41" y="327" on="1"/>
        <pt x="102" y="327" on="0"/>
        <pt x="153" y="375" on="0"/>
        <pt x="153" y="431" on="1"/>
        <pt x="153" y="566" on="1"/>
        <pt x="153" y="628" on="0"/>
        <pt x="200" y="702" on="0"/>
        <pt x="304" y="736" on="0"/>
        <pt x="391" y="736" on="1"/>
        <pt x="396" y="628" on="1"/>
        <pt x="340" y="628" on="0"/>
        <pt x="289" y="590" on="0"/>
        <pt x="289" y="547" on="1"/>
        <pt x="289" y="396" on="1"/>
        <pt x="289" y="346" on="0"/>
        <pt x="239" y="287" on="0"/>
        <pt x="188" y="272" on="1"/>
        <pt x="238" y="258" on="0"/>
        <pt x="289" y="198" on="0"/>
        <pt x="289" y="149" on="1"/>
        <pt x="289" y="-1" on="1"/>
      </contour>
    </TTGlyph>
    <TTGlyph name="braceleft.case" xMin="41" yMin="-119" xMax="396" yMax="777">
      <contour>
        <pt x="289" y="28" on="0"/>
        <pt x="340" y="-11" on="0"/>
        <pt x="396" y="-11" on="1"/>
        <pt x="391" y="-119" on="1"/>
        <pt x="304" y="-119" on="0"/>
        <pt x="200" y="-85" on="0"/>
        <pt x="153" y="-11" on="0"/>
        <pt x="153" y="51" on="1"/>
        <pt x="153" y="170" on="1"/>
        <pt x="153" y="226" on="0"/>
        <pt x="102" y="274" on="0"/>
        <pt x="41" y="274" on="1"/>
        <pt x="41" y="384" on="1"/>
        <pt x="102" y="384" on="0"/>
        <pt x="153" y="432" on="0"/>
        <pt x="153" y="488" on="1"/>
        <pt x="153" y="607" on="1"/>
        <pt x="153" y="669" on="0"/>
        <pt x="200" y="743" on="0"/>
        <pt x="304" y="777" on="0"/>
        <pt x="391" y="777" on="1"/>
        <pt x="396" y="668" on="1"/>
        <pt x="340" y="668" on="0"/>
        <pt x="289" y="630" on="0"/>
        <pt x="289" y="587" on="1"/>
        <pt x="289" y="452" on="1"/>
        <pt x="289" y="403" on="0"/>
        <pt x="239" y="344" on="0"/>
        <pt x="190" y="329" on="1"/>
        <pt x="239" y="314" on="0"/>
        <pt x="289" y="255" on="0"/>
        <pt x="289" y="206" on="1"/>
        <pt x="289" y="71" on="1"/>
      </contour>
    </TTGlyph>
    <TTGlyph name="braceright" xMin="24" yMin="-191" xMax="379" yMax="736">
      <contour>
        <pt x="267" y="375" on="0"/>
        <pt x="318" y="327" on="0"/>
        <pt x="379" y="327" on="1"/>
        <pt x="379" y="217" on="1"/>
        <pt x="318" y="217" on="0"/>
        <pt x="267" y="169" on="0"/>
        <pt x="267" y="113" on="1"/>
        <pt x="267" y="-21" on="1"/>
        <pt x="267" y="-84" on="0"/>
        <pt x="220" y="-158" on="0"/>
        <pt x="116" y="-191" on="0"/>
        <pt x="29" y="-191" on="1"/>
        <pt x="24" y="-83" on="1"/>
        <pt x="80" y="-83" on="0"/>
        <pt x="131" y="-44" on="0"/>
        <pt x="131" y="-1" on="1"/>
        <pt x="131" y="149" on="1"/>
        <pt x="131" y="198" on="0"/>
        <pt x="182" y="258" on="0"/>
        <pt x="232" y="272" on="1"/>
        <pt x="181" y="287" on="0"/>
        <pt x="131" y="346" on="0"/>
        <pt x="131" y="396" on="1"/>
        <pt x="131" y="547" on="1"/>
        <pt x="131" y="590" on="0"/>
        <pt x="80" y="628" on="0"/>
        <pt x="24" y="628" on="1"/>
        <pt x="29" y="736" on="1"/>
        <pt x="116" y="736" on="0"/>
        <pt x="220" y="702" on="0"/>
        <pt x="267" y="628" on="0"/>
        <pt x="267" y="566" on="1"/>
        <pt x="267" y="431" on="1"/>
      </contour>
    </TTGlyph>
    <TTGlyph name="braceright.case" xMin="24" yMin="-119" xMax="379" yMax="777">
      <contour>
        <pt x="267" y="432" on="0"/>
        <pt x="318" y="384" on="0"/>
        <pt x="379" y="384" on="1"/>
        <pt x="379" y="274" on="1"/>
        <pt x="318" y="274" on="0"/>
        <pt x="267" y="226" on="0"/>
        <pt x="267" y="170" on="1"/>
        <pt x="267" y="51" on="1"/>
        <pt x="267" y="-11" on="0"/>
        <pt x="220" y="-85" on="0"/>
        <pt x="116" y="-119" on="0"/>
        <pt x="29" y="-119" on="1"/>
        <pt x="24" y="-11" on="1"/>
        <pt x="80" y="-11" on="0"/>
        <pt x="131" y="28" on="0"/>
        <pt x="131" y="71" on="1"/>
        <pt x="131" y="206" on="1"/>
        <pt x="131" y="255" on="0"/>
        <pt x="181" y="314" on="0"/>
        <pt x="230" y="329" on="1"/>
        <pt x="181" y="344" on="0"/>
        <pt x="131" y="403" on="0"/>
        <pt x="131" y="452" on="1"/>
        <pt x="131" y="587" on="1"/>
        <pt x="131" y="630" on="0"/>
        <pt x="80" y="668" on="0"/>
        <pt x="24" y="668" on="1"/>
        <pt x="29" y="777" on="1"/>
        <pt x="116" y="777" on="0"/>
        <pt x="220" y="743" on="0"/>
        <pt x="267" y="669" on="0"/>
        <pt x="267" y="607" on="1"/>
        <pt x="267" y="488" on="1"/>
      </contour>
    </TTGlyph>
    <TTGlyph name="bracketleft" xMin="85" yMin="-168" xMax="365" yMax="713">
      <contour>
        <pt x="232" y="594" on="1"/>
        <pt x="232" y="-49" on="1"/>
        <pt x="365" y="-49" on="1"/>
        <pt x="365" y="-168" on="1"/>
        <pt x="85" y="-168" on="1"/>
        <pt x="85" y="713" on="1"/>
        <pt x="365" y="713" on="1"/>
        <pt x="365" y="594" on="1"/>
      </contour>
    </TTGlyph>
    <TTGlyph name="bracketleft.case" xMin="85" yMin="-97" xMax="365" yMax="752">
      <contour>
        <pt x="232" y="633" on="1"/>
        <pt x="232" y="22" on="1"/>
        <pt x="365" y="22" on="1"/>
        <pt x="365" y="-97" on="1"/>
        <pt x="85" y="-97" on="1"/>
        <pt x="85" y="752" on="1"/>
        <pt x="365" y="752" on="1"/>
        <pt x="365" y="633" on="1"/>
      </contour>
    </TTGlyph>
    <TTGlyph name="bracketleftinferior" xMin="54" yMin="-269" xMax="239" yMax="288">
      <component glyphName="bracketleftsuperior" x="0" y="-522" flags="0x4"/>
    </TTGlyph>
    <TTGlyph name="bracketleftsuperior" xMin="54" yMin="253" xMax="239" yMax="810">
      <contour>
        <pt x="156" y="726" on="1"/>
        <pt x="156" y="337" on="1"/>
        <pt x="239" y="337" on="1"/>
        <pt x="239" y="253" on="1"/>
        <pt x="54" y="253" on="1"/>
        <pt x="54" y="810" on="1"/>
        <pt x="239" y="810" on="1"/>
        <pt x="239" y="726" on="1"/>
      </contour>
    </TTGlyph>
    <TTGlyph name="bracketright" xMin="26" yMin="-168" xMax="306" yMax="713">
      <contour>
        <pt x="306" y="-168" on="1"/>
        <pt x="26" y="-168" on="1"/>
        <pt x="26" y="-49" on="1"/>
        <pt x="159" y="-49" on="1"/>
        <pt x="159" y="594" on="1"/>
        <pt x="26" y="594" on="1"/>
        <pt x="26" y="713" on="1"/>
        <pt x="306" y="713" on="1"/>
      </contour>
    </TTGlyph>
    <TTGlyph name="bracketright.case" xMin="26" yMin="-97" xMax="306" yMax="752">
      <contour>
        <pt x="306" y="-97" on="1"/>
        <pt x="26" y="-97" on="1"/>
        <pt x="26" y="22" on="1"/>
        <pt x="159" y="22" on="1"/>
        <pt x="159" y="633" on="1"/>
        <pt x="26" y="633" on="1"/>
        <pt x="26" y="752" on="1"/>
        <pt x="306" y="752" on="1"/>
      </contour>
    </TTGlyph>
    <TTGlyph name="bracketrightinferior" xMin="13" yMin="-269" xMax="198" yMax="288">
      <component glyphName="bracketrightsuperior" x="0" y="-522" flags="0x4"/>
    </TTGlyph>
    <TTGlyph name="bracketrightsuperior" xMin="13" yMin="253" xMax="198" yMax="810">
      <contour>
        <pt x="198" y="253" on="1"/>
        <pt x="13" y="253" on="1"/>
        <pt x="13" y="337" on="1"/>
        <pt x="96" y="337" on="1"/>
        <pt x="96" y="726" on="1"/>
        <pt x="13" y="726" on="1"/>
        <pt x="13" y="810" on="1"/>
        <pt x="198" y="810" on="1"/>
      </contour>
    </TTGlyph>
    <TTGlyph name="breve" xMin="81" yMin="555" xMax="419" yMax="718">
      <contour>
        <pt x="419" y="642" on="0"/>
        <pt x="329" y="555" on="0"/>
        <pt x="250" y="555" on="1"/>
        <pt x="171" y="555" on="0"/>
        <pt x="81" y="642" on="0"/>
        <pt x="81" y="718" on="1"/>
        <pt x="191" y="718" on="1"/>
        <pt x="191" y="687" on="0"/>
        <pt x="223" y="650" on="0"/>
        <pt x="250" y="650" on="1"/>
        <pt x="277" y="650" on="0"/>
        <pt x="309" y="687" on="0"/>
        <pt x="309" y="718" on="1"/>
        <pt x="419" y="718" on="1"/>
      </contour>
    </TTGlyph>
    <TTGlyph name="brokenbar" xMin="61" yMin="-168" xMax="211" yMax="713">
      <contour>
        <pt x="211" y="333" on="1"/>
        <pt x="61" y="333" on="1"/>
        <pt x="61" y="713" on="1"/>
        <pt x="211" y="713" on="1"/>
      </contour>
      <contour>
        <pt x="211" y="-168" on="1"/>
        <pt x="61" y="-168" on="1"/>
        <pt x="61" y="212" on="1"/>
        <pt x="211" y="212" on="1"/>
      </contour>
    </TTGlyph>
    <TTGlyph name="bullet" xMin="61" yMin="184" xMax="369" yMax="481">
      <contour>
        <pt x="286" y="481" on="0"/>
        <pt x="369" y="401" on="0"/>
        <pt x="369" y="333" on="1"/>
        <pt x="369" y="264" on="0"/>
        <pt x="286" y="184" on="0"/>
        <pt x="215" y="184" on="1"/>
        <pt x="144" y="184" on="0"/>
        <pt x="61" y="264" on="0"/>
        <pt x="61" y="333" on="1"/>
        <pt x="61" y="401" on="0"/>
        <pt x="144" y="481" on="0"/>
        <pt x="215" y="481" on="1"/>
      </contour>
    </TTGlyph>
    <TTGlyph name="c" xMin="37" yMin="-10" xMax="542" yMax="510">
      <contour>
        <pt x="413" y="510" on="0"/>
        <pt x="527" y="424" on="0"/>
        <pt x="541" y="355" on="1"/>
        <pt x="383" y="303" on="1"/>
        <pt x="373" y="389" on="0"/>
        <pt x="306" y="389" on="1"/>
        <pt x="207" y="389" on="0"/>
        <pt x="207" y="248" on="1"/>
        <pt x="207" y="111" on="0"/>
        <pt x="306" y="111" on="1"/>
        <pt x="377" y="111" on="0"/>
        <pt x="389" y="192" on="1"/>
        <pt x="542" y="143" on="1"/>
        <pt x="531" y="75" on="0"/>
        <pt x="408" y="-10" on="0"/>
        <pt x="307" y="-10" on="1"/>
        <pt x="177" y="-10" on="0"/>
        <pt x="37" y="126" on="0"/>
        <pt x="37" y="250" on="1"/>
        <pt x="37" y="373" on="0"/>
        <pt x="176" y="510" on="0"/>
        <pt x="300" y="510" on="1"/>
      </contour>
    </TTGlyph>
    <TTGlyph name="c.sc" xMin="40" yMin="-8" xMax="590" yMax="568">
      <contour>
        <pt x="577" y="87" on="0"/>
        <pt x="437" y="-8" on="0"/>
        <pt x="327" y="-8" on="1"/>
        <pt x="192" y="-8" on="0"/>
        <pt x="40" y="144" on="0"/>
        <pt x="40" y="280" on="1"/>
        <pt x="40" y="417" on="0"/>
        <pt x="195" y="568" on="0"/>
        <pt x="333" y="568" on="1"/>
        <pt x="431" y="568" on="0"/>
        <pt x="569" y="477" on="0"/>
        <pt x="585" y="393" on="1"/>
        <pt x="432" y="348" on="1"/>
        <pt x="426" y="396" on="0"/>
        <pt x="374" y="438" on="0"/>
        <pt x="331" y="438" on="1"/>
        <pt x="275" y="438" on="0"/>
        <pt x="210" y="358" on="0"/>
        <pt x="210" y="280" on="1"/>
        <pt x="210" y="202" on="0"/>
        <pt x="274" y="122" on="0"/>
        <pt x="332" y="122" on="1"/>
        <pt x="381" y="122" on="0"/>
        <pt x="434" y="164" on="0"/>
        <pt x="439" y="209" on="1"/>
        <pt x="590" y="168" on="1"/>
      </contour>
    </TTGlyph>
    <TTGlyph name="c_t" xMin="37" yMin="-10" xMax="941" yMax="724">
      <contour>
        <pt x="941" y="28" on="1"/>
        <pt x="916" y="11" on="0"/>
        <pt x="839" y="-10" on="0"/>
        <pt x="800" y="-10" on="1"/>
        <pt x="711" y="-10" on="0"/>
        <pt x="616" y="66" on="0"/>
        <pt x="616" y="150" on="1"/>
        <pt x="616" y="511" on="1"/>
        <pt x="616" y="559" on="0"/>
        <pt x="581" y="604" on="0"/>
        <pt x="554" y="604" on="1"/>
        <pt x="494" y="604" on="0"/>
        <pt x="494" y="521" on="1"/>
        <pt x="494" y="454" on="0"/>
        <pt x="540" y="355" on="1"/>
        <pt x="383" y="303" on="1"/>
        <pt x="371" y="389" on="0"/>
        <pt x="306" y="389" on="1"/>
        <pt x="207" y="389" on="0"/>
        <pt x="207" y="248" on="1"/>
        <pt x="207" y="111" on="0"/>
        <pt x="306" y="111" on="1"/>
        <pt x="373" y="111" on="0"/>
        <pt x="389" y="192" on="1"/>
        <pt x="541" y="143" on="1"/>
        <pt x="531" y="75" on="0"/>
        <pt x="409" y="-10" on="0"/>
        <pt x="307" y="-10" on="1"/>
        <pt x="177" y="-10" on="0"/>
        <pt x="37" y="126" on="0"/>
        <pt x="37" y="250" on="1"/>
        <pt x="37" y="373" on="0"/>
        <pt x="176" y="510" on="0"/>
        <pt x="300" y="510" on="1"/>
        <pt x="340" y="510" on="0"/>
        <pt x="379" y="497" on="1"/>
        <pt x="368" y="522" on="0"/>
        <pt x="368" y="555" on="1"/>
        <pt x="368" y="636" on="0"/>
        <pt x="477" y="724" on="0"/>
        <pt x="569" y="724" on="1"/>
        <pt x="625" y="724" on="0"/>
        <pt x="724" y="686" on="0"/>
        <pt x="786" y="604" on="0"/>
        <pt x="786" y="541" on="1"/>
        <pt x="786" y="500" on="1"/>
        <pt x="936" y="500" on="1"/>
        <pt x="936" y="379" on="1"/>
        <pt x="786" y="379" on="1"/>
        <pt x="786" y="178" on="1"/>
        <pt x="786" y="111" on="0"/>
        <pt x="852" y="111" on="1"/>
        <pt x="893" y="111" on="0"/>
        <pt x="924" y="133" on="1"/>
      </contour>
    </TTGlyph>
    <TTGlyph name="cacute" xMin="37" yMin="-10" xMax="542" yMax="738">
      <component glyphName="c" x="0" y="0" flags="0x0"/>
      <component glyphName="acute" x="37" y="0" flags="0x0"/>
    </TTGlyph>
    <TTGlyph name="cacute.sc" xMin="40" yMin="-8" xMax="590" yMax="786">
      <component glyphName="c.sc" x="0" y="0" flags="0x0"/>
      <component glyphName="acutecomb.cap" x="336" y="-100" flags="0x4"/>
    </TTGlyph>
    <TTGlyph name="caron" xMin="59" yMin="565" xMax="441" yMax="738">
      <contour>
        <pt x="332" y="565" on="1"/>
        <pt x="168" y="565" on="1"/>
        <pt x="59" y="738" on="1"/>
        <pt x="181" y="738" on="1"/>
        <pt x="250" y="649" on="1"/>
        <pt x="319" y="738" on="1"/>
        <pt x="441" y="738" on="1"/>
      </contour>
    </TTGlyph>
    <TTGlyph name="ccaron" xMin="37" yMin="-10" xMax="542" yMax="738">
      <component glyphName="c" x="0" y="0" flags="0x0"/>
      <component glyphName="caron" x="43" y="0" flags="0x0"/>
    </TTGlyph>
    <TTGlyph name="ccaron.sc" xMin="40" yMin="-8" xMax="590" yMax="786">
      <component glyphName="c.sc" x="0" y="0" flags="0x0"/>
      <component glyphName="uni030C.cap" x="336" y="-100" flags="0x4"/>
    </TTGlyph>
    <TTGlyph name="ccedilla" xMin="37" yMin="-215" xMax="542" yMax="510">
      <contour>
        <pt x="534" y="90" on="0"/>
        <pt x="452" y="13" on="0"/>
        <pt x="385" y="-2" on="1"/>
        <pt x="412" y="-20" on="0"/>
        <pt x="439" y="-70" on="0"/>
        <pt x="439" y="-97" on="1"/>
        <pt x="439" y="-154" on="0"/>
        <pt x="361" y="-215" on="0"/>
        <pt x="296" y="-215" on="1"/>
        <pt x="215" y="-215" on="0"/>
        <pt x="172" y="-175" on="1"/>
        <pt x="211" y="-96" on="1"/>
        <pt x="239" y="-124" on="0"/>
        <pt x="283" y="-124" on="1"/>
        <pt x="308" y="-124" on="0"/>
        <pt x="338" y="-98" on="0"/>
        <pt x="338" y="-75" on="1"/>
        <pt x="338" y="-53" on="0"/>
        <pt x="307" y="-21" on="0"/>
        <pt x="268" y="-8" on="1"/>
        <pt x="156" y="2" on="0"/>
        <pt x="37" y="136" on="0"/>
        <pt x="37" y="250" on="1"/>
        <pt x="37" y="373" on="0"/>
        <pt x="176" y="510" on="0"/>
        <pt x="300" y="510" on="1"/>
        <pt x="413" y="510" on="0"/>
        <pt x="527" y="424" on="0"/>
        <pt x="541" y="355" on="1"/>
        <pt x="383" y="303" on="1"/>
        <pt x="373" y="389" on="0"/>
        <pt x="306" y="389" on="1"/>
        <pt x="207" y="389" on="0"/>
        <pt x="207" y="248" on="1"/>
        <pt x="207" y="111" on="0"/>
        <pt x="306" y="111" on="1"/>
        <pt x="377" y="111" on="0"/>
        <pt x="389" y="192" on="1"/>
        <pt x="542" y="143" on="1"/>
      </contour>
    </TTGlyph>
    <TTGlyph name="ccedilla.sc" xMin="40" yMin="-215" xMax="590" yMax="568">
      <contour>
        <pt x="579" y="104" on="0"/>
        <pt x="485" y="16" on="0"/>
        <pt x="408" y="0" on="1"/>
        <pt x="436" y="-18" on="0"/>
        <pt x="465" y="-69" on="0"/>
        <pt x="465" y="-97" on="1"/>
        <pt x="465" y="-154" on="0"/>
        <pt x="387" y="-215" on="0"/>
        <pt x="322" y="-215" on="1"/>
        <pt x="241" y="-215" on="0"/>
        <pt x="198" y="-175" on="1"/>
        <pt x="237" y="-96" on="1"/>
        <pt x="265" y="-124" on="0"/>
        <pt x="309" y="-124" on="1"/>
        <pt x="334" y="-124" on="0"/>
        <pt x="364" y="-98" on="0"/>
        <pt x="364" y="-75" on="1"/>
        <pt x="364" y="-52" on="0"/>
        <pt x="330" y="-19" on="0"/>
        <pt x="287" y="-6" on="1"/>
        <pt x="170" y="5" on="0"/>
        <pt x="40" y="155" on="0"/>
        <pt x="40" y="280" on="1"/>
        <pt x="40" y="417" on="0"/>
        <pt x="195" y="568" on="0"/>
        <pt x="333" y="568" on="1"/>
        <pt x="431" y="568" on="0"/>
        <pt x="569" y="477" on="0"/>
        <pt x="585" y="393" on="1"/>
        <pt x="432" y="348" on="1"/>
        <pt x="426" y="396" on="0"/>
        <pt x="374" y="438" on="0"/>
        <pt x="331" y="438" on="1"/>
        <pt x="275" y="438" on="0"/>
        <pt x="210" y="358" on="0"/>
        <pt x="210" y="280" on="1"/>
        <pt x="210" y="202" on="0"/>
        <pt x="274" y="122" on="0"/>
        <pt x="332" y="122" on="1"/>
        <pt x="381" y="122" on="0"/>
        <pt x="434" y="164" on="0"/>
        <pt x="439" y="209" on="1"/>
        <pt x="590" y="168" on="1"/>
      </contour>
    </TTGlyph>
    <TTGlyph name="cedilla" xMin="124" yMin="-215" xMax="391" yMax="37">
      <contour>
        <pt x="224" y="37" on="1"/>
        <pt x="304" y="26" on="0"/>
        <pt x="391" y="-47" on="0"/>
        <pt x="391" y="-97" on="1"/>
        <pt x="391" y="-154" on="0"/>
        <pt x="313" y="-215" on="0"/>
        <pt x="248" y="-215" on="1"/>
        <pt x="167" y="-215" on="0"/>
        <pt x="124" y="-175" on="1"/>
        <pt x="163" y="-96" on="1"/>
        <pt x="191" y="-124" on="0"/>
        <pt x="235" y="-124" on="1"/>
        <pt x="260" y="-124" on="0"/>
        <pt x="290" y="-98" on="0"/>
        <pt x="290" y="-75" on="1"/>
        <pt x="290" y="-48" on="0"/>
        <pt x="244" y="-12" on="0"/>
        <pt x="182" y="2" on="1"/>
      </contour>
    </TTGlyph>
    <TTGlyph name="cent" xMin="45" yMin="-100" xMax="548" yMax="600">
      <contour>
        <pt x="541" y="81" on="0"/>
        <pt x="440" y="-1" on="0"/>
        <pt x="353" y="-8" on="1"/>
        <pt x="353" y="-100" on="1"/>
        <pt x="265" y="-100" on="1"/>
        <pt x="265" y="-7" on="1"/>
        <pt x="158" y="6" on="0"/>
        <pt x="45" y="139" on="0"/>
        <pt x="45" y="250" on="1"/>
        <pt x="45" y="362" on="0"/>
        <pt x="160" y="496" on="0"/>
        <pt x="265" y="508" on="1"/>
        <pt x="265" y="600" on="1"/>
        <pt x="353" y="600" on="1"/>
        <pt x="353" y="508" on="1"/>
        <pt x="444" y="500" on="0"/>
        <pt x="537" y="417" on="0"/>
        <pt x="546" y="355" on="1"/>
        <pt x="419" y="309" on="1"/>
        <pt x="407" y="376" on="0"/>
        <pt x="353" y="397" on="1"/>
        <pt x="353" y="102" on="1"/>
        <pt x="409" y="119" on="0"/>
        <pt x="423" y="187" on="1"/>
        <pt x="548" y="144" on="1"/>
      </contour>
      <contour>
        <pt x="193" y="128" on="0"/>
        <pt x="265" y="103" on="1"/>
        <pt x="265" y="397" on="1"/>
        <pt x="229" y="385" on="0"/>
        <pt x="193" y="312" on="0"/>
        <pt x="193" y="248" on="1"/>
      </contour>
    </TTGlyph>
    <TTGlyph name="cent.tf" xMin="48" yMin="-100" xMax="551" yMax="600">
      <component glyphName="cent" x="3" y="0" flags="0x0"/>
    </TTGlyph>
    <TTGlyph name="circle" xMin="32" yMin="-10" xMax="568" yMax="510">
      <contour>
        <pt x="225" y="-10" on="0"/>
        <pt x="102" y="58" on="0"/>
        <pt x="32" y="177" on="0"/>
        <pt x="32" y="250" on="1"/>
        <pt x="32" y="323" on="0"/>
        <pt x="102" y="442" on="0"/>
        <pt x="225" y="510" on="0"/>
        <pt x="300" y="510" on="1"/>
        <pt x="375" y="510" on="0"/>
        <pt x="498" y="442" on="0"/>
        <pt x="568" y="323" on="0"/>
        <pt x="568" y="250" on="1"/>
        <pt x="568" y="177" on="0"/>
        <pt x="498" y="58" on="0"/>
        <pt x="375" y="-10" on="0"/>
        <pt x="300" y="-10" on="1"/>
      </contour>
      <contour>
        <pt x="361" y="104" on="0"/>
        <pt x="443" y="188" on="0"/>
        <pt x="443" y="250" on="1"/>
        <pt x="443" y="312" on="0"/>
        <pt x="361" y="396" on="0"/>
        <pt x="300" y="396" on="1"/>
        <pt x="239" y="396" on="0"/>
        <pt x="157" y="312" on="0"/>
        <pt x="157" y="250" on="1"/>
        <pt x="157" y="188" on="0"/>
        <pt x="239" y="104" on="0"/>
        <pt x="300" y="104" on="1"/>
      </contour>
    </TTGlyph>
    <TTGlyph name="circle.case" xMin="57" yMin="-10" xMax="747" yMax="670">
      <contour>
        <pt x="305" y="-10" on="0"/>
        <pt x="147" y="79" on="0"/>
        <pt x="57" y="234" on="0"/>
        <pt x="57" y="330" on="1"/>
        <pt x="57" y="426" on="0"/>
        <pt x="147" y="581" on="0"/>
        <pt x="305" y="670" on="0"/>
        <pt x="402" y="670" on="1"/>
        <pt x="499" y="670" on="0"/>
        <pt x="657" y="581" on="0"/>
        <pt x="747" y="426" on="0"/>
        <pt x="747" y="330" on="1"/>
        <pt x="747" y="234" on="0"/>
        <pt x="657" y="79" on="0"/>
        <pt x="499" y="-10" on="0"/>
        <pt x="402" y="-10" on="1"/>
      </contour>
      <contour>
        <pt x="465" y="104" on="0"/>
        <pt x="565" y="162" on="0"/>
        <pt x="622" y="265" on="0"/>
        <pt x="622" y="330" on="1"/>
        <pt x="622" y="395" on="0"/>
        <pt x="565" y="498" on="0"/>
        <pt x="465" y="556" on="0"/>
        <pt x="402" y="556" on="1"/>
        <pt x="339" y="556" on="0"/>
        <pt x="239" y="498" on="0"/>
        <pt x="182" y="395" on="0"/>
        <pt x="182" y="330" on="1"/>
        <pt x="182" y="265" on="0"/>
        <pt x="239" y="162" on="0"/>
        <pt x="339" y="104" on="0"/>
        <pt x="402" y="104" on="1"/>
      </contour>
    </TTGlyph>
    <TTGlyph name="circumflex" xMin="59" yMin="559" xMax="441" yMax="732">
      <contour>
        <pt x="319" y="559" on="1"/>
        <pt x="250" y="648" on="1"/>
        <pt x="181" y="559" on="1"/>
        <pt x="59" y="559" on="1"/>
        <pt x="168" y="732" on="1"/>
        <pt x="332" y="732" on="1"/>
        <pt x="441" y="559" on="1"/>
      </contour>
    </TTGlyph>
    <TTGlyph name="colon" xMin="51" yMin="-9" xMax="251" yMax="510">
      <component glyphName="period" x="6" y="338" flags="0x4"/>
      <component glyphName="period" x="6" y="0" flags="0x0"/>
    </TTGlyph>
    <TTGlyph name="colon.tf" xMin="51" yMin="-9" xMax="251" yMax="510">
      <component glyphName="period" x="6" y="338" flags="0x4"/>
      <component glyphName="period" x="6" y="0" flags="0x0"/>
    </TTGlyph>
    <TTGlyph name="coloninferior" xMin="38" yMin="-195" xMax="188" yMax="148">
      <component glyphName="periodsuperior" x="0" y="-522" flags="0x4"/>
      <component glyphName="periodsuperior" x="0" y="-311" flags="0x4"/>
    </TTGlyph>
    <TTGlyph name="colonsuperior" xMin="38" yMin="327" xMax="188" yMax="670">
      <component glyphName="periodsuperior" x="0" y="0" flags="0x0"/>
      <component glyphName="periodsuperior" x="0" y="211" flags="0x4"/>
    </TTGlyph>
    <TTGlyph name="comma" xMin="36" yMin="-158" xMax="250" yMax="172">
      <contour>
        <pt x="195" y="172" on="0"/>
        <pt x="250" y="100" on="0"/>
        <pt x="250" y="43" on="1"/>
        <pt x="250" y="-23" on="0"/>
        <pt x="179" y="-129" on="0"/>
        <pt x="111" y="-158" on="1"/>
        <pt x="36" y="-105" on="1"/>
        <pt x="83" y="-87" on="0"/>
        <pt x="148" y="-33" on="0"/>
        <pt x="160" y="2" on="1"/>
        <pt x="156" y="5" on="1"/>
        <pt x="145" y="-6" on="0"/>
        <pt x="125" y="-6" on="1"/>
        <pt x="92" y="-6" on="0"/>
        <pt x="42" y="38" on="0"/>
        <pt x="42" y="78" on="1"/>
        <pt x="42" y="123" on="0"/>
        <pt x="97" y="172" on="0"/>
        <pt x="142" y="172" on="1"/>
      </contour>
    </TTGlyph>
    <TTGlyph name="comma.tf" xMin="45" yMin="-158" xMax="259" yMax="172">
      <component glyphName="comma" x="9" y="0" flags="0x0"/>
    </TTGlyph>
    <TTGlyph name="commainferior" xMin="34" yMin="-307" xMax="194" yMax="-63">
      <component glyphName="commasuperior" x="0" y="-522" flags="0x4"/>
    </TTGlyph>
    <TTGlyph name="commasuperior" xMin="34" yMin="215" xMax="194" yMax="459">
      <contour>
        <pt x="153" y="459" on="0"/>
        <pt x="194" y="408" on="0"/>
        <pt x="194" y="364" on="1"/>
        <pt x="194" y="315" on="0"/>
        <pt x="141" y="236" on="0"/>
        <pt x="90" y="215" on="1"/>
        <pt x="34" y="254" on="1"/>
        <pt x="69" y="267" on="0"/>
        <pt x="117" y="307" on="0"/>
        <pt x="124" y="330" on="1"/>
        <pt x="120" y="332" on="1"/>
        <pt x="112" y="327" on="0"/>
        <pt x="103" y="327" on="1"/>
        <pt x="79" y="327" on="0"/>
        <pt x="38" y="362" on="0"/>
        <pt x="38" y="392" on="1"/>
        <pt x="38" y="424" on="0"/>
        <pt x="76" y="459" on="0"/>
        <pt x="113" y="459" on="1"/>
      </contour>
    </TTGlyph>
    <TTGlyph name="copyright" xMin="42" yMin="-10" xMax="730" yMax="670">
      <contour>
        <pt x="489" y="670" on="0"/>
        <pt x="645" y="586" on="0"/>
        <pt x="730" y="432" on="0"/>
        <pt x="730" y="330" on="1"/>
        <pt x="730" y="228" on="0"/>
        <pt x="645" y="74" on="0"/>
        <pt x="489" y="-10" on="0"/>
        <pt x="386" y="-10" on="1"/>
        <pt x="283" y="-10" on="0"/>
        <pt x="127" y="74" on="0"/>
        <pt x="42" y="228" on="0"/>
        <pt x="42" y="330" on="1"/>
        <pt x="42" y="432" on="0"/>
        <pt x="127" y="586" on="0"/>
        <pt x="283" y="670" on="0"/>
        <pt x="386" y="670" on="1"/>
      </contour>
      <contour>
        <pt x="309" y="586" on="0"/>
        <pt x="194" y="523" on="0"/>
        <pt x="131" y="407" on="0"/>
        <pt x="131" y="330" on="1"/>
        <pt x="131" y="253" on="0"/>
        <pt x="194" y="137" on="0"/>
        <pt x="309" y="74" on="0"/>
        <pt x="386" y="74" on="1"/>
        <pt x="463" y="74" on="0"/>
        <pt x="578" y="137" on="0"/>
        <pt x="641" y="253" on="0"/>
        <pt x="641" y="330" on="1"/>
        <pt x="641" y="407" on="0"/>
        <pt x="578" y="523" on="0"/>
        <pt x="463" y="586" on="0"/>
        <pt x="386" y="586" on="1"/>
      </contour>
      <contour>
        <pt x="524" y="520" on="0"/>
        <pt x="562" y="410" on="1"/>
        <pt x="466" y="363" on="1"/>
        <pt x="456" y="385" on="0"/>
        <pt x="422" y="404" on="0"/>
        <pt x="393" y="404" on="1"/>
        <pt x="359" y="404" on="0"/>
        <pt x="323" y="366" on="0"/>
        <pt x="323" y="329" on="1"/>
        <pt x="323" y="293" on="0"/>
        <pt x="359" y="254" on="0"/>
        <pt x="393" y="254" on="1"/>
        <pt x="424" y="254" on="0"/>
        <pt x="460" y="274" on="0"/>
        <pt x="470" y="299" on="1"/>
        <pt x="561" y="254" on="1"/>
        <pt x="536" y="192" on="0"/>
        <pt x="456" y="138" on="0"/>
        <pt x="382" y="138" on="1"/>
        <pt x="300" y="138" on="0"/>
        <pt x="204" y="241" on="0"/>
        <pt x="204" y="329" on="1"/>
        <pt x="204" y="417" on="0"/>
        <pt x="300" y="520" on="0"/>
        <pt x="382" y="520" on="1"/>
      </contour>
    </TTGlyph>
    <TTGlyph name="currency" xMin="36" yMin="43" xMax="610" yMax="616">
      <contour>
        <pt x="536" y="271" on="0"/>
        <pt x="512" y="226" on="1"/>
        <pt x="610" y="140" on="1"/>
        <pt x="512" y="43" on="1"/>
        <pt x="423" y="142" on="1"/>
        <pt x="380" y="121" on="0"/>
        <pt x="324" y="121" on="1"/>
        <pt x="269" y="121" on="0"/>
        <pt x="222" y="143" on="1"/>
        <pt x="134" y="43" on="1"/>
        <pt x="36" y="140" on="1"/>
        <pt x="134" y="227" on="1"/>
        <pt x="110" y="272" on="0"/>
        <pt x="110" y="330" on="1"/>
        <pt x="110" y="389" on="0"/>
        <pt x="134" y="432" on="1"/>
        <pt x="36" y="518" on="1"/>
        <pt x="134" y="616" on="1"/>
        <pt x="223" y="516" on="1"/>
        <pt x="267" y="537" on="0"/>
        <pt x="324" y="537" on="1"/>
        <pt x="381" y="537" on="0"/>
        <pt x="424" y="516" on="1"/>
        <pt x="512" y="616" on="1"/>
        <pt x="610" y="518" on="1"/>
        <pt x="513" y="430" on="1"/>
        <pt x="536" y="386" on="0"/>
        <pt x="536" y="330" on="1"/>
      </contour>
      <contour>
        <pt x="361" y="242" on="0"/>
        <pt x="407" y="290" on="0"/>
        <pt x="407" y="330" on="1"/>
        <pt x="407" y="369" on="0"/>
        <pt x="361" y="417" on="0"/>
        <pt x="324" y="417" on="1"/>
        <pt x="286" y="417" on="0"/>
        <pt x="240" y="369" on="0"/>
        <pt x="240" y="330" on="1"/>
        <pt x="240" y="290" on="0"/>
        <pt x="286" y="242" on="0"/>
        <pt x="324" y="242" on="1"/>
      </contour>
    </TTGlyph>
    <TTGlyph name="currency.tf" xMin="15" yMin="43" xMax="589" yMax="616">
      <component glyphName="currency" x="-21" y="0" flags="0x0"/>
    </TTGlyph>
    <TTGlyph name="d" xMin="40" yMin="-10" xMax="568" yMax="712">
      <contour>
        <pt x="568" y="712" on="1"/>
        <pt x="568" y="0" on="1"/>
        <pt x="415" y="0" on="1"/>
        <pt x="408" y="95" on="1"/>
        <pt x="386" y="46" on="0"/>
        <pt x="302" y="-10" on="0"/>
        <pt x="246" y="-10" on="1"/>
        <pt x="148" y="-10" on="0"/>
        <pt x="40" y="126" on="0"/>
        <pt x="40" y="248" on="1"/>
        <pt x="40" y="372" on="0"/>
        <pt x="150" y="510" on="0"/>
        <pt x="246" y="510" on="1"/>
        <pt x="299" y="510" on="0"/>
        <pt x="377" y="459" on="0"/>
        <pt x="398" y="415" on="1"/>
        <pt x="398" y="712" on="1"/>
      </contour>
      <contour>
        <pt x="348" y="115" on="0"/>
        <pt x="397" y="181" on="0"/>
        <pt x="397" y="245" on="1"/>
        <pt x="398" y="244" on="1"/>
        <pt x="398" y="257" on="1"/>
        <pt x="397" y="255" on="1"/>
        <pt x="397" y="317" on="0"/>
        <pt x="349" y="385" on="0"/>
        <pt x="305" y="385" on="1"/>
        <pt x="260" y="385" on="0"/>
        <pt x="211" y="319" on="0"/>
        <pt x="211" y="250" on="1"/>
        <pt x="211" y="181" on="0"/>
        <pt x="260" y="115" on="0"/>
        <pt x="305" y="115" on="1"/>
      </contour>
    </TTGlyph>
    <TTGlyph name="d.sc" xMin="69" yMin="0" xMax="614" yMax="560">
      <contour>
        <pt x="461" y="560" on="0"/>
        <pt x="614" y="414" on="0"/>
        <pt x="614" y="280" on="1"/>
        <pt x="614" y="146" on="0"/>
        <pt x="461" y="0" on="0"/>
        <pt x="320" y="0" on="1"/>
        <pt x="69" y="0" on="1"/>
        <pt x="69" y="560" on="1"/>
        <pt x="320" y="560" on="1"/>
      </contour>
      <contour>
        <pt x="383" y="127" on="0"/>
        <pt x="443" y="204" on="0"/>
        <pt x="443" y="280" on="1"/>
        <pt x="443" y="356" on="0"/>
        <pt x="383" y="433" on="0"/>
        <pt x="320" y="433" on="1"/>
        <pt x="236" y="433" on="1"/>
        <pt x="236" y="127" on="1"/>
        <pt x="320" y="127" on="1"/>
      </contour>
    </TTGlyph>
    <TTGlyph name="dagger" xMin="34" yMin="-100" xMax="561" yMax="660">
      <contour>
        <pt x="561" y="332" on="1"/>
        <pt x="376" y="332" on="1"/>
        <pt x="376" y="-100" on="1"/>
        <pt x="218" y="-100" on="1"/>
        <pt x="218" y="332" on="1"/>
        <pt x="34" y="332" on="1"/>
        <pt x="34" y="462" on="1"/>
        <pt x="218" y="462" on="1"/>
        <pt x="218" y="660" on="1"/>
        <pt x="376" y="660" on="1"/>
        <pt x="376" y="462" on="1"/>
        <pt x="561" y="462" on="1"/>
      </contour>
    </TTGlyph>
    <TTGlyph name="daggerdbl" xMin="34" yMin="-100" xMax="561" yMax="660">
      <contour>
        <pt x="376" y="332" on="1"/>
        <pt x="376" y="228" on="1"/>
        <pt x="561" y="228" on="1"/>
        <pt x="561" y="98" on="1"/>
        <pt x="376" y="98" on="1"/>
        <pt x="376" y="-100" on="1"/>
        <pt x="218" y="-100" on="1"/>
        <pt x="218" y="98" on="1"/>
        <pt x="34" y="98" on="1"/>
        <pt x="34" y="228" on="1"/>
        <pt x="218" y="228" on="1"/>
        <pt x="218" y="332" on="1"/>
        <pt x="34" y="332" on="1"/>
        <pt x="34" y="462" on="1"/>
        <pt x="218" y="462" on="1"/>
        <pt x="218" y="660" on="1"/>
        <pt x="376" y="660" on="1"/>
        <pt x="376" y="462" on="1"/>
        <pt x="561" y="462" on="1"/>
        <pt x="561" y="332" on="1"/>
      </contour>
    </TTGlyph>
    <TTGlyph name="daggerdblsuperior" xMin="33" yMin="209" xMax="450" yMax="730">
      <contour>
        <pt x="303" y="511" on="1"/>
        <pt x="303" y="428" on="1"/>
        <pt x="450" y="428" on="1"/>
        <pt x="450" y="336" on="1"/>
        <pt x="303" y="336" on="1"/>
        <pt x="303" y="209" on="1"/>
        <pt x="180" y="209" on="1"/>
        <pt x="180" y="336" on="1"/>
        <pt x="33" y="336" on="1"/>
        <pt x="33" y="428" on="1"/>
        <pt x="180" y="428" on="1"/>
        <pt x="180" y="511" on="1"/>
        <pt x="33" y="511" on="1"/>
        <pt x="33" y="603" on="1"/>
        <pt x="180" y="603" on="1"/>
        <pt x="180" y="730" on="1"/>
        <pt x="303" y="730" on="1"/>
        <pt x="303" y="603" on="1"/>
        <pt x="450" y="603" on="1"/>
        <pt x="450" y="511" on="1"/>
      </contour>
    </TTGlyph>
    <TTGlyph name="daggersuperior" xMin="33" yMin="209" xMax="450" yMax="730">
      <contour>
        <pt x="450" y="481" on="1"/>
        <pt x="303" y="481" on="1"/>
        <pt x="303" y="209" on="1"/>
        <pt x="180" y="209" on="1"/>
        <pt x="180" y="481" on="1"/>
        <pt x="33" y="481" on="1"/>
        <pt x="33" y="585" on="1"/>
        <pt x="180" y="585" on="1"/>
        <pt x="180" y="730" on="1"/>
        <pt x="303" y="730" on="1"/>
        <pt x="303" y="585" on="1"/>
        <pt x="450" y="585" on="1"/>
      </contour>
    </TTGlyph>
    <TTGlyph name="dcaron" xMin="40" yMin="-10" xMax="760" yMax="712">
      <contour>
        <pt x="398" y="712" on="1"/>
        <pt x="568" y="712" on="1"/>
        <pt x="568" y="0" on="1"/>
        <pt x="415" y="0" on="1"/>
        <pt x="408" y="95" on="1"/>
        <pt x="386" y="46" on="0"/>
        <pt x="302" y="-10" on="0"/>
        <pt x="246" y="-10" on="1"/>
        <pt x="148" y="-10" on="0"/>
        <pt x="40" y="126" on="0"/>
        <pt x="40" y="248" on="1"/>
        <pt x="40" y="372" on="0"/>
        <pt x="150" y="510" on="0"/>
        <pt x="246" y="510" on="1"/>
        <pt x="299" y="510" on="0"/>
        <pt x="377" y="459" on="0"/>
        <pt x="398" y="415" on="1"/>
      </contour>
      <contour>
        <pt x="760" y="712" on="1"/>
        <pt x="707" y="473" on="1"/>
        <pt x="610" y="473" on="1"/>
        <pt x="631" y="712" on="1"/>
      </contour>
      <contour>
        <pt x="348" y="115" on="0"/>
        <pt x="397" y="181" on="0"/>
        <pt x="397" y="245" on="1"/>
        <pt x="398" y="244" on="1"/>
        <pt x="398" y="257" on="1"/>
        <pt x="397" y="255" on="1"/>
        <pt x="397" y="317" on="0"/>
        <pt x="349" y="385" on="0"/>
        <pt x="305" y="385" on="1"/>
        <pt x="260" y="385" on="0"/>
        <pt x="211" y="319" on="0"/>
        <pt x="211" y="250" on="1"/>
        <pt x="211" y="181" on="0"/>
        <pt x="260" y="115" on="0"/>
        <pt x="305" y="115" on="1"/>
      </contour>
    </TTGlyph>
    <TTGlyph name="dcaron.sc" xMin="69" yMin="0" xMax="614" yMax="786">
      <component glyphName="d.sc" x="0" y="0" flags="0x0"/>
      <component glyphName="uni030C.cap" x="300" y="-100" flags="0x4"/>
    </TTGlyph>
    <TTGlyph name="dcroat" xMin="40" yMin="-10" xMax="644" yMax="712">
      <contour>
        <pt x="644" y="538" on="1"/>
        <pt x="568" y="538" on="1"/>
        <pt x="568" y="0" on="1"/>
        <pt x="415" y="0" on="1"/>
        <pt x="408" y="95" on="1"/>
        <pt x="386" y="46" on="0"/>
        <pt x="302" y="-10" on="0"/>
        <pt x="246" y="-10" on="1"/>
        <pt x="148" y="-10" on="0"/>
        <pt x="40" y="126" on="0"/>
        <pt x="40" y="248" on="1"/>
        <pt x="40" y="372" on="0"/>
        <pt x="150" y="510" on="0"/>
        <pt x="246" y="510" on="1"/>
        <pt x="299" y="510" on="0"/>
        <pt x="377" y="459" on="0"/>
        <pt x="398" y="415" on="1"/>
        <pt x="398" y="538" on="1"/>
        <pt x="268" y="538" on="1"/>
        <pt x="268" y="635" on="1"/>
        <pt x="398" y="635" on="1"/>
        <pt x="398" y="712" on="1"/>
        <pt x="568" y="712" on="1"/>
        <pt x="568" y="635" on="1"/>
        <pt x="644" y="635" on="1"/>
      </contour>
      <contour>
        <pt x="348" y="115" on="0"/>
        <pt x="397" y="181" on="0"/>
        <pt x="397" y="245" on="1"/>
        <pt x="398" y="244" on="1"/>
        <pt x="398" y="257" on="1"/>
        <pt x="397" y="255" on="1"/>
        <pt x="397" y="317" on="0"/>
        <pt x="349" y="385" on="0"/>
        <pt x="305" y="385" on="1"/>
        <pt x="260" y="385" on="0"/>
        <pt x="211" y="319" on="0"/>
        <pt x="211" y="250" on="1"/>
        <pt x="211" y="181" on="0"/>
        <pt x="260" y="115" on="0"/>
        <pt x="305" y="115" on="1"/>
      </contour>
    </TTGlyph>
    <TTGlyph name="dcroat.sc" xMin="10" yMin="0" xMax="633" yMax="560">
      <contour>
        <pt x="480" y="560" on="0"/>
        <pt x="633" y="414" on="0"/>
        <pt x="633" y="280" on="1"/>
        <pt x="633" y="146" on="0"/>
        <pt x="480" y="0" on="0"/>
        <pt x="339" y="0" on="1"/>
        <pt x="88" y="0" on="1"/>
        <pt x="88" y="243" on="1"/>
        <pt x="10" y="243" on="1"/>
        <pt x="10" y="316" on="1"/>
        <pt x="88" y="316" on="1"/>
        <pt x="88" y="560" on="1"/>
        <pt x="339" y="560" on="1"/>
      </contour>
      <contour>
        <pt x="402" y="127" on="0"/>
        <pt x="462" y="204" on="0"/>
        <pt x="462" y="280" on="1"/>
        <pt x="462" y="356" on="0"/>
        <pt x="402" y="433" on="0"/>
        <pt x="339" y="433" on="1"/>
        <pt x="255" y="433" on="1"/>
        <pt x="255" y="316" on="1"/>
        <pt x="368" y="316" on="1"/>
        <pt x="368" y="243" on="1"/>
        <pt x="255" y="243" on="1"/>
        <pt x="255" y="127" on="1"/>
        <pt x="339" y="127" on="1"/>
      </contour>
    </TTGlyph>
    <TTGlyph name="degree" xMin="46" yMin="298" xMax="450" yMax="670">
      <contour>
        <pt x="155" y="298" on="0"/>
        <pt x="46" y="399" on="0"/>
        <pt x="46" y="484" on="1"/>
        <pt x="46" y="569" on="0"/>
        <pt x="155" y="670" on="0"/>
        <pt x="248" y="670" on="1"/>
        <pt x="340" y="670" on="0"/>
        <pt x="450" y="569" on="0"/>
        <pt x="450" y="484" on="1"/>
        <pt x="450" y="399" on="0"/>
        <pt x="340" y="298" on="0"/>
        <pt x="248" y="298" on="1"/>
      </contour>
      <contour>
        <pt x="283" y="407" on="0"/>
        <pt x="326" y="451" on="0"/>
        <pt x="326" y="485" on="1"/>
        <pt x="326" y="519" on="0"/>
        <pt x="282" y="562" on="0"/>
        <pt x="248" y="562" on="1"/>
        <pt x="213" y="562" on="0"/>
        <pt x="169" y="519" on="0"/>
        <pt x="169" y="485" on="1"/>
        <pt x="169" y="450" on="0"/>
        <pt x="213" y="407" on="0"/>
        <pt x="248" y="407" on="1"/>
      </contour>
    </TTGlyph>
    <TTGlyph name="dieresis" xMin="56" yMin="556" xMax="446" yMax="710">
      <contour>
        <pt x="180" y="710" on="0"/>
        <pt x="226" y="669" on="0"/>
        <pt x="226" y="633" on="1"/>
        <pt x="226" y="597" on="0"/>
        <pt x="180" y="556" on="0"/>
        <pt x="140" y="556" on="1"/>
        <pt x="101" y="556" on="0"/>
        <pt x="56" y="597" on="0"/>
        <pt x="56" y="633" on="1"/>
        <pt x="56" y="669" on="0"/>
        <pt x="101" y="710" on="0"/>
        <pt x="140" y="710" on="1"/>
      </contour>
      <contour>
        <pt x="400" y="710" on="0"/>
        <pt x="446" y="669" on="0"/>
        <pt x="446" y="633" on="1"/>
        <pt x="446" y="597" on="0"/>
        <pt x="400" y="556" on="0"/>
        <pt x="360" y="556" on="1"/>
        <pt x="321" y="556" on="0"/>
        <pt x="276" y="597" on="0"/>
        <pt x="276" y="633" on="1"/>
        <pt x="276" y="669" on="0"/>
        <pt x="321" y="710" on="0"/>
        <pt x="360" y="710" on="1"/>
      </contour>
    </TTGlyph>
    <TTGlyph name="divide" xMin="50" yMin="28" xMax="554" yMax="624">
      <contour>
        <pt x="343" y="624" on="0"/>
        <pt x="389" y="580" on="0"/>
        <pt x="389" y="540" on="1"/>
        <pt x="389" y="502" on="0"/>
        <pt x="343" y="458" on="0"/>
        <pt x="303" y="458" on="1"/>
        <pt x="262" y="458" on="0"/>
        <pt x="216" y="502" on="0"/>
        <pt x="216" y="540" on="1"/>
        <pt x="216" y="580" on="0"/>
        <pt x="262" y="624" on="0"/>
        <pt x="303" y="624" on="1"/>
      </contour>
      <contour>
        <pt x="554" y="264" on="1"/>
        <pt x="50" y="264" on="1"/>
        <pt x="50" y="386" on="1"/>
        <pt x="554" y="386" on="1"/>
      </contour>
      <contour>
        <pt x="343" y="194" on="0"/>
        <pt x="389" y="150" on="0"/>
        <pt x="389" y="110" on="1"/>
        <pt x="389" y="72" on="0"/>
        <pt x="343" y="28" on="0"/>
        <pt x="303" y="28" on="1"/>
        <pt x="262" y="28" on="0"/>
        <pt x="216" y="72" on="0"/>
        <pt x="216" y="110" on="1"/>
        <pt x="216" y="150" on="0"/>
        <pt x="262" y="194" on="0"/>
        <pt x="303" y="194" on="1"/>
      </contour>
    </TTGlyph>
    <TTGlyph name="dollar" xMin="25" yMin="-88" xMax="611" yMax="748">
      <contour>
        <pt x="279" y="2" on="1"/>
        <pt x="188" y="8" on="0"/>
        <pt x="66" y="70" on="0"/>
        <pt x="25" y="126" on="1"/>
        <pt x="110" y="225" on="1"/>
        <pt x="132" y="181" on="0"/>
        <pt x="221" y="126" on="0"/>
        <pt x="279" y="118" on="1"/>
        <pt x="279" y="270" on="1"/>
        <pt x="209" y="284" on="0"/>
        <pt x="112" y="320" on="0"/>
        <pt x="47" y="395" on="0"/>
        <pt x="47" y="458" on="1"/>
        <pt x="47" y="538" on="0"/>
        <pt x="170" y="648" on="0"/>
        <pt x="279" y="658" on="1"/>
        <pt x="279" y="748" on="1"/>
        <pt x="376" y="748" on="1"/>
        <pt x="376" y="658" on="1"/>
        <pt x="460" y="652" on="0"/>
        <pt x="567" y="593" on="0"/>
        <pt x="611" y="539" on="1"/>
        <pt x="526" y="443" on="1"/>
        <pt x="498" y="489" on="0"/>
        <pt x="426" y="536" on="0"/>
        <pt x="376" y="541" on="1"/>
        <pt x="376" y="384" on="1"/>
        <pt x="444" y="370" on="0"/>
        <pt x="540" y="332" on="0"/>
        <pt x="605" y="255" on="0"/>
        <pt x="605" y="191" on="1"/>
        <pt x="605" y="111" on="0"/>
        <pt x="479" y="11" on="0"/>
        <pt x="376" y="2" on="1"/>
        <pt x="376" y="-88" on="1"/>
        <pt x="279" y="-88" on="1"/>
      </contour>
      <contour>
        <pt x="279" y="538" on="1"/>
        <pt x="242" y="532" on="0"/>
        <pt x="202" y="496" on="0"/>
        <pt x="202" y="468" on="1"/>
        <pt x="202" y="443" on="0"/>
        <pt x="242" y="414" on="0"/>
        <pt x="279" y="404" on="1"/>
      </contour>
      <contour>
        <pt x="451" y="131" on="0"/>
        <pt x="451" y="184" on="1"/>
        <pt x="451" y="210" on="0"/>
        <pt x="413" y="239" on="0"/>
        <pt x="376" y="249" on="1"/>
        <pt x="376" y="120" on="1"/>
      </contour>
    </TTGlyph>
    <TTGlyph name="dollar.tf" xMin="26" yMin="-88" xMax="577" yMax="748">
      <contour>
        <pt x="423" y="366" on="0"/>
        <pt x="511" y="328" on="0"/>
        <pt x="569" y="252" on="0"/>
        <pt x="569" y="191" on="1"/>
        <pt x="569" y="112" on="0"/>
        <pt x="454" y="13" on="0"/>
        <pt x="360" y="3" on="1"/>
        <pt x="360" y="-88" on="1"/>
        <pt x="263" y="-88" on="1"/>
        <pt x="263" y="2" on="1"/>
        <pt x="178" y="9" on="0"/>
        <pt x="65" y="70" on="0"/>
        <pt x="26" y="126" on="1"/>
        <pt x="118" y="225" on="1"/>
        <pt x="134" y="184" on="0"/>
        <pt x="214" y="129" on="0"/>
        <pt x="263" y="119" on="1"/>
        <pt x="263" y="269" on="1"/>
        <pt x="200" y="283" on="0"/>
        <pt x="112" y="320" on="0"/>
        <pt x="53" y="396" on="0"/>
        <pt x="53" y="458" on="1"/>
        <pt x="53" y="537" on="0"/>
        <pt x="165" y="646" on="0"/>
        <pt x="263" y="657" on="1"/>
        <pt x="263" y="748" on="1"/>
        <pt x="360" y="748" on="1"/>
        <pt x="360" y="658" on="1"/>
        <pt x="435" y="651" on="0"/>
        <pt x="528" y="595" on="0"/>
        <pt x="577" y="539" on="1"/>
        <pt x="490" y="443" on="1"/>
        <pt x="448" y="525" on="0"/>
        <pt x="360" y="541" on="1"/>
        <pt x="360" y="380" on="1"/>
      </contour>
      <contour>
        <pt x="191" y="443" on="0"/>
        <pt x="228" y="414" on="0"/>
        <pt x="263" y="403" on="1"/>
        <pt x="263" y="539" on="1"/>
        <pt x="227" y="532" on="0"/>
        <pt x="191" y="495" on="0"/>
        <pt x="191" y="468" on="1"/>
      </contour>
      <contour>
        <pt x="432" y="131" on="0"/>
        <pt x="432" y="184" on="1"/>
        <pt x="432" y="208" on="0"/>
        <pt x="395" y="237" on="0"/>
        <pt x="360" y="247" on="1"/>
        <pt x="360" y="119" on="1"/>
      </contour>
    </TTGlyph>
    <TTGlyph name="dotaccent" xMin="159" yMin="561" xMax="343" yMax="722">
      <contour>
        <pt x="296" y="722" on="0"/>
        <pt x="343" y="681" on="0"/>
        <pt x="343" y="642" on="1"/>
        <pt x="343" y="602" on="0"/>
        <pt x="296" y="561" on="0"/>
        <pt x="250" y="561" on="1"/>
        <pt x="206" y="561" on="0"/>
        <pt x="159" y="602" on="0"/>
        <pt x="159" y="642" on="1"/>
        <pt x="159" y="681" on="0"/>
        <pt x="206" y="722" on="0"/>
        <pt x="250" y="722" on="1"/>
      </contour>
    </TTGlyph>
    <TTGlyph name="dotlessi" xMin="61" yMin="0" xMax="231" yMax="500">
      <contour>
        <pt x="231" y="0" on="1"/>
        <pt x="61" y="0" on="1"/>
        <pt x="61" y="500" on="1"/>
        <pt x="231" y="500" on="1"/>
      </contour>
    </TTGlyph>
    <TTGlyph name="e" xMin="37" yMin="-10" xMax="548" yMax="510">
      <contour>
        <pt x="548" y="223" on="0"/>
        <pt x="543" y="201" on="1"/>
        <pt x="202" y="201" on="1"/>
        <pt x="210" y="154" on="0"/>
        <pt x="263" y="110" on="0"/>
        <pt x="307" y="110" on="1"/>
        <pt x="344" y="110" on="0"/>
        <pt x="391" y="138" on="0"/>
        <pt x="399" y="165" on="1"/>
        <pt x="537" y="121" on="1"/>
        <pt x="516" y="57" on="0"/>
        <pt x="395" y="-10" on="0"/>
        <pt x="307" y="-10" on="1"/>
        <pt x="176" y="-10" on="0"/>
        <pt x="37" y="126" on="0"/>
        <pt x="37" y="250" on="1"/>
        <pt x="37" y="374" on="0"/>
        <pt x="173" y="510" on="0"/>
        <pt x="298" y="510" on="1"/>
        <pt x="419" y="510" on="0"/>
        <pt x="548" y="377" on="0"/>
        <pt x="548" y="257" on="1"/>
      </contour>
      <contour>
        <pt x="256" y="391" on="0"/>
        <pt x="209" y="343" on="0"/>
        <pt x="202" y="293" on="1"/>
        <pt x="390" y="293" on="1"/>
        <pt x="376" y="391" on="0"/>
        <pt x="297" y="391" on="1"/>
      </contour>
    </TTGlyph>
    <TTGlyph name="e.sc" xMin="69" yMin="0" xMax="549" yMax="560">
      <contour>
        <pt x="549" y="119" on="1"/>
        <pt x="549" y="0" on="1"/>
        <pt x="69" y="0" on="1"/>
        <pt x="69" y="560" on="1"/>
        <pt x="543" y="560" on="1"/>
        <pt x="543" y="441" on="1"/>
        <pt x="236" y="441" on="1"/>
        <pt x="236" y="339" on="1"/>
        <pt x="475" y="339" on="1"/>
        <pt x="475" y="225" on="1"/>
        <pt x="236" y="225" on="1"/>
        <pt x="236" y="119" on="1"/>
      </contour>
    </TTGlyph>
    <TTGlyph name="eacute" xMin="37" yMin="-10" xMax="548" yMax="738">
      <component glyphName="e" x="0" y="0" flags="0x0"/>
      <component glyphName="acute" x="35" y="0" flags="0x0"/>
    </TTGlyph>
    <TTGlyph name="eacute.sc" xMin="69" yMin="0" xMax="549" yMax="786">
      <component glyphName="e.sc" x="0" y="0" flags="0x0"/>
      <component glyphName="acutecomb.cap" x="303" y="-100" flags="0x4"/>
    </TTGlyph>
    <TTGlyph name="ecaron" xMin="37" yMin="-10" xMax="548" yMax="738">
      <component glyphName="e" x="0" y="0" flags="0x0"/>
      <component glyphName="caron" x="41" y="0" flags="0x0"/>
    </TTGlyph>
    <TTGlyph name="ecaron.sc" xMin="69" yMin="0" xMax="549" yMax="786">
      <component glyphName="e.sc" x="0" y="0" flags="0x0"/>
      <component glyphName="uni030C.cap" x="300" y="-100" flags="0x4"/>
    </TTGlyph>
    <TTGlyph name="ecircumflex" xMin="37" yMin="-10" xMax="548" yMax="732">
      <component glyphName="e" x="0" y="0" flags="0x0"/>
      <component glyphName="circumflex" x="45" y="0" flags="0x0"/>
    </TTGlyph>
    <TTGlyph name="ecircumflex.sc" xMin="69" yMin="0" xMax="549" yMax="784">
      <component glyphName="e.sc" x="0" y="0" flags="0x0"/>
      <component glyphName="uni0302.cap" x="300" y="-100" flags="0x4"/>
    </TTGlyph>
    <TTGlyph name="edieresis" xMin="37" yMin="-10" xMax="548" yMax="710">
      <component glyphName="e" x="0" y="0" flags="0x0"/>
      <component glyphName="dieresis" x="44" y="0" flags="0x0"/>
    </TTGlyph>
    <TTGlyph name="edieresis.sc" xMin="69" yMin="0" xMax="549" yMax="770">
      <component glyphName="e.sc" x="0" y="0" flags="0x0"/>
      <component glyphName="dieresis" x="49" y="60" flags="0x4"/>
    </TTGlyph>
    <TTGlyph name="edotaccent" xMin="37" yMin="-10" xMax="548" yMax="722">
      <component glyphName="e" x="0" y="0" flags="0x0"/>
      <component glyphName="dotaccent" x="45" y="0" flags="0x0"/>
    </TTGlyph>
    <TTGlyph name="edotaccent.sc" xMin="69" yMin="0" xMax="549" yMax="782">
      <component glyphName="e.sc" x="0" y="0" flags="0x0"/>
      <component glyphName="dotaccent" x="50" y="60" flags="0x4"/>
    </TTGlyph>
    <TTGlyph name="egrave" xMin="37" yMin="-10" xMax="548" yMax="738">
      <component glyphName="e" x="0" y="0" flags="0x0"/>
      <component glyphName="grave" x="45" y="0" flags="0x0"/>
    </TTGlyph>
    <TTGlyph name="egrave.sc" xMin="69" yMin="0" xMax="549" yMax="786">
      <component glyphName="e.sc" x="0" y="0" flags="0x0"/>
      <component glyphName="gravecomb.cap" x="300" y="-100" flags="0x4"/>
    </TTGlyph>
    <TTGlyph name="eight" xMin="45" yMin="-10" xMax="582" yMax="668">
      <contour>
        <pt x="428" y="668" on="0"/>
        <pt x="561" y="569" on="0"/>
        <pt x="561" y="483" on="1"/>
        <pt x="561" y="432" on="0"/>
        <pt x="506" y="357" on="0"/>
        <pt x="456" y="338" on="1"/>
        <pt x="456" y="337" on="1"/>
        <pt x="517" y="317" on="0"/>
        <pt x="582" y="235" on="0"/>
        <pt x="582" y="175" on="1"/>
        <pt x="582" y="89" on="0"/>
        <pt x="439" y="-10" on="0"/>
        <pt x="313" y="-10" on="1"/>
        <pt x="189" y="-10" on="0"/>
        <pt x="45" y="89" on="0"/>
        <pt x="45" y="175" on="1"/>
        <pt x="45" y="235" on="0"/>
        <pt x="110" y="317" on="0"/>
        <pt x="171" y="337" on="1"/>
        <pt x="171" y="338" on="1"/>
        <pt x="121" y="357" on="0"/>
        <pt x="66" y="432" on="0"/>
        <pt x="66" y="483" on="1"/>
        <pt x="66" y="569" on="0"/>
        <pt x="199" y="668" on="0"/>
        <pt x="313" y="668" on="1"/>
      </contour>
      <contour>
        <pt x="272" y="543" on="0"/>
        <pt x="226" y="503" on="0"/>
        <pt x="226" y="467" on="1"/>
        <pt x="226" y="432" on="0"/>
        <pt x="273" y="391" on="0"/>
        <pt x="313" y="391" on="1"/>
        <pt x="354" y="391" on="0"/>
        <pt x="401" y="432" on="0"/>
        <pt x="401" y="467" on="1"/>
        <pt x="401" y="503" on="0"/>
        <pt x="354" y="543" on="0"/>
        <pt x="313" y="543" on="1"/>
      </contour>
      <contour>
        <pt x="361" y="115" on="0"/>
        <pt x="415" y="159" on="0"/>
        <pt x="415" y="197" on="1"/>
        <pt x="415" y="236" on="0"/>
        <pt x="361" y="279" on="0"/>
        <pt x="313" y="279" on="1"/>
        <pt x="266" y="279" on="0"/>
        <pt x="212" y="236" on="0"/>
        <pt x="212" y="197" on="1"/>
        <pt x="212" y="159" on="0"/>
        <pt x="266" y="115" on="0"/>
        <pt x="313" y="115" on="1"/>
      </contour>
    </TTGlyph>
    <TTGlyph name="eight.dnom" xMin="30" yMin="-10" xMax="386" yMax="398">
      <component glyphName="uni2078" x="0" y="-337" flags="0x4"/>
    </TTGlyph>
    <TTGlyph name="eight.numr" xMin="30" yMin="262" xMax="386" yMax="670">
      <component glyphName="uni2078" x="0" y="-65" flags="0x4"/>
    </TTGlyph>
    <TTGlyph name="eight.osf" xMin="43" yMin="-10" xMax="577" yMax="668">
      <contour>
        <pt x="423" y="668" on="0"/>
        <pt x="554" y="570" on="0"/>
        <pt x="554" y="484" on="1"/>
        <pt x="554" y="434" on="0"/>
        <pt x="500" y="359" on="0"/>
        <pt x="449" y="338" on="1"/>
        <pt x="449" y="337" on="1"/>
        <pt x="509" y="317" on="0"/>
        <pt x="577" y="235" on="0"/>
        <pt x="577" y="178" on="1"/>
        <pt x="577" y="89" on="0"/>
        <pt x="435" y="-10" on="0"/>
        <pt x="310" y="-10" on="1"/>
        <pt x="186" y="-10" on="0"/>
        <pt x="43" y="89" on="0"/>
        <pt x="43" y="178" on="1"/>
        <pt x="43" y="234" on="0"/>
        <pt x="111" y="317" on="0"/>
        <pt x="171" y="337" on="1"/>
        <pt x="171" y="338" on="1"/>
        <pt x="120" y="358" on="0"/>
        <pt x="66" y="433" on="0"/>
        <pt x="66" y="484" on="1"/>
        <pt x="66" y="570" on="0"/>
        <pt x="196" y="668" on="0"/>
        <pt x="310" y="668" on="1"/>
      </contour>
      <contour>
        <pt x="269" y="551" on="0"/>
        <pt x="221" y="510" on="0"/>
        <pt x="221" y="473" on="1"/>
        <pt x="221" y="436" on="0"/>
        <pt x="269" y="395" on="0"/>
        <pt x="310" y="395" on="1"/>
        <pt x="351" y="395" on="0"/>
        <pt x="399" y="436" on="0"/>
        <pt x="399" y="473" on="1"/>
        <pt x="399" y="510" on="0"/>
        <pt x="351" y="551" on="0"/>
        <pt x="310" y="551" on="1"/>
      </contour>
      <contour>
        <pt x="357" y="107" on="0"/>
        <pt x="411" y="152" on="0"/>
        <pt x="411" y="192" on="1"/>
        <pt x="411" y="232" on="0"/>
        <pt x="357" y="277" on="0"/>
        <pt x="310" y="277" on="1"/>
        <pt x="263" y="277" on="0"/>
        <pt x="209" y="232" on="0"/>
        <pt x="209" y="192" on="1"/>
        <pt x="209" y="152" on="0"/>
        <pt x="263" y="107" on="0"/>
        <pt x="310" y="107" on="1"/>
      </contour>
    </TTGlyph>
</ttFont>
